<svg xmlns="http://www.w3.org/2000/svg" xmlns:svg="http://www.w3.org/2000/svg" id="svg8" width="665" height="150" version="1.1" viewBox="0 0 175.948 39.688"><defs id="defs2"><filter style="color-interpolation-filters:sRGB" id="filter1014" width="1.064" height="1.24" x="-.032" y="-.12"><feGaussianBlur id="feGaussianBlur1016" stdDeviation="1.401"/></filter></defs><metadata id="metadata5"/><g id="layer1" transform="translate(0,-257.3125)"><text id="text131" x="45.566" y="294.932" xml:space="preserve" style="font-style:normal;font-weight:400;font-size:38.41312408px;line-height:1.25;font-family:sans-serif;letter-spacing:0;word-spacing:0;fill:#ff9f00;fill-opacity:1;stroke:#000;stroke-width:.96032816;stroke-opacity:1;filter:url(#filter1014)"><tspan style="font-style:normal;font-variant:normal;font-weight:400;font-stretch:normal;font-family:serif;-inkscape-font-specification:serif;fill:#ff9f00;fill-opacity:1;stroke:#000;stroke-width:.96032816;stroke-opacity:1" id="tspan129" x="45.566" y="294.932">KAEL</tspan></text><path id="path254" d="m 20.708094,278.11085 0.276666,-0.47897 5.729624,-9.92344 -4.900375,-8.48677 -10.906917,18.88918 10.906917,18.88918 4.900375,-8.48702 -5.729624,-9.92319 -0.276666,-0.47897" style="fill:#ffa000;fill-opacity:1;fill-rule:nonzero;stroke:#000;stroke-width:.02503769"/><path id="path256" d="m 14.977969,287.07634 -4.070877,7.05037 -9.24817,-16.01586 9.24817,-16.01586 4.070877,7.05011 0.829499,-1.43666 -4.900376,-8.48677 L 0,278.11085 l 10.907092,18.88918 4.900376,-8.48702 -0.829499,-1.43667" style="fill:#ffa000;fill-opacity:1;fill-rule:nonzero;stroke:#fff;stroke-width:.02503769"/><path id="path258" d="m 32.472802,275.80313 0.009,0.005 v -3.04633 l -6.878353,11.91168 0.873565,1.51303 5.995775,-10.38338" style="fill:#ffa000;fill-opacity:1;fill-rule:nonzero;stroke:#000;stroke-width:.02503769"/><path id="path260" d="m 32.472802,271.63786 0.009,0.005 v -3.04633 l -8.080913,13.99431 0.873565,1.51303 7.198335,-12.46601" style="fill:#ffa000;fill-opacity:1;fill-rule:nonzero;stroke:#000;stroke-width:.02503769"/><path id="path262" d="m 22.869347,279.93835 9.603455,-16.63103 0.009,0.005 v -3.67579 l -10.667793,18.47432 1.055338,1.8275" style="fill:#ffa000;fill-opacity:1;fill-rule:nonzero;stroke:#000;stroke-width:.02503769"/><path id="path264" d="m 32.472802,267.47259 0.009,0.005 V 264.431 l -9.283473,16.0772 0.873815,1.51278 8.400645,-14.5484" style="fill:#ffa000;fill-opacity:1;fill-rule:nonzero;stroke:#000;stroke-width:.02503769"/><path id="path266" d="m 32.960786,259.63629 v 36.94887 l 10.667557,-18.47431 z" style="fill:#ffa000;fill-opacity:1;fill-rule:nonzero;stroke:#000;stroke-width:.02503769"/><path id="path268" d="m 32.472802,279.9684 0.009,0.005 v -3.04658 l -5.675542,9.82904 0.873565,1.51303 4.792964,-8.30074" style="fill:#ffa000;fill-opacity:1;fill-rule:nonzero;stroke:#000;stroke-width:.02503769"/><path id="path270" d="m 32.472802,284.13367 0.009,0.005 v -3.04658 l -4.473233,7.74641 0.873816,1.51302 3.590404,-6.2181" style="fill:#ffa000;fill-opacity:1;fill-rule:nonzero;stroke:#000;stroke-width:.02503769"/><path id="path272" d="m 32.481815,292.61944 -1.145223,1.98298 1.145223,1.98274 z" style="fill:#ffa000;fill-opacity:1;fill-rule:nonzero;stroke:#000;stroke-width:.02503769"/><path id="path274" d="m 31.007847,294.03256 1.464955,-2.53706 0.009,0.005 v -2.07762 l -2.067862,3.58089 0.593894,1.02854 v 0" style="fill:#ffa000;fill-opacity:1;fill-rule:nonzero;stroke:#000;stroke-width:.02503769"/><path id="path276" d="m 32.472802,288.29919 0.009,0.005 v -3.04633 l -3.270422,5.66352 0.873565,1.51303 2.387844,-4.13522" style="fill:#ffa000;fill-opacity:1;fill-rule:nonzero;stroke:#000;stroke-width:.02503769"/><text style="font-style:normal;font-weight:400;font-size:38.41312408px;line-height:1.25;font-family:sans-serif;letter-spacing:0;word-spacing:0;fill:#fff;fill-opacity:1;stroke:#fff;stroke-width:.96032816;stroke-opacity:1" id="text87" x="47.683" y="296.52" xml:space="preserve"><tspan id="tspan85" x="47.683" y="296.52" style="font-style:normal;font-variant:normal;font-weight:400;font-stretch:normal;font-family:serif;-inkscape-font-specification:serif;fill:#fff;fill-opacity:1;stroke:#fff;stroke-width:.96032816;stroke-opacity:1">KAEL</tspan></text></g></svg>