<svg height="512" viewBox="0 0 60 60" width="512" xmlns="http://www.w3.org/2000/svg"><g id="Page-1" fill="none" fill-rule="evenodd"><g id="013---Aperture" fill-rule="nonzero"><circle id="Oval" cx="30" cy="30" fill="#cfd8dc" r="29"/><path id="Shape" d="m30 1c-.5033333 0-1.0033333.01266667-1.5.038 15.4192225.79012792 27.5158989 13.5225465 27.5158989 28.962s-12.0966764 28.1718721-27.5158989 28.962c.4973333.0253333.9973333.038 1.5.038 16.0162576-.0000002 28.9999996-12.9837424 28.9999996-29s-12.983742-28.99999976-28.9999996-29z" fill="#9e9e9e"/><g fill="#7f8e94"><path id="Shape" d="m46 30v.09c-.0248528 8.836556-7.208444 15.9798528-16.045 15.955s-15.9798528-7.208444-15.955-16.045v-.09c.0248528-8.836556 7.208444-15.9798528 16.045-15.955s15.9798528 7.208444 15.955 16.045z"/><path id="Shape" d="m51.65 42.5c-4.4601079 7.7404264-12.7165399 12.5074195-21.65 12.5000086l7.91-11.0900086c4.9760853-2.8264037 8.0615872-8.0973105 8.09-13.82z"/><path id="Shape" d="m55 30c.0055754 4.3892321-1.1501954 8.7018098-3.35 12.5l-5.65-12.41v-.09c.0021111-5.6811898-3.0085339-10.9374486-7.91-13.81l13.56 1.31c2.1998046 3.7981902 3.3555754 8.1107679 3.35 12.5z"/><path id="Shape" d="m51.65 17.5-13.56-1.31c-4.9340026-2.8837858-11.030337-2.9218879-16-.1l7.91-11.09c8.9334601-.00741949 17.1898921 4.75957356 21.65 12.5z"/><path id="Shape" d="m51.65 17.5c-4.4601079-7.74042644-12.7165399-12.50741949-21.65-12.5l-7.91 11.09c4.9530529-2.8169907 11.0305034-2.7872481 15.9557474.0780863 4.925244 2.8653343 7.9549721 8.133829 7.9542526 13.8319137v.09c-.0284128 5.7226895-3.1139147 10.9935963-8.09 13.82l-7.91 11.09c8.9315263-.0002269 17.1844939-4.7652896 21.6501588-12.500275s4.4656044-17.2647963-.0001588-24.999725z"/></g><path id="Shape" d="m51.65 17.5c-4.4601079-7.74042644-12.7165399-12.50741949-21.65-12.5l-.125.176c12.557527 1.4508705 22.0544063 12.0499796 22.1231884 24.6908569s-9.3121936 23.3427054-21.8531884 24.9301431l-.145.203c8.9315263-.0002269 17.1844939-4.7652896 21.6501588-12.500275s4.4656044-17.2647963-.0001588-24.999725z" fill="#545c60"/><path id="Shape" d="m30 4.99999135-7.91 11.09000865c-4.9760853 2.8264037-8.0615872 8.0973105-8.09 13.82l-5.65-12.41c4.4601079-7.74042644 12.7165399-12.50741949 21.65-12.50000865z" fill="#7f8e94"/><path id="Shape" d="m21.91 43.81-13.56-1.31c-4.46581987-7.7350269-4.46581987-17.2649731 0-25l5.65 12.41v.09c-.0021111 5.6811898 3.0085339 10.9374486 7.91 13.81z" fill="#7f8e94"/><path id="Shape" d="m37.91 43.91-7.91 11.09c-8.9334601.0074195-17.1898921-4.7595736-21.65-12.5l13.56 1.31c4.9340026 2.8837858 11.030337 2.9218879 16 .1z" fill="#7f8e94"/><path id="Shape" d="m46 30v.09c-.0248528 8.836556-7.208444 15.9798528-16.045 15.955s-15.9798528-7.208444-15.955-16.045v-.09c.0248528-8.836556 7.208444-15.9798528 16.045-15.955s15.9798528 7.208444 15.955 16.045z" fill="#02a9f4"/><path id="Shape" d="m38.09 16.19c-2.4533402-1.437848-5.2463633-2.1939321-8.09-2.19-.507 0-1.006.032-1.5.078 8.2252357.7555884 14.5149658 7.6621457 14.5 15.922v.09c-.0366233 8.2233284-6.3115373 15.074669-14.5 15.832.495.046.993.078 1.5.078 8.8015278.0001392 15.9504914-7.1086114 16-15.91v-.09c.0021111-5.6811898-3.0085339-10.9374486-7.91-13.81z" fill="#0377bc"/><path id="Shape" d="m30 0c-16.5685425 0-30 13.4314575-30 30s13.4314575 30 30 30 30-13.4314575 30-30c-.018737-16.5607751-13.4392249-29.98126296-30-30zm0 58c-15.463973 0-28-12.536027-28-28s12.536027-28 28-28 28 12.536027 28 28c-.0176345 15.4566626-12.5433374 27.9823655-28 28z" fill="#000"/><path id="Shape" d="m30 4c-2.4703459-.00135419-4.9283162.34882241-7.3 1.04-.3514198.09286243-.6247779.3690976-.7139561.72147035s.0198686.7253866.2848081.97423667.6440455.33434406.990148.22329298c1.5449292-.44722681 3.1309018-.73802196 4.734-.868l-6.625 9.29c-4.0249441 2.3790703-6.8949005 6.30813-7.937 10.866l-3.952-8.68c2.1882511-3.617802 5.292868-6.5937498 9-8.627.3216365-.16707125.5276965-.49509784.5385861-.85737429.0108897-.36227645-.1750958-.70208752-.4861167-.88817578-.3110208-.18608826-.698386-.18932116-1.0124694-.00844993-11.50261963 6.2866532-16.52858027 20.1513217-11.72637268 32.3484964 4.80220758 12.1971746 17.93136818 18.913904 30.63243848 15.6712075s21.0035763-15.4311216 19.3710789-28.4375515c-1.6324975-13.0064299-12.6896644-22.76493249-25.7981447-22.7681524zm.506 2.013c7.6743768.1626148 14.8071813 3.9890576 19.187 10.293l-11.341-1.1c-4.0647924-2.3099761-8.9040878-2.8355301-13.37-1.452zm-.506 8.987c8.2842712 0 15 6.7157288 15 15s-6.7157288 15-15 15-15-6.7157288-15-15c.0093685-8.2803876 6.7196124-14.9906315 15-15zm-21.706 4.79 4.713 10.353c.0403702 4.6927392 2.0258744 9.1584036 5.483 12.332l-9.517-.92c-3.70908082-6.7248085-3.96169008-14.8220701-.679-21.765zm2.013 23.9 11.341 1.1c4.0647924 2.3099761 8.9040878 2.8355301 13.37 1.452l-5.524 7.745c-7.6743768-.1626148-14.8071813-3.9890576-19.187-10.293zm21.7 10.216 6.626-9.291c4.0249441-2.3790703 6.8949005-6.30813 7.937-10.866l3.952 8.681c-3.9827878 6.5657465-10.8640755 10.8321746-18.516 11.48zm19.7-13.692-4.714-10.357c-.0403702-4.6927392-2.0258744-9.1584036-5.483-12.332l9.517.92c3.7073753 6.7278424 3.9614081 14.8260197.683 21.773z" fill="#000"/></g></g></svg>