<?xml version="1.0" encoding="UTF-8" standalone="no"?>
<!-- Created with Inkscape (http://www.inkscape.org/) -->

<svg
   xmlns:dc="http://purl.org/dc/elements/1.1/"
   xmlns:cc="http://creativecommons.org/ns#"
   xmlns:rdf="http://www.w3.org/1999/02/22-rdf-syntax-ns#"
   xmlns:svg="http://www.w3.org/2000/svg"
   xmlns="http://www.w3.org/2000/svg"
   xmlns:sodipodi="http://sodipodi.sourceforge.net/DTD/sodipodi-0.dtd"
   xmlns:inkscape="http://www.inkscape.org/namespaces/inkscape"
   version="1.1"
   id="svg2"
   xml:space="preserve"
   width="666.66669"
   height="666.66669"
   viewBox="0 0 666.66669 666.66669"
   sodipodi:docname="confraternizacao.svg"
   inkscape:version="0.92.4 (unknown)"><metadata
     id="metadata8"><rdf:RDF><cc:Work
         rdf:about=""><dc:format>image/svg+xml</dc:format><dc:type
           rdf:resource="http://purl.org/dc/dcmitype/StillImage" /><dc:title /></cc:Work></rdf:RDF></metadata><defs
     id="defs6"><clipPath
       clipPathUnits="userSpaceOnUse"
       id="clipPath18"><path
         d="M 0,500 H 500 V 0 H 0 Z"
         id="path16"
         inkscape:connector-curvature="0" /></clipPath><clipPath
       clipPathUnits="userSpaceOnUse"
       id="clipPath54"><path
         d="m 155.965,399.324 h 19.931 v -7.611 h -19.931 z"
         id="path52"
         inkscape:connector-curvature="0" /></clipPath><clipPath
       clipPathUnits="userSpaceOnUse"
       id="clipPath70"><path
         d="m 155.358,400.209 h 21.262 v -6.905 h -21.262 z"
         id="path68"
         inkscape:connector-curvature="0" /></clipPath><clipPath
       clipPathUnits="userSpaceOnUse"
       id="clipPath86"><path
         d="m 160.123,412.599 h 4.245 v -10.045 h -4.245 z"
         id="path84"
         inkscape:connector-curvature="0" /></clipPath><clipPath
       clipPathUnits="userSpaceOnUse"
       id="clipPath106"><path
         d="m 146.101,439.182 h 53.58 v -71.555 h -53.58 z"
         id="path104"
         inkscape:connector-curvature="0" /></clipPath><clipPath
       clipPathUnits="userSpaceOnUse"
       id="clipPath158"><path
         d="m 186.152,352.568 h 21.125 v -23.832 h -21.125 z"
         id="path156"
         inkscape:connector-curvature="0" /></clipPath><clipPath
       clipPathUnits="userSpaceOnUse"
       id="clipPath174"><path
         d="m 126.254,351.076 h 70.458 v -92.038 h -70.458 z"
         id="path172"
         inkscape:connector-curvature="0" /></clipPath><clipPath
       clipPathUnits="userSpaceOnUse"
       id="clipPath190"><path
         d="M 145.827,324.792 H 190.49 V 259.611 H 145.827 Z"
         id="path188"
         inkscape:connector-curvature="0" /></clipPath><clipPath
       clipPathUnits="userSpaceOnUse"
       id="clipPath242"><path
         d="m 115.455,397.862 h 19.91 v -6.854 h -19.91 z"
         id="path240"
         inkscape:connector-curvature="0" /></clipPath><clipPath
       clipPathUnits="userSpaceOnUse"
       id="clipPath274"><path
         d="m 127.003,411.134 h 2.926 v -8.3 h -2.926 z"
         id="path272"
         inkscape:connector-curvature="0" /></clipPath><clipPath
       clipPathUnits="userSpaceOnUse"
       id="clipPath290"><path
         d="M 95.7524,431.724 H 138.899 V 354.568 H 95.7524 Z"
         id="path288"
         inkscape:connector-curvature="0" /></clipPath><clipPath
       clipPathUnits="userSpaceOnUse"
       id="clipPath318"><path
         d="m 129.932,351.126 h 14.489 v -89.692 h -14.489 z"
         id="path316"
         inkscape:connector-curvature="0" /></clipPath><clipPath
       clipPathUnits="userSpaceOnUse"
       id="clipPath338"><path
         d="m 72.003,366.436 h 24.3335 v -57.31 H 72.003 Z"
         id="path336"
         inkscape:connector-curvature="0" /></clipPath><clipPath
       clipPathUnits="userSpaceOnUse"
       id="clipPath362"><path
         d="M 84.7431,311.726 H 134.822 V 294.634 H 84.7431 Z"
         id="path360"
         inkscape:connector-curvature="0" /></clipPath><clipPath
       clipPathUnits="userSpaceOnUse"
       id="clipPath382"><path
         d="m 130.741,297.429 h 34.974 v -13.008 h -34.974 z"
         id="path380"
         inkscape:connector-curvature="0" /></clipPath><clipPath
       clipPathUnits="userSpaceOnUse"
       id="clipPath402"><path
         d="m 145.702,293.72 h 13.234 v -4.419 h -13.234 z"
         id="path400"
         inkscape:connector-curvature="0" /></clipPath><clipPath
       clipPathUnits="userSpaceOnUse"
       id="clipPath418"><path
         d="m 142.715,296.139 h 13.496 v -3.731 h -13.496 z"
         id="path416"
         inkscape:connector-curvature="0" /></clipPath><clipPath
       clipPathUnits="userSpaceOnUse"
       id="clipPath434"><path
         d="m 136.624,298.999 h 15.54 v -4.244 h -15.54 z"
         id="path432"
         inkscape:connector-curvature="0" /></clipPath><clipPath
       clipPathUnits="userSpaceOnUse"
       id="clipPath470"><path
         d="m 41.8173,393.578 h 11.0978 v -37.24 H 41.8173 Z"
         id="path468"
         inkscape:connector-curvature="0" /></clipPath><clipPath
       clipPathUnits="userSpaceOnUse"
       id="clipPath486"><path
         d="M 48.511,354.968 H 63.0442 V 335.085 H 48.511 Z"
         id="path484"
         inkscape:connector-curvature="0" /></clipPath><clipPath
       clipPathUnits="userSpaceOnUse"
       id="clipPath510"><path
         d="m 41.0682,354.157 h 6.9907 v -8.394 h -6.9907 z"
         id="path508"
         inkscape:connector-curvature="0" /></clipPath><clipPath
       clipPathUnits="userSpaceOnUse"
       id="clipPath558"><path
         d="m 317.57,166.922 h 5.681 v -7.185 h -5.681 z"
         id="path556"
         inkscape:connector-curvature="0" /></clipPath><clipPath
       clipPathUnits="userSpaceOnUse"
       id="clipPath578"><path
         d="m 323.035,192.265 h 45.849 v -91.37 h -45.849 z"
         id="path576"
         inkscape:connector-curvature="0" /></clipPath><clipPath
       clipPathUnits="userSpaceOnUse"
       id="clipPath598"><path
         d="m 336.996,156.596 h 27.549 v -7.644 h -27.549 z"
         id="path596"
         inkscape:connector-curvature="0" /></clipPath><clipPath
       clipPathUnits="userSpaceOnUse"
       id="clipPath614"><path
         d="m 345.254,172.14 h 10.664 v -13.666 h -10.664 z"
         id="path612"
         inkscape:connector-curvature="0" /></clipPath><clipPath
       clipPathUnits="userSpaceOnUse"
       id="clipPath690"><path
         d="m 384.64,125.625 h 48.01 V 93.3098 h -48.01 z"
         id="path688"
         inkscape:connector-curvature="0" /></clipPath><clipPath
       clipPathUnits="userSpaceOnUse"
       id="clipPath730"><path
         d="m 378.815,141.267 h 21.837 v -11.542 h -21.837 z"
         id="path728"
         inkscape:connector-curvature="0" /></clipPath><clipPath
       clipPathUnits="userSpaceOnUse"
       id="clipPath746"><path
         d="m 378.685,142.082 h 23.202 v -9.622 h -23.202 z"
         id="path744"
         inkscape:connector-curvature="0" /></clipPath><clipPath
       clipPathUnits="userSpaceOnUse"
       id="clipPath762"><path
         d="m 382.159,149.293 h 7.666 v -7.431 h -7.666 z"
         id="path760"
         inkscape:connector-curvature="0" /></clipPath><clipPath
       clipPathUnits="userSpaceOnUse"
       id="clipPath794"><path
         d="m 367.952,172.215 h 46.299 v -51.688 h -46.299 z"
         id="path792"
         inkscape:connector-curvature="0" /></clipPath><clipPath
       clipPathUnits="userSpaceOnUse"
       id="clipPath818"><path
         d="m 389.466,121.936 h 44.9 V 37.7444 h -44.9 z"
         id="path816"
         inkscape:connector-curvature="0" /></clipPath><clipPath
       clipPathUnits="userSpaceOnUse"
       id="clipPath842"><path
         d="m 393.381,73.7943 h 27.552 V 56.8684 h -27.552 z"
         id="path840"
         inkscape:connector-curvature="0" /></clipPath><clipPath
       clipPathUnits="userSpaceOnUse"
       id="clipPath858"><path
         d="M 383.364,41.717 H 417.52 V 27.2216 h -34.156 z"
         id="path856"
         inkscape:connector-curvature="0" /></clipPath><clipPath
       clipPathUnits="userSpaceOnUse"
       id="clipPath1038"><path
         d="m 128.356,212.885 h 44.697 v -71.632 h -44.697 z"
         id="path1036"
         inkscape:connector-curvature="0" /></clipPath><clipPath
       clipPathUnits="userSpaceOnUse"
       id="clipPath1054"><path
         d="m 139.462,146.964 h 15.434 v -10.85 h -15.434 z"
         id="path1052"
         inkscape:connector-curvature="0" /></clipPath><clipPath
       clipPathUnits="userSpaceOnUse"
       id="clipPath1070"><path
         d="m 142.779,187.475 h 6.661 v -18.222 h -6.661 z"
         id="path1068"
         inkscape:connector-curvature="0" /></clipPath><clipPath
       clipPathUnits="userSpaceOnUse"
       id="clipPath1150"><path
         d="M 70.7013,101.716 H 149.58 V 25.6842 H 70.7013 Z"
         id="path1148"
         inkscape:connector-curvature="0" /></clipPath><clipPath
       clipPathUnits="userSpaceOnUse"
       id="clipPath1190"><path
         d="M 95.7901,84.3812 H 108.593 V 56.9048 H 95.7901 Z"
         id="path1188"
         inkscape:connector-curvature="0" /></clipPath><clipPath
       clipPathUnits="userSpaceOnUse"
       id="clipPath1206"><path
         d="M 69.5553,94.9318 H 83.0407 V 87.0137 H 69.5553 Z"
         id="path1204"
         inkscape:connector-curvature="0" /></clipPath><clipPath
       clipPathUnits="userSpaceOnUse"
       id="clipPath1230"><path
         d="M 64.7925,190.667 H 137.332 V 81.1281 H 64.7925 Z"
         id="path1228"
         inkscape:connector-curvature="0" /></clipPath><clipPath
       clipPathUnits="userSpaceOnUse"
       id="clipPath1246"><path
         d="M 79.1708,160.079 H 114.61 v -39.24 H 79.1708 Z"
         id="path1244"
         inkscape:connector-curvature="0" /></clipPath><clipPath
       clipPathUnits="userSpaceOnUse"
       id="clipPath1266"><path
         d="m 109.384,166.515 h 10.863 v -9.74 h -10.863 z"
         id="path1264"
         inkscape:connector-curvature="0" /></clipPath><clipPath
       clipPathUnits="userSpaceOnUse"
       id="clipPath1282"><path
         d="m 108.314,173.878 h 7.812 V 163.26 h -7.812 z"
         id="path1280"
         inkscape:connector-curvature="0" /></clipPath><clipPath
       clipPathUnits="userSpaceOnUse"
       id="clipPath1338"><path
         d="M 94.8828,104.947 H 126.895 V 59.1962 H 94.8828 Z"
         id="path1336"
         inkscape:connector-curvature="0" /></clipPath><clipPath
       clipPathUnits="userSpaceOnUse"
       id="clipPath1354"><path
         d="m 121.985,79.6061 h 2.77 V 59.3885 h -2.77 z"
         id="path1352"
         inkscape:connector-curvature="0" /></clipPath><clipPath
       clipPathUnits="userSpaceOnUse"
       id="clipPath1370"><path
         d="m 118.418,77.6661 h 3.09 V 59.965 h -3.09 z"
         id="path1368"
         inkscape:connector-curvature="0" /></clipPath><clipPath
       clipPathUnits="userSpaceOnUse"
       id="clipPath1386"><path
         d="m 114.03,76.7484 h 2.708 v -14.306 h -2.708 z"
         id="path1384"
         inkscape:connector-curvature="0" /></clipPath><clipPath
       clipPathUnits="userSpaceOnUse"
       id="clipPath1498"><path
         d="M 377.806,434.349 H 429.58 V 357.063 H 377.806 Z"
         id="path1496"
         inkscape:connector-curvature="0" /></clipPath><clipPath
       clipPathUnits="userSpaceOnUse"
       id="clipPath1518"><path
         d="m 421.834,399.315 h 7.927 v -5.683 h -7.927 z"
         id="path1516"
         inkscape:connector-curvature="0" /></clipPath><clipPath
       clipPathUnits="userSpaceOnUse"
       id="clipPath1534"><path
         d="m 421.686,398.372 h 5.353 v -8.856 h -5.353 z"
         id="path1532"
         inkscape:connector-curvature="0" /></clipPath><clipPath
       clipPathUnits="userSpaceOnUse"
       id="clipPath1558"><path
         d="m 384.9,407.24 h 10.025 V 389.099 H 384.9 Z"
         id="path1556"
         inkscape:connector-curvature="0" /></clipPath><clipPath
       clipPathUnits="userSpaceOnUse"
       id="clipPath1574"><path
         d="m 380.78,390.836 h 23.535 V 378.765 H 380.78 Z"
         id="path1572"
         inkscape:connector-curvature="0" /></clipPath><clipPath
       clipPathUnits="userSpaceOnUse"
       id="clipPath1590"><path
         d="m 381.511,389.852 h 20.834 v -7.655 h -20.834 z"
         id="path1588"
         inkscape:connector-curvature="0" /></clipPath><clipPath
       clipPathUnits="userSpaceOnUse"
       id="clipPath1650"><path
         d="m 397.176,353.462 h 26.649 v -54.736 h -26.649 z"
         id="path1648"
         inkscape:connector-curvature="0" /></clipPath><clipPath
       clipPathUnits="userSpaceOnUse"
       id="clipPath1666"><path
         d="m 422.496,342.935 h 6.027 v -70.599 h -6.027 z"
         id="path1664"
         inkscape:connector-curvature="0" /></clipPath><clipPath
       clipPathUnits="userSpaceOnUse"
       id="clipPath1694"><path
         d="m 318.865,434.26 h 51.91 v -74.494 h -51.91 z"
         id="path1692"
         inkscape:connector-curvature="0" /></clipPath><clipPath
       clipPathUnits="userSpaceOnUse"
       id="clipPath1714"><path
         d="m 321.863,398.737 h 7.061 v -6.609 h -7.061 z"
         id="path1712"
         inkscape:connector-curvature="0" /></clipPath><clipPath
       clipPathUnits="userSpaceOnUse"
       id="clipPath1730"><path
         d="m 361.51,407.261 h 4.917 v -11.944 h -4.917 z"
         id="path1728"
         inkscape:connector-curvature="0" /></clipPath><clipPath
       clipPathUnits="userSpaceOnUse"
       id="clipPath1746"><path
         d="m 352.704,391.83 h 15.832 v -6.244 h -15.832 z"
         id="path1744"
         inkscape:connector-curvature="0" /></clipPath><clipPath
       clipPathUnits="userSpaceOnUse"
       id="clipPath18-3"><path
         d="M 0,500 H 750 V 0 H 0 Z"
         id="path16-6"
         inkscape:connector-curvature="0" /></clipPath><clipPath
       clipPathUnits="userSpaceOnUse"
       id="clipPath42"><path
         d="m 178.647,247.43 c -13.964,-1.06 -29.332,-1.445 -42.398,-7.387 v 0 c -10.004,-4.55 -17.992,-14.018 -21.657,-25.47 v 0 c -3.385,-10.584 -2.871,-22.245 0.888,-32.724 v 0 c 3.607,-10.056 10.83,-19.874 9.368,-31.296 v 0 c -1.159,-9.079 -7.746,-15.839 -11.11,-24.152 v 0 c -7.946,-19.631 2.542,-39.627 16.945,-51.21 v 0 c 2.352,-1.893 4.809,-3.563 7.309,-4.968 v 0 c 19.8,-11.138 43.316,-12.159 64.859,-13.733 v 0 c 22.343,-1.631 45.236,-1.557 67.144,1.354 v 0 c 13.891,1.847 27.909,4.827 40.192,12.231 v 0 c 2.344,1.414 4.684,3.084 6.635,5.116 v 0 c 1.899,1.977 3.443,4.292 4.269,7.064 v 0 c 2.712,9.052 -3.033,18.416 -8.205,26.123 v 0 c -5.177,7.708 -10.333,17.824 -6.527,26.345 v 0 c 4.365,9.783 11.548,23.234 14.281,33.77 v 0 c 2.734,10.535 3.012,22.347 -1.319,32.304 v 0 c -4.286,9.861 -12.507,16.799 -20.912,22.347 v 0 c -23.792,15.701 -51.101,22.638 -78.228,24.597 v 0 c -5.965,0.431 -11.936,0.627 -17.906,0.627 v 0 c -7.887,0 -15.77,-0.342 -23.628,-0.938"
         id="path40"
         inkscape:connector-curvature="0" /></clipPath><clipPath
       clipPathUnits="userSpaceOnUse"
       id="clipPath652"><path
         d="m 166.23,230.704 h 13.226 v -13.21 H 166.23 Z"
         id="path650"
         inkscape:connector-curvature="0" /></clipPath><clipPath
       clipPathUnits="userSpaceOnUse"
       id="clipPath868"><path
         d="m 216.884,182.543 h 23.373 v -3.361 h -23.373 z"
         id="path866"
         inkscape:connector-curvature="0" /></clipPath><clipPath
       clipPathUnits="userSpaceOnUse"
       id="clipPath972"><path
         d="m 249.872,227.045 h 13.226 v -13.21 h -13.226 z"
         id="path970"
         inkscape:connector-curvature="0" /></clipPath><clipPath
       clipPathUnits="userSpaceOnUse"
       id="clipPath996"><path
         d="m 205.737,234.977 h 13.225 v -13.21 h -13.225 z"
         id="path994"
         inkscape:connector-curvature="0" /></clipPath><clipPath
       clipPathUnits="userSpaceOnUse"
       id="clipPath20"><path
         d="M 0,500 H 750 V 0 H 0 Z"
         id="path18"
         inkscape:connector-curvature="0" /></clipPath><clipPath
       clipPathUnits="userSpaceOnUse"
       id="clipPath28"><path
         d="m 611.425,347.391 h 26.562 V 197.827 h -26.562 z"
         id="path26"
         inkscape:connector-curvature="0" /></clipPath><clipPath
       clipPathUnits="userSpaceOnUse"
       id="clipPath48"><path
         d="m 454.572,382.721 h 31.854 V 203.357 h -31.854 z"
         id="path46"
         inkscape:connector-curvature="0" /></clipPath><clipPath
       clipPathUnits="userSpaceOnUse"
       id="clipPath68"><path
         d="m 318.039,313.052 h 31.855 V 133.687 h -31.855 z"
         id="path66"
         inkscape:connector-curvature="0" /></clipPath><clipPath
       clipPathUnits="userSpaceOnUse"
       id="clipPath88"><path
         d="M 106.406,326.193 H 154.77 V 150.361 h -48.364 z"
         id="path86"
         inkscape:connector-curvature="0" /></clipPath><clipPath
       clipPathUnits="userSpaceOnUse"
       id="clipPath252"><path
         d="m 434.615,86.673 c -0.253,-0.472 -3.646,-10.19 -4.117,-9.937 v 0 c -0.301,0.162 -2.59,-1.08 -4.209,-2.001 v 0 c -0.931,-0.53 -1.311,-1.674 -0.879,-2.653 v 0 c 1.851,-4.2 6.684,-14.786 9.032,-16.288 v 0 c 2.937,-1.88 10.805,-3.065 10.73,-1.507 v 0 c -0.074,1.558 -5.842,4.956 -5.842,4.956 v 0 l -4.118,14.963 6.038,10.12 -6.273,2.456 z"
         id="path250"
         inkscape:connector-curvature="0" /></clipPath><clipPath
       clipPathUnits="userSpaceOnUse"
       id="clipPath268"><path
         d="M 0,500 H 750 V 0 H 0 Z"
         id="path266"
         inkscape:connector-curvature="0" /></clipPath><clipPath
       clipPathUnits="userSpaceOnUse"
       id="clipPath280"><path
         d="m 498.038,95.53 c 0,0 7.856,-7.533 8.135,-7.783 v 0 c 0.279,-0.25 -6.282,-16.019 -5.944,-17.328 v 0 c 0.338,-1.309 16.844,17.137 16.256,18.165 v 0 c -0.589,1.031 -5.222,3.164 -5.222,3.164 v 0 c 0,0 -7.943,9.12 -7.972,9.65 v 0 z"
         id="path278"
         inkscape:connector-curvature="0" /></clipPath><clipPath
       clipPathUnits="userSpaceOnUse"
       id="clipPath296"><path
         d="M 0,500 H 750 V 0 H 0 Z"
         id="path294"
         inkscape:connector-curvature="0" /></clipPath><clipPath
       clipPathUnits="userSpaceOnUse"
       id="clipPath320"><path
         d="m 452.601,231.825 c -7.569,0.883 -6.352,-75.564 -6.352,-75.564 v 0 L 429.107,84.39 443.241,80.782 c 0,0 8.322,24.487 17.661,51.335 v 0 c 9.998,-11.702 36.167,-40.209 36.167,-40.209 v 0 l 9.923,9.923 -39.117,50.216 c 6.504,18.462 12.633,35.445 15.962,43.607 v 0 c 9.322,22.854 -3.007,36.988 -3.007,36.988 v 0 c 0,0 -22.093,-1.533 -28.229,-0.817"
         id="path318"
         inkscape:connector-curvature="0" /></clipPath><clipPath
       clipPathUnits="userSpaceOnUse"
       id="clipPath328"><path
         d="m 460.902,152.161 h 54.227 V 88.25 h -54.227 z"
         id="path326"
         inkscape:connector-curvature="0" /></clipPath><clipPath
       clipPathUnits="userSpaceOnUse"
       id="clipPath344"><path
         d="m 436.734,212.654 h 24.395 v -70.063 h -24.395 z"
         id="path342"
         inkscape:connector-curvature="0" /></clipPath><clipPath
       clipPathUnits="userSpaceOnUse"
       id="clipPath360"><path
         d="M 0,500 H 750 V 0 H 0 Z"
         id="path358"
         inkscape:connector-curvature="0" /></clipPath><clipPath
       clipPathUnits="userSpaceOnUse"
       id="clipPath372"><path
         d="m 435.32,354.251 c -6.128,-2.937 -7.457,-12.907 -2.97,-22.269 v 0 c 4.487,-9.361 13.093,-14.569 19.22,-11.632 v 0 c 6.128,2.938 7.458,12.908 2.97,22.269 v 0 c -3.639,7.592 -9.986,12.452 -15.523,12.451 v 0 c -1.291,0 -2.538,-0.264 -3.697,-0.819"
         id="path370"
         inkscape:connector-curvature="0" /></clipPath><clipPath
       clipPathUnits="userSpaceOnUse"
       id="clipPath384"><path
         d="M 0,500 H 750 V 0 H 0 Z"
         id="path382"
         inkscape:connector-curvature="0" /></clipPath><clipPath
       clipPathUnits="userSpaceOnUse"
       id="clipPath480"><path
         d="m 348.147,79.424 c 0,0 10.714,-6.632 11.092,-6.848 v 0 c 0.377,-0.215 -3.244,-19.659 -2.545,-21.06 v 0 c 0.7,-1.4 14.936,23.477 14.021,24.501 v 0 c -0.916,1.024 -6.679,2.32 -6.679,2.32 v 0 c 0,0 -11.198,8.41 -11.359,9.003 v 0 z"
         id="path478"
         inkscape:connector-curvature="0" /></clipPath><clipPath
       clipPathUnits="userSpaceOnUse"
       id="clipPath496"><path
         d="M 0,500 H 750 V 0 H 0 Z"
         id="path494"
         inkscape:connector-curvature="0" /></clipPath><clipPath
       clipPathUnits="userSpaceOnUse"
       id="clipPath508"><path
         d="m 272.282,63.31 c 0,0 7.89,-9.827 8.172,-10.156 v 0 c 0.285,-0.329 -9.615,-17.45 -9.424,-19.005 v 0 c 0.193,-1.554 21.912,17.149 21.391,18.42 v 0 c -0.521,1.271 -5.522,4.415 -5.522,4.415 v 0 c 0,0 -7.751,11.664 -7.706,12.276 v 0 z"
         id="path506"
         inkscape:connector-curvature="0" /></clipPath><clipPath
       clipPathUnits="userSpaceOnUse"
       id="clipPath524"><path
         d="M 0,500 H 750 V 0 H 0 Z"
         id="path522"
         inkscape:connector-curvature="0" /></clipPath><clipPath
       clipPathUnits="userSpaceOnUse"
       id="clipPath648"><path
         d="M 602.043,187.619 C 593.099,170.851 589.586,131.56 589.586,131.56 v 0 l 27.79,-59.574 c -0.479,-6.867 -6.867,-12.138 -7.827,-13.256 v 0 c -0.957,-1.118 6.55,-1.756 7.028,2.556 v 0 c 0.485,4.367 4.312,3.992 5.111,5.749 v 0 c 0.799,1.757 -1.916,5.43 -1.916,5.43 v 0 c -2.556,53.665 -19.166,59.095 -19.166,59.095 v 0 c 0,0 18.207,21.401 29.707,44.72 v 0 c 11.499,23.319 -15.014,40.569 -15.014,40.569 v 0 c 0,0 -4.312,-12.459 -13.256,-29.23"
         id="path646"
         inkscape:connector-curvature="0" /></clipPath><clipPath
       clipPathUnits="userSpaceOnUse"
       id="clipPath660"><path
         d="M 0,500 H 750 V 0 H 0 Z"
         id="path658"
         inkscape:connector-curvature="0" /></clipPath><clipPath
       clipPathUnits="userSpaceOnUse"
       id="clipPath672"><path
         d="m 578.299,205.684 c -18.025,-6.027 -47.591,-32.141 -47.591,-32.141 v 0 l -20.782,-62.366 c -5.07,-4.657 -13.333,-4.091 -14.796,-4.243 v 0 c -1.466,-0.154 3.546,-5.779 6.858,-2.978 v 0 c 2.056,1.739 3.799,1.322 5.252,0.907 v 0 c 0.918,-0.264 1.721,-0.527 2.414,-0.245 v 0 c 1.787,0.726 2.342,5.26 2.342,5.26 v 0 c 35.042,40.724 26.714,56.087 26.714,56.087 v 0 c 0,0 27.936,3.022 52.319,12.048 v 0 c 24.384,9.025 16.992,39.78 16.992,39.78 v 0 c 0,0 -11.697,-6.081 -29.722,-12.109"
         id="path670"
         inkscape:connector-curvature="0" /></clipPath><clipPath
       clipPathUnits="userSpaceOnUse"
       id="clipPath684"><path
         d="M 0,500 H 750 V 0 H 0 Z"
         id="path682"
         inkscape:connector-curvature="0" /></clipPath><clipPath
       clipPathUnits="userSpaceOnUse"
       id="clipPath708"><path
         d="m 599.008,265.002 c -4.312,-4.552 -3.114,-16.051 5.271,-13.416 v 0 l 7.187,-28.509 12.458,-3.354 c 0,0 -2.555,19.964 19.645,42.644 v 0 l -0.239,10.541 -35.217,11.26 c 0,0 -5.174,-15.018 -9.105,-19.166"
         id="path706"
         inkscape:connector-curvature="0" /></clipPath><clipPath
       clipPathUnits="userSpaceOnUse"
       id="clipPath740"><path
         d="M 0,500 H 750 V 0 H 0 Z"
         id="path738"
         inkscape:connector-curvature="0" /></clipPath></defs><sodipodi:namedview
     pagecolor="#ffffff"
     bordercolor="#666666"
     borderopacity="1"
     objecttolerance="10"
     gridtolerance="10"
     guidetolerance="10"
     inkscape:pageopacity="0"
     inkscape:pageshadow="2"
     inkscape:window-width="1366"
     inkscape:window-height="703"
     id="namedview4"
     showgrid="false"
     inkscape:zoom="0.50063159"
     inkscape:cx="227.62055"
     inkscape:cy="274.95494"
     inkscape:window-x="0"
     inkscape:window-y="0"
     inkscape:window-maximized="1"
     inkscape:current-layer="g10" /><g
     id="g10"
     inkscape:groupmode="layer"
     inkscape:label="3545968"
     transform="matrix(1.3333333,0,0,-1.3333333,0,666.66667)"><g
       id="g3203"
       transform="matrix(1.0351637,0,0,1.0351637,-25.181698,8.0022424)"><g
         transform="translate(-187.73655,-13.299003)"
         id="g22"><g
           id="g24" /><g
           id="g36"><g
             style="opacity:0.55000299"
             id="g34"
             clip-path="url(#clipPath28)"><g
               id="g32"
               transform="translate(632.7535,197.8268)"><path
                 inkscape:connector-curvature="0"
                 id="path30"
                 style="fill:#3a3a3a;fill-opacity:1;fill-rule:nonzero;stroke:none"
                 d="m 0,0 -0.531,0.598 c 0.152,0.135 14.887,13.897 -7.489,46.95 -12.631,18.659 -14.064,36.374 -13.042,47.951 1.264,14.321 6.614,25.48 11.199,31.147 9,11.124 4.789,22.519 4.746,22.632 l 0.746,0.286 c 0.046,-0.118 4.416,-11.943 -4.87,-23.421 -7.207,-8.907 -22.328,-42.382 1.884,-78.147 C -0.799,38.309 6.669,24.08 4.995,11.316 3.985,3.611 0.163,0.144 0,0" /></g></g></g></g><g
         transform="translate(440.27285,333.9492)"
         id="g38"><path
           inkscape:connector-curvature="0"
           id="path40-3"
           style="fill:#fdc14c;fill-opacity:1;fill-rule:nonzero;stroke:none"
           d="M 0,0 C 0,0 -5.232,-3.77 -1.967,-4.229 1.299,-4.688 5.611,-7.451 5.36,-5.064 L 4.772,0.503 c 0,0 20.217,14.199 20.88,38.396 C 26.315,63.098 1.653,75.776 -11.109,51.909 -23.871,28.043 0,0 0,0" /></g><g
         transform="translate(-187.73655,-13.299003)"
         id="g42"><g
           id="g44" /><g
           id="g56"><g
             style="opacity:0.55000299"
             id="g54"
             clip-path="url(#clipPath48)"><g
               id="g52"
               transform="translate(480.15,203.3571)"><path
                 inkscape:connector-curvature="0"
                 id="path50"
                 style="fill:#3a3a3a;fill-opacity:1;fill-rule:nonzero;stroke:none"
                 d="m 0,0 -0.637,0.717 c 0.182,0.162 17.854,16.666 -8.981,56.304 -15.148,22.377 -16.866,43.622 -15.642,57.505 1.517,17.175 7.933,30.557 13.432,37.353 10.793,13.34 5.743,27.006 5.69,27.142 l 0.896,0.343 c 0.055,-0.141 5.296,-14.323 -5.841,-28.088 -8.643,-10.682 -26.776,-50.826 2.26,-93.717 C -0.958,45.94 7.998,28.877 5.99,13.571 4.778,4.33 0.195,0.172 0,0" /></g></g></g></g><g
         transform="translate(286.72405,369.2505)"
         id="g58"><path
           inkscape:connector-curvature="0"
           id="path60"
           style="fill:#5d344f;fill-opacity:1;fill-rule:nonzero;stroke:none"
           d="m 0,0 c 0,0 -6.274,-4.52 -2.358,-5.071 3.916,-0.552 9.087,-3.864 8.786,-1.002 -0.302,2.862 -0.705,6.677 -0.705,6.677 0,0 24.245,17.027 25.041,46.047 C 31.559,75.67 1.982,90.875 -13.322,62.252 -28.628,33.631 0,0 0,0" /></g><g
         transform="translate(-187.73655,-13.299003)"
         id="g62"><g
           id="g64" /><g
           id="g76"><g
             style="opacity:0.55000299"
             id="g74"
             clip-path="url(#clipPath68)"><g
               id="g72"
               transform="translate(324.3156,133.6872)"><path
                 inkscape:connector-curvature="0"
                 id="path70"
                 style="fill:#3a3a3a;fill-opacity:1;fill-rule:nonzero;stroke:none"
                 d="m 0,0 0.637,0.717 c -0.182,0.163 -17.854,16.667 8.981,56.304 15.148,22.377 16.867,43.623 15.641,57.505 -1.516,17.176 -7.932,30.557 -13.43,37.353 -10.793,13.341 -5.744,27.006 -5.691,27.142 l -0.896,0.344 C 5.187,179.223 -0.054,165.042 11.083,151.276 19.725,140.595 37.859,100.45 8.823,57.56 0.958,45.94 -7.998,28.878 -5.991,13.571 -4.779,4.331 -0.195,0.172 0,0" /></g></g></g></g><g
         transform="translate(142.26895,299.5816)"
         id="g78"><path
           inkscape:connector-curvature="0"
           id="path80"
           style="fill:#fc5673;fill-opacity:1;fill-rule:nonzero;stroke:none"
           d="m 0,0 c 0,0 6.274,-4.521 2.358,-5.072 -3.916,-0.551 -9.088,-3.863 -8.786,-1.001 0.302,2.861 0.704,6.677 0.704,6.677 0,0 -24.244,17.027 -25.04,46.046 -0.795,29.02 28.781,44.225 44.086,15.602 C 28.627,33.63 0,0 0,0" /></g><g
         transform="translate(51.26405,371.3496)"
         id="g102"><path
           inkscape:connector-curvature="0"
           id="path104-6"
           style="fill:#2d6c8c;fill-opacity:1;fill-rule:nonzero;stroke:none"
           d="m 0,0 c 4.299,-1.131 8.598,-2.262 12.897,-3.393 1.869,-0.491 2.666,2.402 0.797,2.893 L 0.798,2.893 C -1.071,3.385 -1.868,0.492 0,0" /></g><g
         transform="translate(199.03355,350.1685)"
         id="g106"><path
           inkscape:connector-curvature="0"
           id="path108"
           style="fill:#2d6c8c;fill-opacity:1;fill-rule:nonzero;stroke:none"
           d="m 0,0 c 4.784,1.773 8.732,4.714 11.837,8.756 1.176,1.531 -1.429,3.026 -2.59,1.515 C 6.661,6.904 3.177,4.366 -0.798,2.893 -2.593,2.228 -1.816,-0.673 0,0" /></g><g
         transform="translate(204.51305,169.5308)"
         id="g110"><path
           inkscape:connector-curvature="0"
           id="path112"
           style="fill:#2d6c8c;fill-opacity:1;fill-rule:nonzero;stroke:none"
           d="m 0,0 c 2.886,-2.542 6.286,-3.991 10.113,-4.349 1.921,-0.179 1.909,2.822 0,3 -2.99,0.28 -5.741,1.488 -7.992,3.47 C 0.678,3.394 -1.452,1.279 0,0" /></g><g
         transform="translate(27.88515,151.3892)"
         id="g114"><path
           inkscape:connector-curvature="0"
           id="path116"
           style="fill:#2d6c8c;fill-opacity:1;fill-rule:nonzero;stroke:none"
           d="M 0,0 C 2.278,-1.112 4.557,-2.225 6.835,-3.337 8.564,-4.181 10.086,-1.594 8.35,-0.746 6.071,0.366 3.792,1.479 1.514,2.59 -0.214,3.434 -1.737,0.848 0,0" /></g><g
         transform="translate(377.85095,212.94)"
         id="g118"><path
           inkscape:connector-curvature="0"
           id="path120"
           style="fill:#2d6c8c;fill-opacity:1;fill-rule:nonzero;stroke:none"
           d="M 0,0 C 1.001,1.332 2.001,2.665 3.002,3.998 3.489,4.646 3.106,5.675 2.464,6.051 1.697,6.499 0.899,6.162 0.412,5.513 -0.589,4.18 -1.59,2.847 -2.59,1.514 -3.077,0.865 -2.694,-0.163 -2.052,-0.538 -1.285,-0.987 -0.487,-0.65 0,0" /></g><g
         transform="translate(393.67815,369.6807)"
         id="g122"><path
           inkscape:connector-curvature="0"
           id="path124"
           style="fill:#2d6c8c;fill-opacity:1;fill-rule:nonzero;stroke:none"
           d="M 0,0 C 1.362,-1.642 2.726,-3.284 4.089,-4.926 5.323,-6.413 7.435,-4.281 6.21,-2.805 4.847,-1.163 3.484,0.479 2.121,2.122 0.887,3.608 -1.226,1.476 0,0" /></g><g
         transform="translate(180.86655,276.3506)"
         id="g126"><path
           inkscape:connector-curvature="0"
           id="path128"
           style="fill:#2d6c8c;fill-opacity:1;fill-rule:nonzero;stroke:none"
           d="m 0,0 c 1.333,-1 2.667,-2 4,-3 0.648,-0.486 1.676,-0.104 2.052,0.539 0.448,0.766 0.112,1.564 -0.538,2.052 -1.333,1 -2.667,2 -4,3 C 0.865,3.077 -0.163,2.695 -0.539,2.052 -0.987,1.286 -0.65,0.488 0,0" /></g><g
         transform="translate(315.86655,224.3511)"
         id="g130"><path
           inkscape:connector-curvature="0"
           id="path132"
           style="fill:#2d6c8c;fill-opacity:1;fill-rule:nonzero;stroke:none"
           d="m 0,0 c 1,-0.667 2,-1.334 3,-2 0.674,-0.45 1.66,-0.132 2.052,0.538 0.43,0.735 0.137,1.602 -0.538,2.052 -1,0.667 -2,1.334 -3,2 C 0.84,3.04 -0.146,2.722 -0.538,2.052 -0.969,1.316 -0.676,0.45 0,0" /></g><g
         transform="translate(183.62245,131.1255)"
         id="g150"><path
           inkscape:connector-curvature="0"
           id="path152"
           style="fill:#fc5673;fill-opacity:1;fill-rule:nonzero;stroke:none"
           d="M 0,0 C 2.192,-0.069 4.345,0.299 6.378,1.126 8.143,1.844 7.371,4.747 5.58,4.019 3.772,3.283 1.951,2.938 0,3 -1.931,3.062 -1.929,0.062 0,0" /></g><g
         transform="translate(53.32805,339.8892)"
         id="g158"><path
           inkscape:connector-curvature="0"
           id="path160"
           style="fill:#fc5673;fill-opacity:1;fill-rule:nonzero;stroke:none"
           d="m 0,0 c 0.333,-0.667 0.667,-1.333 1,-2 0.362,-0.725 1.386,-0.928 2.052,-0.539 0.738,0.432 0.902,1.326 0.539,2.053 -0.334,0.667 -0.667,1.333 -1,2 C 2.229,2.238 1.205,2.442 0.539,2.052 -0.199,1.621 -0.363,0.727 0,0" /></g><g
         transform="translate(336.38025,188.3511)"
         id="g162"><path
           inkscape:connector-curvature="0"
           id="path164"
           style="fill:#fc5673;fill-opacity:1;fill-rule:nonzero;stroke:none"
           d="m 0,0 c 2.334,1 4.667,2 7,3 1.77,0.758 0.243,3.343 -1.514,2.59 -2.334,-1 -4.667,-2 -7,-3 C -3.283,1.832 -1.757,-0.753 0,0" /></g><g
         transform="translate(230.40765,354.4229)"
         id="g166"><path
           inkscape:connector-curvature="0"
           id="path168"
           style="fill:#fc5673;fill-opacity:1;fill-rule:nonzero;stroke:none"
           d="m 0,0 c 1.022,-0.977 2.044,-1.954 3.066,-2.93 1.397,-1.334 3.521,0.784 2.122,2.121 L 2.121,2.121 C 0.725,3.455 -1.399,1.337 0,0" /></g><g
         transform="translate(392.12345,335.646)"
         id="g170"><path
           inkscape:connector-curvature="0"
           id="path172-5"
           style="fill:#fc5673;fill-opacity:1;fill-rule:nonzero;stroke:none"
           d="m 0,0 v -6 c 0,-1.93 3,-1.934 3,0 V 0 C 3,1.93 0,1.934 0,0" /></g><g
         transform="translate(356.17715,231.2476)"
         id="g174"><path
           inkscape:connector-curvature="0"
           id="path176"
           style="fill:#fc5673;fill-opacity:1;fill-rule:nonzero;stroke:none"
           d="m 0,0 c 0.333,-1 0.667,-2 1,-3 0.256,-0.769 1.034,-1.271 1.845,-1.048 0.751,0.206 1.305,1.073 1.048,1.845 -0.333,1 -0.667,2 -1,3 C 2.637,1.565 1.858,2.067 1.048,1.845 0.297,1.639 -0.258,0.771 0,0" /></g><g
         transform="translate(473.89105,114.3892)"
         id="g178"><path
           inkscape:connector-curvature="0"
           id="path180"
           style="fill:#fc5673;fill-opacity:1;fill-rule:nonzero;stroke:none"
           d="M 0,0 C 1.004,-0.662 2.007,-1.323 3.011,-1.984 3.688,-2.431 4.67,-2.119 5.062,-1.446 5.491,-0.714 5.203,0.158 4.524,0.605 3.521,1.268 2.518,1.929 1.515,2.59 0.838,3.036 -0.145,2.725 -0.538,2.052 -0.966,1.319 -0.678,0.446 0,0" /></g><g
         transform="translate(494.38025,213.3511)"
         id="g182"><path
           inkscape:connector-curvature="0"
           id="path184"
           style="fill:#fc5673;fill-opacity:1;fill-rule:nonzero;stroke:none"
           d="M 0,0 C 0.667,0.333 1.334,0.666 2,1 2.725,1.362 2.929,2.386 2.538,3.052 2.107,3.79 1.213,3.954 0.486,3.59 -0.181,3.257 -0.848,2.924 -1.514,2.59 -2.238,2.228 -2.442,1.204 -2.052,0.538 -1.621,-0.2 -0.727,-0.364 0,0" /></g><g
         transform="translate(60.77095,291.1831)"
         id="g186"><path
           inkscape:connector-curvature="0"
           id="path188-3"
           style="fill:#fdc14c;fill-opacity:1;fill-rule:nonzero;stroke:none"
           d="m 0,0 c 3.611,-2.086 6.97,-4.499 10.083,-7.275 1.437,-1.281 3.566,0.833 2.122,2.121 C 8.905,-2.211 5.343,0.379 1.514,2.59 -0.161,3.558 -1.673,0.966 0,0" /></g><g
         transform="translate(120.91685,405.4185)"
         id="g190"><path
           inkscape:connector-curvature="0"
           id="path192"
           style="fill:#fdc14c;fill-opacity:1;fill-rule:nonzero;stroke:none"
           d="M 0,0 C 1.333,-1.001 2.666,-2.001 3.999,-3.002 4.647,-3.489 5.675,-3.106 6.051,-2.464 6.5,-1.697 6.163,-0.899 5.513,-0.412 4.18,0.589 2.847,1.589 1.514,2.59 0.866,3.077 -0.162,2.694 -0.538,2.052 -0.987,1.285 -0.65,0.488 0,0" /></g><g
         transform="translate(183.17715,195.2476)"
         id="g202"><path
           inkscape:connector-curvature="0"
           id="path204"
           style="fill:#fdc14c;fill-opacity:1;fill-rule:nonzero;stroke:none"
           d="m 0,0 c 0.333,-1.334 0.667,-2.667 1,-4 0.468,-1.872 3.362,-1.079 2.893,0.797 -0.333,1.334 -0.667,2.667 -1,4 C 2.425,2.669 -0.469,1.876 0,0" /></g><g
         transform="translate(192.56285,120.5855)"
         id="g206"><path
           inkscape:connector-curvature="0"
           id="path208"
           style="fill:#fdc14c;fill-opacity:1;fill-rule:nonzero;stroke:none"
           d="m 0,0 c 2,-1.667 4,-3.333 6,-5 1.473,-1.228 3.606,0.884 2.121,2.121 -2,1.667 -4,3.333 -6,5 C 0.648,3.349 -1.485,1.237 0,0" /></g><g
         transform="translate(334.56285,344.5855)"
         id="g210"><path
           inkscape:connector-curvature="0"
           id="path212"
           style="fill:#fdc14c;fill-opacity:1;fill-rule:nonzero;stroke:none"
           d="m 0,0 c 0.333,-0.333 0.667,-0.667 1,-1 0.572,-0.573 1.549,-0.573 2.121,0 0.575,0.575 0.575,1.546 0,2.121 -0.333,0.334 -0.667,0.667 -1,1 C 1.549,2.694 0.572,2.694 0,2.121 -0.575,1.546 -0.575,0.575 0,0" /></g><g
         transform="translate(235.56285,385.5855)"
         id="g214"><path
           inkscape:connector-curvature="0"
           id="path216"
           style="fill:#fdc14c;fill-opacity:1;fill-rule:nonzero;stroke:none"
           d="m 0,0 c 0.667,-0.667 1.333,-1.333 2,-2 0.572,-0.573 1.549,-0.573 2.121,0 0.575,0.575 0.575,1.546 0,2.121 -0.667,0.667 -1.333,1.334 -2,2 C 1.549,2.694 0.572,2.694 0,2.121 -0.575,1.546 -0.575,0.575 0,0" /></g><g
         transform="translate(315.62345,406.146)"
         id="g218"><path
           inkscape:connector-curvature="0"
           id="path220"
           style="fill:#fdc14c;fill-opacity:1;fill-rule:nonzero;stroke:none"
           d="M 0,0 C 1.931,0 1.934,3 0,3 -1.931,3 -1.934,0 0,0" /></g><g
         transform="translate(380.17715,409.0449)"
         id="g222"><path
           inkscape:connector-curvature="0"
           id="path224"
           style="fill:#fdc14c;fill-opacity:1;fill-rule:nonzero;stroke:none"
           d="m 0,0 c -0.333,-1.667 -0.667,-3.333 -1,-5 -0.377,-1.885 2.514,-2.692 2.893,-0.798 0.333,1.667 0.667,3.334 1,5 C 3.27,1.087 0.379,1.895 0,0" /></g><g
         transform="translate(362.89105,313.3887)"
         id="g226"><path
           inkscape:connector-curvature="0"
           id="path228"
           style="fill:#fdc14c;fill-opacity:1;fill-rule:nonzero;stroke:none"
           d="M 0,0 C 1.004,-0.662 2.007,-1.323 3.011,-1.984 3.688,-2.43 4.67,-2.119 5.062,-1.446 5.491,-0.714 5.203,0.159 4.524,0.606 3.521,1.268 2.518,1.929 1.515,2.59 0.838,3.037 -0.145,2.725 -0.538,2.052 -0.966,1.32 -0.678,0.447 0,0" /></g><g
         transform="translate(301.86655,326.3506)"
         id="g230"><path
           inkscape:connector-curvature="0"
           id="path232"
           style="fill:#fdc14c;fill-opacity:1;fill-rule:nonzero;stroke:none"
           d="m 0,0 4,-2 c 1.722,-0.861 3.243,1.726 1.514,2.591 l -4,2 C -0.208,3.452 -1.729,0.865 0,0" /></g><g
         transform="translate(483.37535,153.3687)"
         id="g234"><path
           inkscape:connector-curvature="0"
           id="path236"
           style="fill:#fdc14c;fill-opacity:1;fill-rule:nonzero;stroke:none"
           d="m 0,0 c -2.686,-3.653 -5.371,-7.306 -8.057,-10.958 -1.145,-1.558 1.457,-3.056 2.59,-1.515 2.686,3.653 5.372,7.306 8.058,10.958 C 3.735,0.042 1.133,1.54 0,0" /></g><g
         transform="translate(391.56285,118.5855)"
         id="g238"><path
           inkscape:connector-curvature="0"
           id="path240-5"
           style="fill:#fdc14c;fill-opacity:1;fill-rule:nonzero;stroke:none"
           d="m 0,0 3,-3 c 1.367,-1.367 3.488,0.754 2.121,2.121 l -3,3 C 0.754,3.488 -1.367,1.367 0,0" /></g><g
         transform="translate(246.87835,73.373497)"
         id="g242"><path
           inkscape:connector-curvature="0"
           id="path244"
           style="fill:#feceac;fill-opacity:1;fill-rule:nonzero;stroke:none"
           d="m 0,0 c -0.253,-0.472 -3.646,-10.189 -4.117,-9.937 -0.301,0.163 -2.59,-1.08 -4.209,-2.001 -0.931,-0.53 -1.311,-1.673 -0.879,-2.653 1.851,-4.2 6.684,-14.786 9.032,-16.288 2.938,-1.88 10.805,-3.064 10.73,-1.507 -0.075,1.559 -5.842,4.957 -5.842,4.957 L 0.598,-12.467 6.636,-2.346 0.362,0.109" /></g><g
         transform="translate(-187.73655,-13.299003)"
         id="g248"
         clip-path="url(#clipPath252)"><g
           id="g254"
           transform="translate(430.5778,83.6765)"><path
             d="M 0,0 C 0,0 7.038,-4.991 9.977,-6.871 12.915,-8.752 20.27,-31.827 20.27,-31.827 l -19.172,-0.645 -11.656,15.061 z"
             style="fill:#f4eae9;fill-opacity:1;fill-rule:nonzero;stroke:none"
             id="path256"
             inkscape:connector-curvature="0" /></g><g
           id="g258"
           transform="translate(426.7711,84.5046)"><path
             d="m 0,0 c -0.178,-2.029 4.324,-7.785 11.978,-12.196 7.653,-4.41 11.667,-22.961 11.667,-22.961 l -22.363,0.765 -9.045,14.267 z"
             style="fill:#563219;fill-opacity:1;fill-rule:nonzero;stroke:none"
             id="path260"
             inkscape:connector-curvature="0" /></g></g><g
         transform="translate(-187.73655,-13.299003)"
         id="g264"
         clip-path="url(#clipPath268)"><g
           id="g270"
           transform="translate(503.2906,101.3981)"><path
             d="m 0,0 c 0.029,-0.529 7.973,-9.65 7.973,-9.65 0,0 4.632,-2.133 5.221,-3.163 0.588,-1.03 -15.918,-19.475 -16.256,-18.166 -0.338,1.309 6.224,17.078 5.944,17.329 -0.279,0.25 -8.134,7.782 -8.134,7.782 z"
             style="fill:#feceac;fill-opacity:1;fill-rule:nonzero;stroke:none"
             id="path272-6"
             inkscape:connector-curvature="0" /></g></g><g
         transform="translate(-187.73655,-13.299003)"
         id="g276"
         clip-path="url(#clipPath280)"><g
           id="g282"
           transform="translate(507.4977,97.3825)"><path
             d="m 0,0 c 0,0 -5.281,-5.34 -7.841,-7.075 -2.559,-1.736 -5.18,-21.535 -5.18,-21.535 l 6.487,-6.812 20.39,25.035 -1.22,7.635 z"
             style="fill:#f4eae9;fill-opacity:1;fill-rule:nonzero;stroke:none"
             id="path284"
             inkscape:connector-curvature="0" /></g><g
           id="g286"
           transform="translate(511.4098,93.8806)"><path
             d="m 0,0 c 0,0 -0.544,-4.545 -8.12,-6.824 -7.576,-2.28 -5.238,-20.477 -5.238,-20.477 L 8.943,-8.003 Z"
             style="fill:#563219;fill-opacity:1;fill-rule:nonzero;stroke:none"
             id="path288-2"
             inkscape:connector-curvature="0" /></g></g><g
         transform="translate(-187.73655,-13.299003)"
         id="g292"
         clip-path="url(#clipPath296)"><g
           id="g298"
           transform="translate(437.5543,309.9577)"><path
             d="m 0,0 c 0,0 -29.344,5.057 -53.655,-11.314 -1.589,-1.071 -2.161,-3.137 -1.403,-4.896 3.23,-7.487 13.241,-18.778 26.912,-26.752 0,0 -3.646,12.531 -13.794,24.136 -0.411,0.469 2.589,-1.578 3.211,-1.63 7.527,-0.619 30.576,0.885 42.175,11.47"
             style="fill:#feceac;fill-opacity:1;fill-rule:nonzero;stroke:none"
             id="path300"
             inkscape:connector-curvature="0" /></g><g
           id="g302"
           transform="translate(478.4088,309.5251)"><path
             d="m 0,0 c 0,0 28.296,11.949 55.642,2.999 2.392,-0.784 3.866,-3.203 3.459,-5.687 -1.421,-8.664 -6.343,-28.304 -22.361,-36.445 0,0 2.051,19.139 13.329,33.836 0,0 -32.809,-12.988 -49.215,-4.444"
             style="fill:#feceac;fill-opacity:1;fill-rule:nonzero;stroke:none"
             id="path304"
             inkscape:connector-curvature="0" /></g><g
           id="g306"
           transform="translate(435.693,309.6569)"><path
             d="m 0,0 c -0.807,-0.264 -1.879,-24.96 4.025,-39.453 5.905,-14.493 13.956,-29.523 12.883,-38.379 0,0 21.251,-5.356 28.23,0.817 0,0 8.002,62.79 -4.344,79.699 C 40.794,2.684 13.955,4.562 0,0"
             style="fill:#feceac;fill-opacity:1;fill-rule:nonzero;stroke:none"
             id="path308"
             inkscape:connector-curvature="0" /></g><g
           id="g310"
           transform="translate(506.9918,101.8317)"><path
             d="m 0,0 -39.117,50.215 c 6.505,18.462 12.634,35.446 15.963,43.607 9.322,22.855 -3.007,36.989 -3.007,36.989 0,0 -22.094,-1.534 -28.23,-0.818 -7.569,0.883 -6.352,-75.564 -6.352,-75.564 l -17.142,-71.87 14.134,-3.609 c 0,0 8.322,24.488 17.661,51.335 9.998,-11.701 36.167,-40.209 36.167,-40.209 z"
             style="fill:#2d6c8c;fill-opacity:1;fill-rule:nonzero;stroke:none"
             id="path312"
             inkscape:connector-curvature="0" /></g></g><g
         transform="translate(-187.73655,-13.299003)"
         id="g316"
         clip-path="url(#clipPath320)"><g
           id="g322"><g
             id="g324" /><g
             id="g336"><g
               clip-path="url(#clipPath328)"
               id="g334"
               style="opacity:0.30999804"><g
                 transform="translate(462.8375,120.3766)"
                 id="g332"><path
                   d="M 0,0 -1.936,11.74 5.037,31.67 15.722,31.784 52.291,-17.089 37.937,-32.127 14.013,-16.405 Z"
                   style="fill:#8d4063;fill-opacity:1;fill-rule:nonzero;stroke:none"
                   id="path330"
                   inkscape:connector-curvature="0" /></g></g></g></g><g
           id="g338"><g
             id="g340" /><g
             id="g352"><g
               clip-path="url(#clipPath344)"
               id="g350"
               style="opacity:0.30999804"><g
                 transform="translate(436.8639,142.5915)"
                 id="g348"><path
                   d="m 0,0 9.385,13.669 14.881,56.394 c 0,0 -13.329,-25.975 -19.482,-11.279 C -1.367,73.48 0,0 0,0"
                   style="fill:#8d4063;fill-opacity:1;fill-rule:nonzero;stroke:none"
                   id="path346"
                   inkscape:connector-curvature="0" /></g></g></g></g></g><g
         transform="translate(-187.73655,-13.299003)"
         id="g356"
         clip-path="url(#clipPath360)"><g
           id="g362"
           transform="translate(454.5397,342.6193)"><path
             d="m 0,0 c 4.488,-9.361 3.158,-19.332 -2.969,-22.269 -6.128,-2.938 -14.733,2.27 -19.22,11.632 -4.488,9.362 -3.159,19.331 2.969,22.269 C -13.093,14.569 -4.487,9.361 0,0"
             style="fill:#feceac;fill-opacity:1;fill-rule:nonzero;stroke:none"
             id="path364"
             inkscape:connector-curvature="0" /></g></g><g
         transform="translate(-187.73655,-13.299003)"
         id="g368"
         clip-path="url(#clipPath372)"><g
           id="g374"
           transform="translate(428.5475,345.488)"><path
             d="m 0,0 c 0.228,0.456 3.075,1.595 7.062,-0.342 3.988,-1.936 4.102,6.38 7.862,5.355 3.759,-1.026 8.43,-4.216 9,-7.747 0.569,-3.532 2.506,-1.253 2.05,2.506 -0.455,3.76 -13.328,13.557 -13.328,13.557 L 2.733,10.937 Z"
             style="fill:#da6354;fill-opacity:1;fill-rule:nonzero;stroke:none"
             id="path376"
             inkscape:connector-curvature="0" /></g></g><g
         transform="translate(-187.73655,-13.299003)"
         id="g380"
         clip-path="url(#clipPath384)"><g
           id="g386"
           transform="translate(457.028,337.0578)"><path
             d="m 0,0 c 2.553,-7.658 7.868,-24.295 15.038,-25.291 12.304,-1.709 -27.684,-4.101 -27.684,-4.101 0,0 10.595,7.177 3.76,16.746 C -15.722,-3.076 0,0 0,0"
             style="fill:#feceac;fill-opacity:1;fill-rule:nonzero;stroke:none"
             id="path388"
             inkscape:connector-curvature="0" /></g><g
           id="g390"
           transform="translate(415.5465,291.5676)"><path
             d="M 0,0 C -0.246,0.021 -0.386,0.035 -0.386,0.035 -0.227,-0.04 -0.103,-0.042 0,0"
             style="fill:#83b3ad;fill-opacity:1;fill-rule:nonzero;stroke:none"
             id="path392"
             inkscape:connector-curvature="0" /></g><g
           id="g394"
           transform="translate(459.4205,340.3898)"><path
             d="m 0,0 c 0,-2.595 -1.147,-4.699 -2.563,-4.699 -1.416,0 -2.564,2.104 -2.564,4.699 0,2.596 1.148,4.7 2.564,4.7 C -1.147,4.7 0,2.596 0,0"
             style="fill:#feceac;fill-opacity:1;fill-rule:nonzero;stroke:none"
             id="path396"
             inkscape:connector-curvature="0" /></g><g
           id="g398"
           transform="translate(433.7623,333.591)"><path
             d="M 0,0 C -0.066,0.538 0.005,1.09 0.191,1.611 0.375,2.13 0.729,2.635 1.252,2.913 1.778,3.182 2.392,3.186 2.912,3.021 3.174,2.943 3.415,2.813 3.653,2.697 3.876,2.544 4.096,2.393 4.299,2.223 4.038,2.285 3.796,2.366 3.556,2.444 3.308,2.494 3.067,2.561 2.829,2.595 2.351,2.659 1.889,2.619 1.504,2.416 1.114,2.221 0.812,1.85 0.573,1.424 0.339,0.993 0.156,0.51 0,0"
             style="fill:#383838;fill-opacity:1;fill-rule:nonzero;stroke:none"
             id="path400-9"
             inkscape:connector-curvature="0" /></g><g
           id="g402"
           transform="translate(441.7203,337.8757)"><path
             d="M 0,0 C -0.067,0.538 0.004,1.09 0.19,1.612 0.375,2.13 0.728,2.635 1.252,2.913 1.778,3.182 2.392,3.187 2.911,3.021 3.173,2.943 3.414,2.813 3.653,2.698 3.876,2.544 4.095,2.393 4.298,2.223 4.038,2.285 3.795,2.366 3.555,2.445 3.308,2.494 3.066,2.561 2.829,2.596 2.351,2.659 1.889,2.619 1.504,2.416 1.113,2.221 0.812,1.85 0.573,1.424 0.339,0.993 0.155,0.511 0,0"
             style="fill:#383838;fill-opacity:1;fill-rule:nonzero;stroke:none"
             id="path404"
             inkscape:connector-curvature="0" /></g><g
           id="g406"
           transform="translate(444.1549,330.5641)"><path
             d="m 0,0 c -0.767,-0.256 -1.591,-0.424 -2.458,-0.232 -0.423,0.089 -0.91,0.364 -1.123,0.862 -0.175,0.455 -0.192,0.861 -0.237,1.276 -0.073,1.64 0.105,3.244 0.514,4.815 C -3.175,5.107 -3.225,3.507 -3.137,1.95 -3.113,1.571 -3.08,1.165 -2.98,0.867 -2.898,0.603 -2.638,0.408 -2.304,0.276 -1.621,0.036 -0.802,-0.001 0,0"
             style="fill:#915036;fill-opacity:1;fill-rule:nonzero;stroke:none"
             id="path408"
             inkscape:connector-curvature="0" /></g><g
           id="g410"
           transform="translate(406.6744,265.6281)"><path
             d="M 0,0 C -0.342,0.228 -1.367,3.987 1.822,6.379 5.012,8.772 8.088,3.417 7.062,2.278 6.037,1.139 6.037,-3.304 4.328,-2.506 2.62,-1.709 0,0 0,0"
             style="fill:#feceac;fill-opacity:1;fill-rule:nonzero;stroke:none"
             id="path412"
             inkscape:connector-curvature="0" /></g><g
           id="g414"
           transform="translate(510.2604,277.2263)"><path
             d="m 0,0 c 0.324,0.251 4.215,0.029 5.47,-3.756 1.255,-3.785 -4.8,-4.999 -5.555,-3.665 -0.754,1.334 -4.967,2.746 -3.667,4.113 C -2.453,-1.941 0,0 0,0"
             style="fill:#feceac;fill-opacity:1;fill-rule:nonzero;stroke:none"
             id="path416-1"
             inkscape:connector-curvature="0" /></g><g
           id="g418"
           transform="translate(443.4449,311.4186)"><path
             d="m 0,0 c 0,0 15.727,-13.978 26.745,1.305 0,0 15.915,7.325 27.545,6.713 0,0 -0.612,-20.812 3.061,-22.648 0,0 -12.243,-1.837 -14.079,-4.286 -1.836,-2.448 -3.672,-55.702 0.612,-68.557 0,0 -19.588,5.509 -28.157,0 -8.57,-5.509 -19.588,0 -19.588,0 0,0 5.508,18.364 -3.061,37.952 -8.57,19.587 -7.346,29.381 -7.346,29.381 l -14.079,-2.448 c 0,0 -1.836,18.976 -3.673,22.036 C -33.855,2.509 -5.319,3.612 0,0"
             style="fill:#d17270;fill-opacity:1;fill-rule:nonzero;stroke:none"
             id="path420"
             inkscape:connector-curvature="0" /></g><g
           id="g422"
           transform="translate(454.5397,342.6193)"><path
             d="m 0,0 c 0,0 7.692,-12.165 7.08,-14.001 -0.612,-1.836 -11.63,-15.915 -15.915,-14.691 -4.285,1.225 -8.569,5.509 -9.182,6.734 -0.612,1.224 -2.011,7.574 -2.011,7.574 0,0 9.764,-0.433 12.622,3.648 C -4.55,-6.655 0,0 0,0"
             style="fill:#da6354;fill-opacity:1;fill-rule:nonzero;stroke:none"
             id="path424"
             inkscape:connector-curvature="0" /></g><g
           id="g426"
           transform="translate(440.8326,326.0026)"><path
             d="M 0,0 C 0,0 6.628,-1.077 8.645,5.299 8.645,5.299 12.472,-9.439 0,0"
             style="fill:#ffffff;fill-opacity:1;fill-rule:nonzero;stroke:none"
             id="path428"
             inkscape:connector-curvature="0" /></g><g
           id="g430"
           transform="translate(223.6788,255.7682)"><path
             d="M 0,0 -1.092,26.757 -0.546,26.78 0.546,0.022 Z"
             style="fill:#38383a;fill-opacity:1;fill-rule:nonzero;stroke:none"
             id="path432-2"
             inkscape:connector-curvature="0" /></g><g
           id="g434"
           transform="translate(220.4479,285.6213)"><path
             d="M 0,0 C -0.5,1.21 -3.504,7.262 -3.504,7.262 L 2.002,0 3.504,9.682 V 0 L 7.008,4.841 5.506,-1.815 15.017,-3.63 H 5.506 l 4.505,-9.077 -7.008,9.077 -0.5,-9.077 -1.002,9.682 -6.507,-9.682 4.506,9.682 -8.51,2.42 z"
             style="fill:#ebc061;fill-opacity:1;fill-rule:nonzero;stroke:none"
             id="path436"
             inkscape:connector-curvature="0" /></g><g
           id="g438"
           transform="translate(383.1002,245.4714)"><path
             d="M 0,0 8.369,25.439 8.888,25.269 0.52,-0.17 Z"
             style="fill:#38383a;fill-opacity:1;fill-rule:nonzero;stroke:none"
             id="path440"
             inkscape:connector-curvature="0" /></g><g
           id="g442"
           transform="translate(390.5533,274.5598)"><path
             d="M 0,0 C -0.044,1.309 -0.733,8.029 -0.733,8.029 L 1.874,-0.703 6.679,7.836 3.28,-1.229 8.261,2.073 4.519,-3.632 12.787,-8.67 3.881,-5.332 4.914,-15.413 1.537,-4.454 l -3.654,-8.323 2.461,9.417 -9.491,-6.782 7.616,7.485 -7.118,5.253 z"
             style="fill:#ebc061;fill-opacity:1;fill-rule:nonzero;stroke:none"
             id="path444"
             inkscape:connector-curvature="0" /></g><g
           id="g446"
           transform="translate(273.0363,319.8249)"><path
             d="m 0,0 c -0.268,-0.448 -5.813,-2.607 -3.474,-8.868 2.34,-6.26 6.459,-7.505 6.459,-7.505 l 2.211,13.877 z"
             style="fill:#38383a;fill-opacity:1;fill-rule:nonzero;stroke:none"
             id="path448"
             inkscape:connector-curvature="0" /></g><g
           id="g450"
           transform="translate(281.4469,283.3117)"><path
             d="m 0,0 c 0,0 -1.773,-8.505 -8.991,-8.629 -0.379,-0.007 -0.772,0.01 -1.181,0.051 -8.209,0.844 12.735,-14.912 12.735,-14.912 l 9.424,1.134 8.129,9.837 -6.217,2.274 c 0,0 -7.316,3.264 -2.776,18.393 C 15.664,23.277 0,0 0,0"
             style="fill:#a56f6f;fill-opacity:1;fill-rule:nonzero;stroke:none"
             id="path452"
             inkscape:connector-curvature="0" /></g><g
           id="g454"
           transform="translate(280.7081,322.3068)"><path
             d="m 0,0 c 0,0 -10.055,-12.424 -9.82,-27.244 0.102,-6.415 4.667,-11.923 10.981,-13.06 0.081,-0.014 0.162,-0.028 0.243,-0.042 8.176,-1.383 15.743,7.099 17.935,15.792 C 21.531,-15.862 16.265,3.787 0,0"
             style="fill:#a56f6f;fill-opacity:1;fill-rule:nonzero;stroke:none"
             id="path456"
             inkscape:connector-curvature="0" /></g><g
           id="g458"
           transform="translate(293.2853,308.945)"><path
             d="m 0,0 c 0,0 -25.957,0.308 -22.501,18.305 3.455,17.997 20.859,-2.734 20.859,-2.734 0,0 0.966,9.758 7.058,6.726 6.092,-3.031 6.035,-19.41 6.035,-19.41 0,0 12.266,-1.856 7.629,-10.637 -4.638,-8.78 -15.478,-16.899 -20.121,-15.947 0,0 0.367,2.215 1.792,5.619 0,0 5.633,3.323 4.463,6.453 -1.17,3.13 -3.043,-0.006 -3.043,-0.006 0,0 -4.393,3.84 -2.171,11.631"
             style="fill:#38383a;fill-opacity:1;fill-rule:nonzero;stroke:none"
             id="path460"
             inkscape:connector-curvature="0" /></g><g
           id="g462"
           transform="translate(249.4498,256.9387)"><path
             d="m 0,0 c 0,0 -8.924,-31.681 -8.924,-36.143 0,-4.462 -12.749,22.31 -12.749,29.323 0,0 -0.638,-1.275 0,3.187 0.637,4.462 -4.463,11.474 -6.375,7.65 -1.912,-3.825 2.55,-12.112 2.55,-12.112 0,0 0,-37.61 16.574,-44.621 16.573,-7.012 19.123,45.896 19.123,45.896 z"
             style="fill:#a56f6f;fill-opacity:1;fill-rule:nonzero;stroke:none"
             id="path464"
             inkscape:connector-curvature="0" /></g><g
           id="g466"
           transform="translate(304.2701,255.218)"><path
             d="m 0,0 c 1.275,-1.275 32.51,-24.223 73.307,-16.574 0,0 3.825,-1.274 7.011,1.912 3.188,3.188 3.826,12.75 1.913,11.475 -1.913,-1.275 -8.924,-5.737 -8.924,-5.737 0,0 -42.709,-3.825 -60.558,17.211 z"
             style="fill:#a56f6f;fill-opacity:1;fill-rule:nonzero;stroke:none"
             id="path468-7"
             inkscape:connector-curvature="0" /></g><g
           id="g470"
           transform="translate(352.6769,87.3395)"><path
             d="m 0,0 c 0.161,-0.593 11.359,-9.003 11.359,-9.003 0,0 5.763,-1.296 6.679,-2.32 0.915,-1.024 -13.322,-25.901 -14.021,-24.5 -0.699,1.401 2.922,20.844 2.545,21.059 -0.377,0.216 -11.092,6.849 -11.092,6.849 z"
             style="fill:#a56f6f;fill-opacity:1;fill-rule:nonzero;stroke:none"
             id="path472"
             inkscape:connector-curvature="0" /></g></g><g
         transform="translate(-187.73655,-13.299003)"
         id="g476"
         clip-path="url(#clipPath480)"><g
           id="g482"
           transform="translate(358.4113,83.8073)"><path
             d="m 0,0 c 0,0 -4.691,-7.322 -7.17,-9.906 -2.48,-2.584 -0.663,-25.64 -0.663,-25.64 l 8.992,-6.145 17.042,33.277 -3.227,8.351 z"
             style="fill:#f4eae9;fill-opacity:1;fill-rule:nonzero;stroke:none"
             id="path484-0"
             inkscape:connector-curvature="0" /></g><g
           id="g486"
           transform="translate(363.6881,80.7878)"><path
             d="m 0,0 c 0,0 0.481,-5.279 -7.547,-9.69 -8.029,-4.413 -0.985,-24.455 -0.985,-24.455 l 20.593,27.243 z"
             style="fill:#563219;fill-opacity:1;fill-rule:nonzero;stroke:none"
             id="path488"
             inkscape:connector-curvature="0" /></g></g><g
         transform="translate(-187.73655,-13.299003)"
         id="g492"
         clip-path="url(#clipPath496)"><g
           id="g498"
           transform="translate(279.193,69.2604)"><path
             d="m 0,0 c -0.045,-0.612 7.707,-12.276 7.707,-12.276 0,0 5,-3.145 5.521,-4.415 0.521,-1.271 -21.198,-19.974 -21.39,-18.42 -0.192,1.554 9.707,18.675 9.424,19.005 -0.283,0.329 -8.172,10.155 -8.172,10.155 z"
             style="fill:#a56f6f;fill-opacity:1;fill-rule:nonzero;stroke:none"
             id="path500"
             inkscape:connector-curvature="0" /></g></g><g
         transform="translate(-187.73655,-13.299003)"
         id="g504"
         clip-path="url(#clipPath508)"><g
           id="g510"
           transform="translate(283.421,64.0182)"><path
             d="m 0,0 c 0,0 -6.865,-5.339 -10.064,-6.947 -3.2,-1.61 -9.177,-23.95 -9.177,-23.95 l 6.426,-8.793 27.167,25.686 -0.256,8.949 z"
             style="fill:#f4eae9;fill-opacity:1;fill-rule:nonzero;stroke:none"
             id="path512"
             inkscape:connector-curvature="0" /></g><g
           id="g514"
           transform="translate(287.3883,59.4108)"><path
             d="m 0,0 c 0,0 -1.307,-5.137 -10.348,-6.618 -9.04,-1.482 -9.085,-22.725 -9.085,-22.725 L 9.068,-10.53 Z"
             style="fill:#563219;fill-opacity:1;fill-rule:nonzero;stroke:none"
             id="path516"
             inkscape:connector-curvature="0" /></g></g><g
         transform="translate(83.38665,146.3013)"
         id="g526"><path
           inkscape:connector-curvature="0"
           id="path528"
           style="fill:#8d4063;fill-opacity:1;fill-rule:nonzero;stroke:none"
           d="m 0,0 c 0,0 -6.794,-7.395 -10.822,-23.507 -4.028,-16.112 20.14,-57.197 21.751,-65.253 0,0 -8.055,-10.473 -14.5,-8.056 -6.445,2.417 -37.864,53.17 -37.864,69.281 0,16.112 20.745,50.728 27.411,68.332 5.101,13.471 23.212,20.142 43.482,-13.551 4.643,-7.718 5.639,-50.753 5.639,-58.808 0,-8.057 45.114,-30.614 49.947,-41.892 L 78.6,-83.121 c 0,0 -55.587,22.557 -62.837,44.308 C 8.513,-17.062 0.805,-12.889 0,0" /></g><g
         transform="translate(136.82365,228.2622)"
         id="g530"><path
           inkscape:connector-curvature="0"
           id="path532"
           style="fill:#ebc061;fill-opacity:1;fill-rule:nonzero;stroke:none"
           d="M 0,0 C 0.063,-0.029 0.094,-0.03 0,0" /></g><g
         transform="translate(137.56975,227.895)"
         id="g534"><path
           inkscape:connector-curvature="0"
           id="path536"
           style="fill:#ebc061;fill-opacity:1;fill-rule:nonzero;stroke:none"
           d="m 0,0 4.462,17.849 c 0,0 -16.599,6.548 -19.821,9.771 -1.382,1.381 -7.947,3.798 -16.012,5.348 -1.737,-3.034 -3.981,-5.174 -10.064,-6.832 -6.522,-1.78 -7.896,6.917 -8.056,8.14 C -54.685,33.877 -62.353,32.714 -65.657,29.96 -77.131,20.398 -78.406,9.562 -78.406,9.562 l 7.461,-7.721 2.738,-42.638 c 0,0 31.466,-13.59 39.521,-9.561 0,0 -1.884,36.256 10.2,58.007 0,0 10.201,-7.033 16.573,-8.287 0.723,-0.141 1.047,-0.23 1.167,-0.269 C -0.921,-0.824 -1.343,-0.513 0,0" /></g><g
         transform="translate(87.44135,289.8257)"
         id="g538"><path
           inkscape:connector-curvature="0"
           id="path540"
           style="fill:#383838;fill-opacity:1;fill-rule:nonzero;stroke:none"
           d="M 0,0 C 0.333,0.456 0.781,0.823 1.295,1.085 1.805,1.348 2.433,1.478 3.029,1.314 3.62,1.143 4.088,0.708 4.364,0.212 4.507,-0.034 4.597,-0.305 4.696,-0.563 4.755,-0.838 4.813,-1.109 4.846,-1.383 4.693,-1.151 4.566,-0.916 4.44,-0.685 4.289,-0.471 4.154,-0.248 3.998,-0.052 3.681,0.337 3.301,0.637 2.865,0.757 2.43,0.888 1.937,0.823 1.451,0.67 0.965,0.511 0.482,0.276 0,0" /></g><g
         transform="translate(97.00335,287.9136)"
         id="g542"><path
           inkscape:connector-curvature="0"
           id="path544"
           style="fill:#383838;fill-opacity:1;fill-rule:nonzero;stroke:none"
           d="M 0,0 C 0.333,0.456 0.781,0.823 1.295,1.085 1.805,1.347 2.433,1.478 3.029,1.314 3.62,1.142 4.087,0.708 4.364,0.211 4.507,-0.034 4.597,-0.306 4.695,-0.563 4.754,-0.838 4.813,-1.11 4.845,-1.384 4.692,-1.151 4.566,-0.917 4.44,-0.685 4.288,-0.471 4.153,-0.248 3.998,-0.053 3.68,0.337 3.301,0.637 2.865,0.757 2.43,0.888 1.936,0.823 1.451,0.67 0.965,0.51 0.482,0.276 0,0" /></g><g
         transform="translate(94.19715,280.4692)"
         id="g546"><path
           inkscape:connector-curvature="0"
           id="path548"
           style="fill:#753838;fill-opacity:1;fill-rule:nonzero;stroke:none"
           d="m 0,0 c -0.837,0.09 -1.69,0.289 -2.427,0.847 -0.362,0.267 -0.703,0.739 -0.689,1.304 0.031,0.506 0.191,0.897 0.329,1.309 0.318,0.797 0.698,1.548 1.131,2.269 0.426,0.725 0.908,1.415 1.445,2.067 C -0.508,7.006 -0.824,6.233 -1.162,5.476 -1.489,4.714 -1.834,3.963 -2.123,3.207 -2.265,2.838 -2.41,2.439 -2.445,2.113 -2.482,1.829 -2.32,1.531 -2.061,1.261 -1.519,0.737 -0.76,0.347 0,0" /></g><g
         transform="translate(87.79775,279.1109)"
         id="g550"><path
           inkscape:connector-curvature="0"
           id="path552"
           style="fill:#ffffff;fill-opacity:1;fill-rule:nonzero;stroke:none"
           d="M 0,0 C 0,0 4.834,-4.459 9.428,-1.973 9.428,-1.973 5.642,-12.641 0,0" /></g><g
         transform="translate(436.09215,291.4976)"
         id="g634"><path
           inkscape:connector-curvature="0"
           id="path636"
           style="fill:#38383a;fill-opacity:1;fill-rule:nonzero;stroke:none"
           d="m 0,0 c 0,0 -2.354,3.923 0,7.061 0,0 -2.354,3.139 2.354,6.277 0,0 3.922,7.846 10.984,3.138 0,0 4.707,6.277 7.846,0 0,0 10.199,0 7.06,-4.707 0,0 7.847,-3.139 4.708,-7.061 0,0 6.277,-3.923 1.569,-7.846 0,0 2.354,-9.415 -3.922,-10.2 0,0 1.569,-6.277 -3.923,-4.707 0,0 -7.062,-7.061 -8.631,-3.139 0,0 -4.707,-3.922 -5.492,0.785 0,0 -7.832,-6.016 -7.054,0.13 C 6.276,-14.123 -3.924,-4.708 0,0" /></g><g
         transform="translate(427.56285,203.5493)"
         id="g638"><path
           inkscape:connector-curvature="0"
           id="path640"
           style="fill:#a56f6f;fill-opacity:1;fill-rule:nonzero;stroke:none"
           d="m 0,0 c 0,0 26.513,-17.249 15.014,-40.568 -11.5,-23.319 -29.707,-44.72 -29.707,-44.72 0,0 16.61,-5.431 19.166,-59.095 0,0 2.714,-3.674 1.916,-5.43 -0.799,-1.757 -4.626,-1.382 -5.111,-5.749 -0.479,-4.313 -7.986,-3.674 -7.028,-2.556 0.959,1.118 7.348,6.389 7.826,13.256 l -27.79,59.574 c 0,0 3.514,39.29 12.458,56.059 C -4.312,-12.458 0,0 0,0" /></g><g
         transform="translate(-187.73655,-13.299003)"
         id="g644"
         clip-path="url(#clipPath648)"><g
           id="g650"
           transform="translate(601.3209,87.569)"><path
             d="m 0,0 c 1.275,0.638 24.224,-0.638 21.036,19.761 -3.187,20.398 0,36.335 0,36.335 l 26.136,33.784 -1.276,26.773 -46.339,3.192 -19.318,-19.128 -8.924,-40.159 4.462,-36.335 12.749,-19.761 z"
             style="fill:#2d6c8c;fill-opacity:1;fill-rule:nonzero;stroke:none"
             id="path652"
             inkscape:connector-curvature="0" /></g></g><g
         transform="translate(-187.73655,-13.299003)"
         id="g656"
         clip-path="url(#clipPath660)"><g
           id="g662"
           transform="translate(608.0211,217.7927)"><path
             d="m 0,0 c 0,0 7.392,-30.755 -16.992,-39.78 -24.383,-9.026 -52.319,-12.047 -52.319,-12.047 0,0 8.328,-15.363 -26.714,-56.087 0,0 -0.555,-4.534 -2.342,-5.261 -1.788,-0.726 -4.31,2.177 -7.665,-0.661 -3.313,-2.802 -8.324,2.823 -6.86,2.977 1.464,0.152 9.727,-0.413 14.797,4.244 l 20.782,62.366 c 0,0 29.566,26.113 47.59,32.141 C -11.697,-6.081 0,0 0,0"
             style="fill:#a56f6f;fill-opacity:1;fill-rule:nonzero;stroke:none"
             id="path664"
             inkscape:connector-curvature="0" /></g></g><g
         transform="translate(-187.73655,-13.299003)"
         id="g668"
         clip-path="url(#clipPath672)"><g
           id="g674"
           transform="translate(513.3531,137.2897)"><path
             d="M 0,0 C 0,0 0.251,-0.435 0.718,-1.14 3.497,-5.338 13.945,-19.11 24.86,-7.649 37.609,5.737 56.733,26.136 56.733,26.136 L 118.565,45.896 101.992,87.968 52.271,89.243 5.1,58.646"
             style="fill:#2d6c8c;fill-opacity:1;fill-rule:nonzero;stroke:none"
             id="path676"
             inkscape:connector-curvature="0" /></g></g><g
         transform="translate(-187.73655,-13.299003)"
         id="g680"
         clip-path="url(#clipPath684)"><g
           id="g686"
           transform="translate(640.8483,260.7668)"><path
             d="m 0,0 c 0,0 22.973,0.873 34.957,9.595 0,0 10.297,17.366 10.297,40.314 h -1.912 c 0,0 -12.749,-19.761 -12.776,-32.227 0,0 -29.285,1.131 -38.496,-4.94 C -17.141,6.671 0,0 0,0"
             style="fill:#a56f6f;fill-opacity:1;fill-rule:nonzero;stroke:none"
             id="path688-6"
             inkscape:connector-curvature="0" /></g><g
           id="g690"
           transform="translate(604.6041,270.3498)"><path
             d="m 0,0 c 0,0 -22.972,0.873 -34.957,9.595 0,0 -34.188,13.257 -38.701,20.754 l -0.449,2.703 c 0,0 34.129,-7.287 43.541,-15.37 0,0 29.286,1.131 38.496,-4.94 C 17.141,6.671 0,0 0,0"
             style="fill:#a56f6f;fill-opacity:1;fill-rule:nonzero;stroke:none"
             id="path692"
             inkscape:connector-curvature="0" /></g><g
           id="g694"
           transform="translate(530.4967,303.402)"><path
             d="m 0,0 -17.111,-14.735 c 0,0 9.282,0.987 11.798,6.317 0,0 1.726,-7.715 2.43,-4.597 0.705,3.118 0.042,4.964 0.042,4.964 0,0 2.077,0.745 3.29,5.347"
             style="fill:#a56f6f;fill-opacity:1;fill-rule:nonzero;stroke:none"
             id="path696"
             inkscape:connector-curvature="0" /></g><g
           id="g698"
           transform="translate(623.9244,219.7233)"><path
             d="m 0,0 c 0,0 -2.556,19.964 19.645,42.644 l -0.24,10.541 -35.217,11.26 c 0,0 -5.173,-15.018 -9.104,-19.166 -4.313,-4.552 -3.114,-16.051 5.27,-13.416 l 7.188,-28.509 z"
             style="fill:#995042;fill-opacity:1;fill-rule:nonzero;stroke:none"
             id="path700"
             inkscape:connector-curvature="0" /></g></g><g
         transform="translate(-187.73655,-13.299003)"
         id="g704"
         clip-path="url(#clipPath708)"><g
           id="g710"
           transform="translate(623.6315,236.1911)"><path
             d="m 0,0 c 0,-1.037 0.912,-1.877 2.036,-1.877 1.125,0 2.037,0.84 2.037,1.877 0,1.036 -0.912,1.876 -2.037,1.876 C 0.912,1.876 0,1.036 0,0"
             style="fill:#995042;fill-opacity:1;fill-rule:nonzero;stroke:none"
             id="path712"
             inkscape:connector-curvature="0" /></g><g
           id="g714"
           transform="translate(620.9967,238.4665)"><path
             d="m 0,0 c 0,-1.036 0.911,-1.876 2.036,-1.876 1.124,0 2.036,0.84 2.036,1.876 0,1.037 -0.912,1.877 -2.036,1.877 C 0.911,1.877 0,1.037 0,0"
             style="fill:#995042;fill-opacity:1;fill-rule:nonzero;stroke:none"
             id="path716"
             inkscape:connector-curvature="0" /></g><g
           id="g718"
           transform="translate(617.6422,239.6647)"><path
             d="m 0,0 c 0,-1.036 0.912,-1.877 2.036,-1.877 1.125,0 2.037,0.841 2.037,1.877 0,1.036 -0.912,1.877 -2.037,1.877 C 0.912,1.877 0,1.036 0,0"
             style="fill:#995042;fill-opacity:1;fill-rule:nonzero;stroke:none"
             id="path720"
             inkscape:connector-curvature="0" /></g><g
           id="g722"
           transform="translate(614.2819,240.7458)"><path
             d="m 0,0 c 0,-1.037 0.911,-1.877 2.036,-1.877 1.124,0 2.036,0.84 2.036,1.877 0,1.036 -0.912,1.876 -2.036,1.876 C 0.911,1.876 0,1.036 0,0"
             style="fill:#995042;fill-opacity:1;fill-rule:nonzero;stroke:none"
             id="path724"
             inkscape:connector-curvature="0" /></g><g
           id="g726"
           transform="translate(610.6881,241.3444)"><path
             d="m 0,0 c 0,-1.036 0.911,-1.877 2.036,-1.877 1.125,0 2.036,0.841 2.036,1.877 0,1.036 -0.911,1.877 -2.036,1.877 C 0.911,1.877 0,1.036 0,0"
             style="fill:#995042;fill-opacity:1;fill-rule:nonzero;stroke:none"
             id="path728-2"
             inkscape:connector-curvature="0" /></g><g
           id="g730"
           transform="translate(606.7946,240.8649)"><path
             d="m 0,0 c 0,-1.036 0.912,-1.876 2.037,-1.876 1.124,0 2.036,0.84 2.036,1.876 0,1.037 -0.912,1.877 -2.036,1.877 C 0.912,1.877 0,1.037 0,0"
             style="fill:#995042;fill-opacity:1;fill-rule:nonzero;stroke:none"
             id="path732"
             inkscape:connector-curvature="0" /></g></g><g
         transform="translate(-187.73655,-13.299003)"
         id="g736"
         clip-path="url(#clipPath740)"><g
           id="g742"
           transform="translate(633.6666,271.4709)"><path
             d="m 0,0 c 0,0 2.875,4.152 2.396,3.993 -0.479,-0.16 -8.305,7.826 -4.952,17.249 l -6.708,1.917 c 0,0 -4.631,-17.09 -16.29,-10.462 l 9.742,-15.572 z"
             style="fill:#a56f6f;fill-opacity:1;fill-rule:nonzero;stroke:none"
             id="path744-6"
             inkscape:connector-curvature="0" /></g><g
           id="g746"
           transform="translate(619.9625,290.8361)"><path
             d="M 0,0 C 2.757,-4.774 11.091,-5.123 18.615,-0.779 26.14,3.565 30.005,10.958 27.249,15.732 24.492,20.506 16.158,20.855 8.634,16.511 1.109,12.167 -2.756,4.774 0,0"
             style="fill:#a56f6f;fill-opacity:1;fill-rule:nonzero;stroke:none"
             id="path748"
             inkscape:connector-curvature="0" /></g><g
           id="g750"
           transform="translate(629.9938,293.5114)"><path
             d="M 0,0 C 0,0 -5.91,2.076 -5.431,7.986 -5.431,7.986 -14.534,-3.833 0,0"
             style="fill:#ffffff;fill-opacity:1;fill-rule:nonzero;stroke:none"
             id="path752"
             inkscape:connector-curvature="0" /></g><g
           id="g754"
           transform="translate(630.0172,293.5104)"><path
             d="m 0,0 c -0.314,-0.085 -0.639,-0.208 -0.996,-0.323 -0.365,-0.126 -0.689,-0.181 -1.033,-0.27 -0.679,-0.166 -1.371,-0.29 -2.075,-0.347 -0.701,-0.068 -1.421,-0.079 -2.138,0.07 -0.705,0.13 -1.46,0.482 -1.89,1.157 -0.423,0.678 -0.408,1.484 -0.293,2.184 0.126,0.713 0.386,1.379 0.687,2.014 0.627,1.262 1.406,2.418 2.221,3.55 L -5.368,8.241 -5.375,7.98 C -5.397,7.125 -5.353,6.259 -5.068,5.457 -4.815,4.653 -4.443,3.889 -3.937,3.217 -3.455,2.526 -2.846,1.929 -2.186,1.394 -1.512,0.855 -0.808,0.424 0,0 M -0.048,0.002 C -0.853,0.206 -1.659,0.649 -2.377,1.136 -3.104,1.632 -3.741,2.262 -4.279,2.967 -4.814,3.676 -5.195,4.508 -5.378,5.374 -5.604,6.235 -5.566,7.125 -5.533,7.993 L -5.392,7.938 C -6.225,6.839 -6.92,5.622 -7.426,4.347 -7.681,3.712 -7.892,3.059 -7.987,2.4 -8.078,1.75 -8.051,1.062 -7.707,0.557 c 0.335,-0.51 0.934,-0.799 1.572,-0.94 0.641,-0.142 1.324,-0.173 2.005,-0.142 0.341,0.014 0.684,0.03 1.025,0.078 0.341,0.033 0.685,0.065 1.025,0.125 0.709,0.116 1.293,0.183 2.032,0.324"
             style="fill:#a01313;fill-opacity:1;fill-rule:nonzero;stroke:none"
             id="path756"
             inkscape:connector-curvature="0" /></g><g
           id="g758"
           transform="translate(636.0514,297.6213)"><path
             d="m 0,0 c -0.272,0.785 -0.488,1.465 -0.855,2.018 -0.175,0.28 -0.399,0.508 -0.667,0.723 -0.266,0.225 -0.6,0.375 -0.967,0.595 0.398,0.11 0.848,0.123 1.26,-0.047 0.418,-0.147 0.8,-0.452 1.039,-0.833 C 0.055,2.079 0.188,1.649 0.215,1.226 0.244,0.805 0.191,0.38 0,0"
             style="fill:#38383a;fill-opacity:1;fill-rule:nonzero;stroke:none"
             id="path760-1"
             inkscape:connector-curvature="0" /></g><g
           id="g762"
           transform="translate(631.8551,302.8854)"><path
             d="m 0,0 c -0.003,0.831 0.016,1.545 -0.151,2.187 -0.075,0.322 -0.212,0.61 -0.396,0.9 -0.178,0.3 -0.444,0.551 -0.72,0.879 C -0.854,3.94 -0.424,3.806 -0.09,3.509 0.257,3.234 0.52,2.822 0.62,2.384 0.729,1.948 0.715,1.498 0.603,1.089 0.492,0.682 0.305,0.297 0,0"
             style="fill:#38383a;fill-opacity:1;fill-rule:nonzero;stroke:none"
             id="path764"
             inkscape:connector-curvature="0" /></g><g
           id="g766"
           transform="translate(627.8737,296.819)"><path
             d="M 0,0 C -0.471,0.54 -0.87,1.166 -1.003,1.937 -1.07,2.313 -1.006,2.804 -0.668,3.144 -0.354,3.438 -0.027,3.586 0.299,3.76 0.959,4.066 1.632,4.308 2.319,4.5 3.006,4.694 3.702,4.852 4.416,4.933 3.774,4.61 3.125,4.33 2.477,4.056 1.831,3.776 1.18,3.514 0.561,3.216 0.258,3.072 -0.064,2.91 -0.275,2.729 -0.465,2.575 -0.538,2.297 -0.535,1.98 -0.511,1.338 -0.259,0.661 0,0"
             style="fill:#894e4e;fill-opacity:1;fill-rule:nonzero;stroke:none"
             id="path768"
             inkscape:connector-curvature="0" /></g><g
           id="g770"
           transform="translate(683.9166,311.864)"><path
             d="M 0,0 -1.092,26.757 -0.546,26.78 0.546,0.022 Z"
             style="fill:#38383a;fill-opacity:1;fill-rule:nonzero;stroke:none"
             id="path772"
             inkscape:connector-curvature="0" /></g><g
           id="g774"
           transform="translate(680.6862,341.717)"><path
             d="M 0,0 C -0.501,1.21 -3.504,7.261 -3.504,7.261 L 2.002,0 3.504,9.682 V 0 L 7.008,4.841 5.506,-1.815 15.017,-3.63 H 5.506 l 4.505,-9.077 -7.008,9.077 -0.501,-9.077 -1.001,9.682 -6.507,-9.682 4.505,9.682 -8.51,2.42 z"
             style="fill:#ebc061;fill-opacity:1;fill-rule:nonzero;stroke:none"
             id="path776"
             inkscape:connector-curvature="0" /></g><g
           id="g778"
           transform="translate(683.6891,307.7868)"><path
             d="M 0,0 C 0,0 -5.874,13.088 -0.774,12.451 4.325,11.813 7.513,13.088 6.875,9.901 6.237,6.714 2.05,-0.326 2.05,-0.326 Z"
             style="fill:#a56f6f;fill-opacity:1;fill-rule:nonzero;stroke:none"
             id="path780"
             inkscape:connector-curvature="0" /></g><g
           id="g782"
           transform="translate(567.0729,292.1979)"><path
             d="m 0,0 c 0,0 0.464,2.542 8.113,-0.008 7.65,-2.55 27.41,0.637 31.872,-3.825 4.462,-4.462 8.196,-5.454 8.196,-5.454 0,0 1.366,-12.394 20.49,-6.02 0,0 22.948,5.1 29.322,4.462 6.375,-0.637 7.775,5.523 7.775,5.523 0,0 5.78,-4.993 8.883,-2.708 0,0 5.016,-16.838 -11.558,-23.213 -16.573,-6.374 -30.598,-2.549 -29.96,-12.111 0.638,-9.562 -5.1,-27.411 -9.562,-31.873 -4.462,-4.462 -0.942,-15.784 -0.942,-15.784 0,0 -4.795,-12.263 -15.632,-4.614 -10.836,7.649 -15.322,16.638 -25.51,12.78 -10.186,-3.856 3.837,17.818 5.113,22.917 1.274,5.1 -8.925,14.661 -5.738,24.223 3.188,9.562 -21.326,18.995 -20.862,24.477 0,0 4.635,3.587 0,11.228"
             style="fill:#edd9d9;fill-opacity:1;fill-rule:nonzero;stroke:none"
             id="path784"
             inkscape:connector-curvature="0" /></g><g
           id="g786"
           transform="translate(635.7438,311.9509)"><path
             d="m 0,0 c 0,0 -1.275,-4.462 3.824,-4.462 0,0 0.638,-5.737 4.463,-5.737 0,0 -1.913,-1.275 0,-3.825 1.912,-2.55 -8.287,-7.012 -3.187,-8.924 5.099,-1.912 9.561,1.912 9.561,1.912 l 5.737,12.112 -5.099,7.012 -7.65,3.825 H 1.912 Z"
             style="fill:#38383a;fill-opacity:1;fill-rule:nonzero;stroke:none"
             id="path788"
             inkscape:connector-curvature="0" /></g><g
           id="g790"
           transform="translate(639.3424,292.6384)"><path
             d="M 0,0 C 0,0 2.575,-0.359 1.797,-2.156 1.019,-3.953 -3.114,-2.456 -2.156,-1.317 -1.198,-0.18 0,0 0,0"
             style="fill:#a56f6f;fill-opacity:1;fill-rule:nonzero;stroke:none"
             id="path792-8"
             inkscape:connector-curvature="0" /></g></g></g></g></svg>