<svg xmlns="http://www.w3.org/2000/svg" xmlns:svg="http://www.w3.org/2000/svg" id="svg2" width="666.667" height="666.667" version="1.1" viewBox="0 0 666.667 666.667" xml:space="preserve"><metadata id="metadata8"/><defs id="defs6"><clipPath id="clipPath18" clipPathUnits="userSpaceOnUse"><path id="path16" d="M 0,500 H 500 V 0 H 0 Z"/></clipPath><clipPath id="clipPath54" clipPathUnits="userSpaceOnUse"><path id="path52" d="m 155.965,399.324 h 19.931 v -7.611 h -19.931 z"/></clipPath><clipPath id="clipPath70" clipPathUnits="userSpaceOnUse"><path id="path68" d="m 155.358,400.209 h 21.262 v -6.905 h -21.262 z"/></clipPath><clipPath id="clipPath86" clipPathUnits="userSpaceOnUse"><path id="path84" d="m 160.123,412.599 h 4.245 v -10.045 h -4.245 z"/></clipPath><clipPath id="clipPath106" clipPathUnits="userSpaceOnUse"><path id="path104" d="m 146.101,439.182 h 53.58 v -71.555 h -53.58 z"/></clipPath><clipPath id="clipPath158" clipPathUnits="userSpaceOnUse"><path id="path156" d="m 186.152,352.568 h 21.125 v -23.832 h -21.125 z"/></clipPath><clipPath id="clipPath174" clipPathUnits="userSpaceOnUse"><path id="path172" d="m 126.254,351.076 h 70.458 v -92.038 h -70.458 z"/></clipPath><clipPath id="clipPath190" clipPathUnits="userSpaceOnUse"><path id="path188" d="M 145.827,324.792 H 190.49 V 259.611 H 145.827 Z"/></clipPath><clipPath id="clipPath242" clipPathUnits="userSpaceOnUse"><path id="path240" d="m 115.455,397.862 h 19.91 v -6.854 h -19.91 z"/></clipPath><clipPath id="clipPath274" clipPathUnits="userSpaceOnUse"><path id="path272" d="m 127.003,411.134 h 2.926 v -8.3 h -2.926 z"/></clipPath><clipPath id="clipPath290" clipPathUnits="userSpaceOnUse"><path id="path288" d="M 95.7524,431.724 H 138.899 V 354.568 H 95.7524 Z"/></clipPath><clipPath id="clipPath318" clipPathUnits="userSpaceOnUse"><path id="path316" d="m 129.932,351.126 h 14.489 v -89.692 h -14.489 z"/></clipPath><clipPath id="clipPath338" clipPathUnits="userSpaceOnUse"><path id="path336" d="m 72.003,366.436 h 24.3335 v -57.31 H 72.003 Z"/></clipPath><clipPath id="clipPath362" clipPathUnits="userSpaceOnUse"><path id="path360" d="M 84.7431,311.726 H 134.822 V 294.634 H 84.7431 Z"/></clipPath><clipPath id="clipPath382" clipPathUnits="userSpaceOnUse"><path id="path380" d="m 130.741,297.429 h 34.974 v -13.008 h -34.974 z"/></clipPath><clipPath id="clipPath402" clipPathUnits="userSpaceOnUse"><path id="path400" d="m 145.702,293.72 h 13.234 v -4.419 h -13.234 z"/></clipPath><clipPath id="clipPath418" clipPathUnits="userSpaceOnUse"><path id="path416" d="m 142.715,296.139 h 13.496 v -3.731 h -13.496 z"/></clipPath><clipPath id="clipPath434" clipPathUnits="userSpaceOnUse"><path id="path432" d="m 136.624,298.999 h 15.54 v -4.244 h -15.54 z"/></clipPath><clipPath id="clipPath470" clipPathUnits="userSpaceOnUse"><path id="path468" d="m 41.8173,393.578 h 11.0978 v -37.24 H 41.8173 Z"/></clipPath><clipPath id="clipPath486" clipPathUnits="userSpaceOnUse"><path id="path484" d="M 48.511,354.968 H 63.0442 V 335.085 H 48.511 Z"/></clipPath><clipPath id="clipPath510" clipPathUnits="userSpaceOnUse"><path id="path508" d="m 41.0682,354.157 h 6.9907 v -8.394 h -6.9907 z"/></clipPath><clipPath id="clipPath558" clipPathUnits="userSpaceOnUse"><path id="path556" d="m 317.57,166.922 h 5.681 v -7.185 h -5.681 z"/></clipPath><clipPath id="clipPath578" clipPathUnits="userSpaceOnUse"><path id="path576" d="m 323.035,192.265 h 45.849 v -91.37 h -45.849 z"/></clipPath><clipPath id="clipPath598" clipPathUnits="userSpaceOnUse"><path id="path596" d="m 336.996,156.596 h 27.549 v -7.644 h -27.549 z"/></clipPath><clipPath id="clipPath614" clipPathUnits="userSpaceOnUse"><path id="path612" d="m 345.254,172.14 h 10.664 v -13.666 h -10.664 z"/></clipPath><clipPath id="clipPath690" clipPathUnits="userSpaceOnUse"><path id="path688" d="m 384.64,125.625 h 48.01 V 93.3098 h -48.01 z"/></clipPath><clipPath id="clipPath730" clipPathUnits="userSpaceOnUse"><path id="path728" d="m 378.815,141.267 h 21.837 v -11.542 h -21.837 z"/></clipPath><clipPath id="clipPath746" clipPathUnits="userSpaceOnUse"><path id="path744" d="m 378.685,142.082 h 23.202 v -9.622 h -23.202 z"/></clipPath><clipPath id="clipPath762" clipPathUnits="userSpaceOnUse"><path id="path760" d="m 382.159,149.293 h 7.666 v -7.431 h -7.666 z"/></clipPath><clipPath id="clipPath794" clipPathUnits="userSpaceOnUse"><path id="path792" d="m 367.952,172.215 h 46.299 v -51.688 h -46.299 z"/></clipPath><clipPath id="clipPath818" clipPathUnits="userSpaceOnUse"><path id="path816" d="m 389.466,121.936 h 44.9 V 37.7444 h -44.9 z"/></clipPath><clipPath id="clipPath842" clipPathUnits="userSpaceOnUse"><path id="path840" d="m 393.381,73.7943 h 27.552 V 56.8684 h -27.552 z"/></clipPath><clipPath id="clipPath858" clipPathUnits="userSpaceOnUse"><path id="path856" d="M 383.364,41.717 H 417.52 V 27.2216 h -34.156 z"/></clipPath><clipPath id="clipPath1038" clipPathUnits="userSpaceOnUse"><path id="path1036" d="m 128.356,212.885 h 44.697 v -71.632 h -44.697 z"/></clipPath><clipPath id="clipPath1054" clipPathUnits="userSpaceOnUse"><path id="path1052" d="m 139.462,146.964 h 15.434 v -10.85 h -15.434 z"/></clipPath><clipPath id="clipPath1070" clipPathUnits="userSpaceOnUse"><path id="path1068" d="m 142.779,187.475 h 6.661 v -18.222 h -6.661 z"/></clipPath><clipPath id="clipPath1150" clipPathUnits="userSpaceOnUse"><path id="path1148" d="M 70.7013,101.716 H 149.58 V 25.6842 H 70.7013 Z"/></clipPath><clipPath id="clipPath1190" clipPathUnits="userSpaceOnUse"><path id="path1188" d="M 95.7901,84.3812 H 108.593 V 56.9048 H 95.7901 Z"/></clipPath><clipPath id="clipPath1206" clipPathUnits="userSpaceOnUse"><path id="path1204" d="M 69.5553,94.9318 H 83.0407 V 87.0137 H 69.5553 Z"/></clipPath><clipPath id="clipPath1230" clipPathUnits="userSpaceOnUse"><path id="path1228" d="M 64.7925,190.667 H 137.332 V 81.1281 H 64.7925 Z"/></clipPath><clipPath id="clipPath1246" clipPathUnits="userSpaceOnUse"><path id="path1244" d="M 79.1708,160.079 H 114.61 v -39.24 H 79.1708 Z"/></clipPath><clipPath id="clipPath1266" clipPathUnits="userSpaceOnUse"><path id="path1264" d="m 109.384,166.515 h 10.863 v -9.74 h -10.863 z"/></clipPath><clipPath id="clipPath1282" clipPathUnits="userSpaceOnUse"><path id="path1280" d="m 108.314,173.878 h 7.812 V 163.26 h -7.812 z"/></clipPath><clipPath id="clipPath1338" clipPathUnits="userSpaceOnUse"><path id="path1336" d="M 94.8828,104.947 H 126.895 V 59.1962 H 94.8828 Z"/></clipPath><clipPath id="clipPath1354" clipPathUnits="userSpaceOnUse"><path id="path1352" d="m 121.985,79.6061 h 2.77 V 59.3885 h -2.77 z"/></clipPath><clipPath id="clipPath1370" clipPathUnits="userSpaceOnUse"><path id="path1368" d="m 118.418,77.6661 h 3.09 V 59.965 h -3.09 z"/></clipPath><clipPath id="clipPath1386" clipPathUnits="userSpaceOnUse"><path id="path1384" d="m 114.03,76.7484 h 2.708 v -14.306 h -2.708 z"/></clipPath><clipPath id="clipPath1498" clipPathUnits="userSpaceOnUse"><path id="path1496" d="M 377.806,434.349 H 429.58 V 357.063 H 377.806 Z"/></clipPath><clipPath id="clipPath1518" clipPathUnits="userSpaceOnUse"><path id="path1516" d="m 421.834,399.315 h 7.927 v -5.683 h -7.927 z"/></clipPath><clipPath id="clipPath1534" clipPathUnits="userSpaceOnUse"><path id="path1532" d="m 421.686,398.372 h 5.353 v -8.856 h -5.353 z"/></clipPath><clipPath id="clipPath1558" clipPathUnits="userSpaceOnUse"><path id="path1556" d="m 384.9,407.24 h 10.025 V 389.099 H 384.9 Z"/></clipPath><clipPath id="clipPath1574" clipPathUnits="userSpaceOnUse"><path id="path1572" d="m 380.78,390.836 h 23.535 V 378.765 H 380.78 Z"/></clipPath><clipPath id="clipPath1590" clipPathUnits="userSpaceOnUse"><path id="path1588" d="m 381.511,389.852 h 20.834 v -7.655 h -20.834 z"/></clipPath><clipPath id="clipPath1650" clipPathUnits="userSpaceOnUse"><path id="path1648" d="m 397.176,353.462 h 26.649 v -54.736 h -26.649 z"/></clipPath><clipPath id="clipPath1666" clipPathUnits="userSpaceOnUse"><path id="path1664" d="m 422.496,342.935 h 6.027 v -70.599 h -6.027 z"/></clipPath><clipPath id="clipPath1694" clipPathUnits="userSpaceOnUse"><path id="path1692" d="m 318.865,434.26 h 51.91 v -74.494 h -51.91 z"/></clipPath><clipPath id="clipPath1714" clipPathUnits="userSpaceOnUse"><path id="path1712" d="m 321.863,398.737 h 7.061 v -6.609 h -7.061 z"/></clipPath><clipPath id="clipPath1730" clipPathUnits="userSpaceOnUse"><path id="path1728" d="m 361.51,407.261 h 4.917 v -11.944 h -4.917 z"/></clipPath><clipPath id="clipPath1746" clipPathUnits="userSpaceOnUse"><path id="path1744" d="m 352.704,391.83 h 15.832 v -6.244 h -15.832 z"/></clipPath><clipPath id="clipPath18-3" clipPathUnits="userSpaceOnUse"><path id="path16-6" d="M 0,500 H 750 V 0 H 0 Z"/></clipPath><clipPath id="clipPath42" clipPathUnits="userSpaceOnUse"><path id="path40" d="m 178.647,247.43 c -13.964,-1.06 -29.332,-1.445 -42.398,-7.387 v 0 c -10.004,-4.55 -17.992,-14.018 -21.657,-25.47 v 0 c -3.385,-10.584 -2.871,-22.245 0.888,-32.724 v 0 c 3.607,-10.056 10.83,-19.874 9.368,-31.296 v 0 c -1.159,-9.079 -7.746,-15.839 -11.11,-24.152 v 0 c -7.946,-19.631 2.542,-39.627 16.945,-51.21 v 0 c 2.352,-1.893 4.809,-3.563 7.309,-4.968 v 0 c 19.8,-11.138 43.316,-12.159 64.859,-13.733 v 0 c 22.343,-1.631 45.236,-1.557 67.144,1.354 v 0 c 13.891,1.847 27.909,4.827 40.192,12.231 v 0 c 2.344,1.414 4.684,3.084 6.635,5.116 v 0 c 1.899,1.977 3.443,4.292 4.269,7.064 v 0 c 2.712,9.052 -3.033,18.416 -8.205,26.123 v 0 c -5.177,7.708 -10.333,17.824 -6.527,26.345 v 0 c 4.365,9.783 11.548,23.234 14.281,33.77 v 0 c 2.734,10.535 3.012,22.347 -1.319,32.304 v 0 c -4.286,9.861 -12.507,16.799 -20.912,22.347 v 0 c -23.792,15.701 -51.101,22.638 -78.228,24.597 v 0 c -5.965,0.431 -11.936,0.627 -17.906,0.627 v 0 c -7.887,0 -15.77,-0.342 -23.628,-0.938"/></clipPath><clipPath id="clipPath652" clipPathUnits="userSpaceOnUse"><path id="path650" d="m 166.23,230.704 h 13.226 v -13.21 H 166.23 Z"/></clipPath><clipPath id="clipPath868" clipPathUnits="userSpaceOnUse"><path id="path866" d="m 216.884,182.543 h 23.373 v -3.361 h -23.373 z"/></clipPath><clipPath id="clipPath972" clipPathUnits="userSpaceOnUse"><path id="path970" d="m 249.872,227.045 h 13.226 v -13.21 h -13.226 z"/></clipPath><clipPath id="clipPath996" clipPathUnits="userSpaceOnUse"><path id="path994" d="m 205.737,234.977 h 13.225 v -13.21 h -13.225 z"/></clipPath><clipPath id="clipPath20" clipPathUnits="userSpaceOnUse"><path id="path18" d="M 0,500 H 750 V 0 H 0 Z"/></clipPath><clipPath id="clipPath28" clipPathUnits="userSpaceOnUse"><path id="path26" d="m 611.425,347.391 h 26.562 V 197.827 h -26.562 z"/></clipPath><clipPath id="clipPath48" clipPathUnits="userSpaceOnUse"><path id="path46" d="m 454.572,382.721 h 31.854 V 203.357 h -31.854 z"/></clipPath><clipPath id="clipPath68" clipPathUnits="userSpaceOnUse"><path id="path66" d="m 318.039,313.052 h 31.855 V 133.687 h -31.855 z"/></clipPath><clipPath id="clipPath88" clipPathUnits="userSpaceOnUse"><path id="path86" d="M 106.406,326.193 H 154.77 V 150.361 h -48.364 z"/></clipPath><clipPath id="clipPath252" clipPathUnits="userSpaceOnUse"><path id="path250" d="m 434.615,86.673 c -0.253,-0.472 -3.646,-10.19 -4.117,-9.937 v 0 c -0.301,0.162 -2.59,-1.08 -4.209,-2.001 v 0 c -0.931,-0.53 -1.311,-1.674 -0.879,-2.653 v 0 c 1.851,-4.2 6.684,-14.786 9.032,-16.288 v 0 c 2.937,-1.88 10.805,-3.065 10.73,-1.507 v 0 c -0.074,1.558 -5.842,4.956 -5.842,4.956 v 0 l -4.118,14.963 6.038,10.12 -6.273,2.456 z"/></clipPath><clipPath id="clipPath268" clipPathUnits="userSpaceOnUse"><path id="path266" d="M 0,500 H 750 V 0 H 0 Z"/></clipPath><clipPath id="clipPath280" clipPathUnits="userSpaceOnUse"><path id="path278" d="m 498.038,95.53 c 0,0 7.856,-7.533 8.135,-7.783 v 0 c 0.279,-0.25 -6.282,-16.019 -5.944,-17.328 v 0 c 0.338,-1.309 16.844,17.137 16.256,18.165 v 0 c -0.589,1.031 -5.222,3.164 -5.222,3.164 v 0 c 0,0 -7.943,9.12 -7.972,9.65 v 0 z"/></clipPath><clipPath id="clipPath296" clipPathUnits="userSpaceOnUse"><path id="path294" d="M 0,500 H 750 V 0 H 0 Z"/></clipPath><clipPath id="clipPath320" clipPathUnits="userSpaceOnUse"><path id="path318" d="m 452.601,231.825 c -7.569,0.883 -6.352,-75.564 -6.352,-75.564 v 0 L 429.107,84.39 443.241,80.782 c 0,0 8.322,24.487 17.661,51.335 v 0 c 9.998,-11.702 36.167,-40.209 36.167,-40.209 v 0 l 9.923,9.923 -39.117,50.216 c 6.504,18.462 12.633,35.445 15.962,43.607 v 0 c 9.322,22.854 -3.007,36.988 -3.007,36.988 v 0 c 0,0 -22.093,-1.533 -28.229,-0.817"/></clipPath><clipPath id="clipPath328" clipPathUnits="userSpaceOnUse"><path id="path326" d="m 460.902,152.161 h 54.227 V 88.25 h -54.227 z"/></clipPath><clipPath id="clipPath344" clipPathUnits="userSpaceOnUse"><path id="path342" d="m 436.734,212.654 h 24.395 v -70.063 h -24.395 z"/></clipPath><clipPath id="clipPath360" clipPathUnits="userSpaceOnUse"><path id="path358" d="M 0,500 H 750 V 0 H 0 Z"/></clipPath><clipPath id="clipPath372" clipPathUnits="userSpaceOnUse"><path id="path370" d="m 435.32,354.251 c -6.128,-2.937 -7.457,-12.907 -2.97,-22.269 v 0 c 4.487,-9.361 13.093,-14.569 19.22,-11.632 v 0 c 6.128,2.938 7.458,12.908 2.97,22.269 v 0 c -3.639,7.592 -9.986,12.452 -15.523,12.451 v 0 c -1.291,0 -2.538,-0.264 -3.697,-0.819"/></clipPath><clipPath id="clipPath384" clipPathUnits="userSpaceOnUse"><path id="path382" d="M 0,500 H 750 V 0 H 0 Z"/></clipPath><clipPath id="clipPath480" clipPathUnits="userSpaceOnUse"><path id="path478" d="m 348.147,79.424 c 0,0 10.714,-6.632 11.092,-6.848 v 0 c 0.377,-0.215 -3.244,-19.659 -2.545,-21.06 v 0 c 0.7,-1.4 14.936,23.477 14.021,24.501 v 0 c -0.916,1.024 -6.679,2.32 -6.679,2.32 v 0 c 0,0 -11.198,8.41 -11.359,9.003 v 0 z"/></clipPath><clipPath id="clipPath496" clipPathUnits="userSpaceOnUse"><path id="path494" d="M 0,500 H 750 V 0 H 0 Z"/></clipPath><clipPath id="clipPath508" clipPathUnits="userSpaceOnUse"><path id="path506" d="m 272.282,63.31 c 0,0 7.89,-9.827 8.172,-10.156 v 0 c 0.285,-0.329 -9.615,-17.45 -9.424,-19.005 v 0 c 0.193,-1.554 21.912,17.149 21.391,18.42 v 0 c -0.521,1.271 -5.522,4.415 -5.522,4.415 v 0 c 0,0 -7.751,11.664 -7.706,12.276 v 0 z"/></clipPath><clipPath id="clipPath524" clipPathUnits="userSpaceOnUse"><path id="path522" d="M 0,500 H 750 V 0 H 0 Z"/></clipPath><clipPath id="clipPath648" clipPathUnits="userSpaceOnUse"><path id="path646" d="M 602.043,187.619 C 593.099,170.851 589.586,131.56 589.586,131.56 v 0 l 27.79,-59.574 c -0.479,-6.867 -6.867,-12.138 -7.827,-13.256 v 0 c -0.957,-1.118 6.55,-1.756 7.028,2.556 v 0 c 0.485,4.367 4.312,3.992 5.111,5.749 v 0 c 0.799,1.757 -1.916,5.43 -1.916,5.43 v 0 c -2.556,53.665 -19.166,59.095 -19.166,59.095 v 0 c 0,0 18.207,21.401 29.707,44.72 v 0 c 11.499,23.319 -15.014,40.569 -15.014,40.569 v 0 c 0,0 -4.312,-12.459 -13.256,-29.23"/></clipPath><clipPath id="clipPath660" clipPathUnits="userSpaceOnUse"><path id="path658" d="M 0,500 H 750 V 0 H 0 Z"/></clipPath><clipPath id="clipPath672" clipPathUnits="userSpaceOnUse"><path id="path670" d="m 578.299,205.684 c -18.025,-6.027 -47.591,-32.141 -47.591,-32.141 v 0 l -20.782,-62.366 c -5.07,-4.657 -13.333,-4.091 -14.796,-4.243 v 0 c -1.466,-0.154 3.546,-5.779 6.858,-2.978 v 0 c 2.056,1.739 3.799,1.322 5.252,0.907 v 0 c 0.918,-0.264 1.721,-0.527 2.414,-0.245 v 0 c 1.787,0.726 2.342,5.26 2.342,5.26 v 0 c 35.042,40.724 26.714,56.087 26.714,56.087 v 0 c 0,0 27.936,3.022 52.319,12.048 v 0 c 24.384,9.025 16.992,39.78 16.992,39.78 v 0 c 0,0 -11.697,-6.081 -29.722,-12.109"/></clipPath><clipPath id="clipPath684" clipPathUnits="userSpaceOnUse"><path id="path682" d="M 0,500 H 750 V 0 H 0 Z"/></clipPath><clipPath id="clipPath708" clipPathUnits="userSpaceOnUse"><path id="path706" d="m 599.008,265.002 c -4.312,-4.552 -3.114,-16.051 5.271,-13.416 v 0 l 7.187,-28.509 12.458,-3.354 c 0,0 -2.555,19.964 19.645,42.644 v 0 l -0.239,10.541 -35.217,11.26 c 0,0 -5.174,-15.018 -9.105,-19.166"/></clipPath><clipPath id="clipPath740" clipPathUnits="userSpaceOnUse"><path id="path738" d="M 0,500 H 750 V 0 H 0 Z"/></clipPath><clipPath id="clipPath20-3" clipPathUnits="userSpaceOnUse"><path id="path18-6" d="M 0,500 H 500 V 0 H 0 Z"/></clipPath><clipPath id="clipPath28-7" clipPathUnits="userSpaceOnUse"><path id="path26-5" d="m 70,83.9992 h 88 v -19 H 70 Z"/></clipPath><clipPath id="clipPath44" clipPathUnits="userSpaceOnUse"><path id="path42" d="m 164,83.9992 h 88 v -19 h -88 z"/></clipPath><clipPath id="clipPath60" clipPathUnits="userSpaceOnUse"><path id="path58" d="m 256,83.9992 h 88 v -19 h -88 z"/></clipPath><clipPath id="clipPath76" clipPathUnits="userSpaceOnUse"><path id="path74" d="m 344,83.9992 h 88 v -19 h -88 z"/></clipPath><clipPath id="clipPath92" clipPathUnits="userSpaceOnUse"><path id="path90" d="M 32,369.996 H 468 V 88.9962 H 32 Z"/></clipPath><clipPath id="clipPath240" clipPathUnits="userSpaceOnUse"><path id="path238" d="m 93.953,162.048 h 36.286 V 130.416 H 93.953 Z"/></clipPath><clipPath id="clipPath380" clipPathUnits="userSpaceOnUse"><path id="path378" d="m 280.882,249.482 h 12.394 v -25.651 h -12.394 z"/></clipPath><clipPath id="clipPath424" clipPathUnits="userSpaceOnUse"><path id="path422" d="m 273.766,167.979 h 46.099 v -34.524 h -46.099 z"/></clipPath><clipPath id="clipPath600" clipPathUnits="userSpaceOnUse"><path id="path598" d="m 191.836,162.409 h 39.556 v -31.227 h -39.556 z"/></clipPath><clipPath id="clipPath776" clipPathUnits="userSpaceOnUse"><path id="path774" d="m 354.14,168.846 h 40.138 V 130.349 H 354.14 Z"/></clipPath></defs><g id="g10" transform="matrix(1.3333333,0,0,-1.3333333,0,666.66667)"><g id="g2704" transform="matrix(0.93811113,0,0,0.93811113,15.472182,26.588583)"><g id="g22" transform="matrix(1.3946357,0,0,1.3946357,-98.659054,-49.518729)"><g id="g36"><g style="opacity:.60000598" id="g34" clip-path="url(#clipPath28-7)"><g id="g32" transform="translate(158,74.499)"><path id="path30" d="m 0,0 c 0,-5.246 -19.7,-9.5 -44,-9.5 -24.3,0 -44,4.254 -44,9.5 0,5.247 19.7,9.5 44,9.5 C -19.7,9.5 0,5.247 0,0" style="fill:#bebbd0;fill-opacity:1;fill-rule:nonzero;stroke:none"/></g></g></g></g><g id="g38" transform="matrix(1.3946357,0,0,1.3946357,-98.659054,-49.518729)"><g id="g52"><g style="opacity:.60000598" id="g50" clip-path="url(#clipPath44)"><g id="g48" transform="translate(252,74.499)"><path id="path46-3" d="m 0,0 c 0,-5.246 -19.7,-9.5 -44,-9.5 -24.301,0 -44,4.254 -44,9.5 0,5.247 19.699,9.5 44,9.5 C -19.7,9.5 0,5.247 0,0" style="fill:#bebbd0;fill-opacity:1;fill-rule:nonzero;stroke:none"/></g></g></g></g><g id="g54" transform="matrix(1.3946357,0,0,1.3946357,-98.659054,-49.518729)"><g id="g68"><g style="opacity:.60000598" id="g66" clip-path="url(#clipPath60)"><g id="g64" transform="translate(344,74.499)"><path id="path62" d="m 0,0 c 0,-5.246 -19.7,-9.5 -44,-9.5 -24.301,0 -44,4.254 -44,9.5 0,5.247 19.699,9.5 44,9.5 C -19.7,9.5 0,5.247 0,0" style="fill:#bebbd0;fill-opacity:1;fill-rule:nonzero;stroke:none"/></g></g></g></g><g id="g70" transform="matrix(1.3946357,0,0,1.3946357,-98.659054,-49.518729)"><g id="g84"><g style="opacity:.60000598" id="g82" clip-path="url(#clipPath76)"><g id="g80" transform="translate(432,74.499)"><path id="path78" d="m 0,0 c 0,-5.246 -19.699,-9.5 -44,-9.5 -24.301,0 -44,4.254 -44,9.5 0,5.247 19.699,9.5 44,9.5 C -19.699,9.5 0,5.247 0,0" style="fill:#bebbd0;fill-opacity:1;fill-rule:nonzero;stroke:none"/></g></g></g></g><g id="g102" transform="matrix(1.3946357,0,0,1.3946357,27.308347,389.60966)"><path id="path104-5" d="m 0,0 c -1.252,-1.218 -2.729,-2.33 -3.361,-3.958 -1.039,-2.672 0.552,-5.565 1.034,-8.392 0.621,-3.647 -0.788,-7.574 -3.586,-9.995 -0.757,-0.656 -1.605,-1.205 -2.327,-1.899 -3.171,-3.041 -3.263,-8.137 -2.054,-12.361 0.672,-2.347 1.726,-4.673 3.558,-6.288 2.446,-2.156 5.929,-2.733 9.186,-2.564 3.256,0.17 6.448,0.99 9.699,1.247 9.744,0.769 19.476,-3.533 29.141,-2.079 1.972,0.297 3.948,0.851 5.588,1.985 1.64,1.135 2.912,2.918 3.073,4.906 0.164,2.033 -0.805,3.961 -1.669,5.809 -2.272,4.855 -4.004,10.306 -2.791,15.527 0.684,2.942 2.221,6.236 0.536,8.742 -0.7,1.042 -1.835,1.689 -2.824,2.463 -2.059,1.61 -3.576,3.903 -4.251,6.429 -0.515,1.924 -2.14,9.734 -8.373,10.998 -2.433,0.493 -4.292,2.413 -6.77,2.549 C 18.266,13.423 12.495,12.433 7.426,10.133 5.74,9.368 5.165,8.543 4.44,6.852 3.34,4.283 2.023,1.969 0,0" style="fill:#bb5932;fill-opacity:1;fill-rule:nonzero;stroke:none"/></g><g id="g106" transform="matrix(1.3946357,0,0,1.3946357,82.380001,351.21296)"><path id="path108" d="m 0,0 c -3.632,0.888 -11.134,2.436 -19.615,2.53 v 0.035 c 0,0 -0.089,-0.005 -0.249,-0.017 -0.161,0.012 -0.249,0.017 -0.249,0.017 V 2.53 c -3.147,-0.236 -14.46,-0.079 -18.078,-6.108 -3.987,-6.645 -6.023,-60.763 -6.023,-60.763 H 6.119 C 6.119,-64.341 1.473,-0.36 0,0" style="fill:#f8f5ef;fill-opacity:1;fill-rule:nonzero;stroke:none"/></g><g id="g110" transform="matrix(1.3946357,0,0,1.3946357,20.71716,261.48099)"><path id="path112" d="m 0,0 19.539,-143.22 4.917,0.235 0.878,131.319 2.999,-0.334 3.851,-130.283 5.854,0.351 L 50.333,0 Z" style="fill:#a6c7f7;fill-opacity:1;fill-rule:nonzero;stroke:none"/></g><g id="g114" transform="matrix(1.3946357,0,0,1.3946357,69.491893,341.19041)"><path id="path116" d="m 0,0 c 0.784,0.941 1.568,5.384 2.051,8.624 -3.554,0.565 -7.843,1.042 -12.425,1.092 v 0.035 c 0,0 -0.088,-0.005 -0.249,-0.016 -0.161,0.011 -0.249,0.016 -0.249,0.016 V 9.716 C -12.531,9.592 -16.46,9.568 -20.335,8.698 -20.476,6.658 -20.604,2.514 -19.477,1.012 -17.959,-1.012 -1.265,-1.518 0,0" style="fill:#ffb197;fill-opacity:1;fill-rule:nonzero;stroke:none"/></g><g id="g118" transform="matrix(1.3946357,0,0,1.3946357,55.02464,371.18526)"><path id="path120" d="m 0,0 v 0 c -2.752,0 -4.983,-2.231 -4.983,-4.983 v -9.303 c 0,-2.752 2.231,-4.983 4.983,-4.983 v 0 c 2.752,0 4.983,2.231 4.983,4.983 v 9.303 C 4.983,-2.231 2.752,0 0,0" style="fill:#ffb197;fill-opacity:1;fill-rule:nonzero;stroke:none"/></g><g id="g122" transform="matrix(1.3946357,0,0,1.3946357,55.02464,373.97453)"><path id="path124" d="m 0,0 v 0 c -2.752,0 -4.983,-2.231 -4.983,-4.983 v -6.395 c 1.579,-0.474 3.25,-0.735 4.983,-0.735 1.733,0 3.404,0.261 4.983,0.735 v 6.395 C 4.983,-2.231 2.752,0 0,0" style="fill:#f98e72;fill-opacity:1;fill-rule:nonzero;stroke:none"/></g><g id="g126" transform="matrix(1.3946357,0,0,1.3946357,79.215572,385.12144)"><path id="path128" d="m 0,0 c 0,-9.58 -7.766,-17.346 -17.346,-17.346 -9.58,0 -17.346,7.766 -17.346,17.346 0,9.58 7.766,17.346 17.346,17.346 C -7.766,17.346 0,9.58 0,0" style="fill:#ffb197;fill-opacity:1;fill-rule:nonzero;stroke:none"/></g><g id="g130" transform="matrix(1.3946357,0,0,1.3946357,39.025798,383.72806)"><path id="path132" d="m 0,0 c 0,-2.88 -2.335,-5.216 -5.216,-5.216 -2.88,0 -5.216,2.336 -5.216,5.216 0,2.88 2.336,5.215 5.216,5.215 C -2.335,5.215 0,2.88 0,0" style="fill:#ffb197;fill-opacity:1;fill-rule:nonzero;stroke:none"/></g><g id="g134" transform="matrix(1.3946357,0,0,1.3946357,84.881977,383.72806)"><path id="path136" d="m 0,0 c 0,-2.88 -2.335,-5.216 -5.215,-5.216 -2.881,0 -5.216,2.336 -5.216,5.216 0,2.88 2.335,5.215 5.216,5.215 C -2.335,5.215 0,2.88 0,0" style="fill:#ffb197;fill-opacity:1;fill-rule:nonzero;stroke:none"/></g><g id="g138" transform="matrix(1.3946357,0,0,1.3946357,31.127139,389.40813)"><path id="path140" d="m 0,0 c 0,0 12.422,14.899 27.009,11.357 0,0 -8.574,8.61 -17.331,4.146 C -0.95,10.085 0,0 0,0" style="fill:#bb5932;fill-opacity:1;fill-rule:nonzero;stroke:none"/></g><g id="g142" transform="matrix(1.3946357,0,0,1.3946357,14.889395,210.15588)"><path id="path144" d="m 0,0 c 0,-3.422 -2.774,-6.196 -6.197,-6.196 -3.422,0 -6.196,2.774 -6.196,6.196 0,3.422 2.774,6.196 6.196,6.196 C -2.774,6.196 0,3.422 0,0" style="fill:#ffb197;fill-opacity:1;fill-rule:nonzero;stroke:none"/></g><g id="g146" transform="matrix(1.3946357,0,0,1.3946357,48.216865,385.50413)"><path id="path148" d="m 0,0 c 0,-0.707 -0.578,-1.28 -1.29,-1.28 -0.712,0 -1.29,0.573 -1.29,1.28 0,0.707 0.578,1.28 1.29,1.28 C -0.578,1.28 0,0.707 0,0" style="fill:#752b19;fill-opacity:1;fill-rule:nonzero;stroke:none"/></g><g id="g150" transform="matrix(1.3946357,0,0,1.3946357,65.078569,385.50413)"><path id="path152" d="m 0,0 c 0,-0.707 -0.578,-1.28 -1.29,-1.28 -0.712,0 -1.29,0.573 -1.29,1.28 0,0.707 0.578,1.28 1.29,1.28 C -0.578,1.28 0,0.707 0,0" style="fill:#752b19;fill-opacity:1;fill-rule:nonzero;stroke:none"/></g><g id="g154" transform="matrix(1.3946357,0,0,1.3946357,40.729624,390.4827)"><path id="path156-6" d="m 0,0 -0.547,0.513 c 2.53,2.701 5.849,2.074 5.989,2.046 L 5.296,1.823 C 5.172,1.847 2.24,2.389 0,0" style="fill:#752b19;fill-opacity:1;fill-rule:nonzero;stroke:none"/></g><g id="g158" transform="matrix(1.3946357,0,0,1.3946357,68.744229,390.4827)"><path id="path160" d="m 0,0 c -2.24,2.39 -5.172,1.847 -5.296,1.823 l -0.147,0.736 c 0.14,0.028 3.458,0.654 5.99,-2.046 z" style="fill:#752b19;fill-opacity:1;fill-rule:nonzero;stroke:none"/></g><g id="g162" transform="matrix(1.3946357,0,0,1.3946357,31.783036,354.28688)"><path id="path164" d="m 0,0 c 0,0 -11.029,-1.739 -13.584,-16.222 -2.556,-14.482 -20.872,-74.541 -20.872,-74.541 0,0 8.093,-12.778 28.112,-5.111 l 8.946,80.93 z" style="fill:#403f5f;fill-opacity:1;fill-rule:nonzero;stroke:none"/></g><g id="g166" transform="matrix(1.3946357,0,0,1.3946357,56.776721,372.06305)"><path id="path168" d="M 0,0 C -0.672,0 -1.384,0.071 -2.134,0.237 L -1.972,0.97 C 2.841,-0.099 6.116,3.168 6.149,3.202 L 6.685,2.677 C 6.561,2.551 4.014,0 0,0" style="fill:#f55b30;fill-opacity:1;fill-rule:nonzero;stroke:none"/></g><g id="g170" transform="matrix(1.3946357,0,0,1.3946357,109.66465,213.08406)"><path id="path172-2" d="m 0,0 c 0,-3.422 2.774,-6.196 6.197,-6.196 3.422,0 6.196,2.774 6.196,6.196 0,3.422 -2.774,6.196 -6.196,6.196 C 2.774,6.196 0,3.422 0,0" style="fill:#ffb197;fill-opacity:1;fill-rule:nonzero;stroke:none"/></g><g id="g174" transform="matrix(1.3946357,0,0,1.3946357,84.962308,354.77514)"><path id="path176" d="m 0,0 c 0,0 11.029,-1.74 13.585,-16.222 2.556,-14.482 20.872,-74.541 20.872,-74.541 0,0 -8.094,-12.779 -28.113,-5.112 l -8.945,80.931 z" style="fill:#403f5f;fill-opacity:1;fill-rule:nonzero;stroke:none"/></g><g id="g178" transform="matrix(1.3946357,0,0,1.3946357,93.23208,226.28959)"><path id="path180" d="m 0,0 -0.278,2.519 c 5.595,0.016 13.109,0.532 14.277,0.73 4.217,0.715 8.542,3.214 12.799,3.825 0.253,-0.838 0.48,-1.591 0.683,-2.262 C 21.375,1.941 9.915,-2.365 0,0" style="fill:#fc4477;fill-opacity:1;fill-rule:nonzero;stroke:none"/></g><g id="g182" transform="matrix(1.3946357,0,0,1.3946357,132.78032,228.9698)"><path id="path184" d="m 0,0 c 0.107,-0.352 0.169,-0.557 0.169,-0.557 0,0 -8.093,-12.778 -28.112,-5.111 l -0.168,1.514 C -23.84,-5.285 -12.745,-7.062 0,0" style="fill:#fc4477;fill-opacity:1;fill-rule:nonzero;stroke:none"/></g><g id="g186" transform="matrix(1.3946357,0,0,1.3946357,68.711595,402.42831)"><path id="path188-9" d="M 0,0 C 1.228,-2.591 2.948,-4.912 4.657,-7.214 4.989,-7.661 5.326,-8.113 5.769,-8.45 6.168,-8.753 6.645,-8.953 7.142,-9.024 7.309,-7.196 7.251,-5.374 6.374,-3.761 5.723,-2.563 4.092,-1.459 3.209,-0.422 2.434,0.488 1.424,1.162 0.393,1.748 -0.126,2.042 -0.423,2.344 -0.561,1.707 -0.665,1.228 -0.198,0.417 0,0" style="fill:#bb5932;fill-opacity:1;fill-rule:nonzero;stroke:none"/></g><g id="g190" transform="matrix(1.3946357,0,0,1.3946357,23.513265,225.80063)"><path id="path192" d="m 0,0 0.278,2.52 c -5.595,0.015 -13.109,0.532 -14.277,0.73 -4.217,0.715 -8.542,3.213 -12.799,3.825 -0.253,-0.839 -0.48,-1.591 -0.683,-2.263 C -21.375,1.941 -9.915,-2.364 0,0" style="fill:#fc4477;fill-opacity:1;fill-rule:nonzero;stroke:none"/></g><g id="g194" transform="matrix(1.3946357,0,0,1.3946357,-16.03442,228.48098)"><path id="path196" d="m 0,0 c -0.107,-0.351 -0.169,-0.556 -0.169,-0.556 0,0 8.092,-12.778 28.112,-5.111 l 0.167,1.513 C 23.84,-5.285 12.745,-7.062 0,0" style="fill:#fc4477;fill-opacity:1;fill-rule:nonzero;stroke:none"/></g><g id="g198" transform="matrix(1.3946357,0,0,1.3946357,54.82437,62.068444)"><path id="path200" d="M 0,0 -4.917,-0.234 -21.192,-3.396 -20.958,-4.684 0,-3.63 Z" style="fill:#35324c;fill-opacity:1;fill-rule:nonzero;stroke:none"/></g><g id="g202" transform="matrix(1.3946357,0,0,1.3946357,14.932908,418.55518)"><path id="path204" d="M 0,0 27.448,17.174 57.043,0.614 28.828,-10.887 Z" style="fill:#403f5f;fill-opacity:1;fill-rule:nonzero;stroke:none"/></g><g id="g206" transform="matrix(1.3946357,0,0,1.3946357,65.601557,63.047757)"><path id="path208" d="m 0,0 0.234,-2.81 16.626,-6.908 3.044,0.235 0.117,1.638 -14.167,8.197 z" style="fill:#35324c;fill-opacity:1;fill-rule:nonzero;stroke:none"/></g><g id="g210" transform="matrix(1.3946357,0,0,1.3946357,97.109585,325.53075)"><path id="path212" d="m 0,0 -0.892,13.394 c -0.255,3.845 -3.155,6.994 -6.967,7.564 l -8.51,1.275 -10.636,-22.178 -12.861,21.79 -6.975,-1.226 c -3.736,-0.656 -6.534,-3.789 -6.765,-7.575 l -6.941,-130.177 c 0,0 6.852,-13.582 34.609,-12.869 27.756,0.713 35.905,12.615 35.905,12.615 z" style="fill:#35324c;fill-opacity:1;fill-rule:nonzero;stroke:none"/></g><g id="g214" transform="matrix(1.3946357,0,0,1.3946357,85.820986,354.80917)"><path id="path216" d="m 0,0 -8.275,1.239 -10.636,-22.178 -12.861,21.791 -6.975,-1.227 c -0.397,-0.069 -0.779,-0.172 -1.153,-0.295 5.128,-11.243 19.514,-41.483 19.514,-41.483 z" style="fill:#fc4477;fill-opacity:1;fill-rule:nonzero;stroke:none"/></g><g id="g218" transform="matrix(1.3946357,0,0,1.3946357,31.613448,418.98347)"><path id="path220" d="m 0,0 1.84,-12.268 14.414,-3.066 13.188,3.986 2.606,13.035 c 0,0 -7.513,5.013 -16.254,5.367 C 10.323,7.274 3.896,5.549 0,0" style="fill:#35324c;fill-opacity:1;fill-rule:nonzero;stroke:none"/></g><g id="g222" transform="matrix(1.3946357,0,0,1.3946357,80.372562,409.27416)"><path id="path224" d="m 0,0 c -0.205,0 -0.372,0.164 -0.375,0.369 -0.001,0.097 -0.153,9.68 -0.153,11.653 0,1.632 -0.996,1.74 -1.007,1.741 -0.206,0.019 -0.358,0.201 -0.34,0.407 0.019,0.207 0.196,0.364 0.408,0.34 0.584,-0.052 1.689,-0.64 1.689,-2.488 C 0.222,10.055 0.374,0.478 0.375,0.381 0.378,0.174 0.213,0.003 0.006,0 Z" style="fill:#fc4477;fill-opacity:1;fill-rule:nonzero;stroke:none"/></g><g id="g226" transform="matrix(1.3946357,0,0,1.3946357,59.447588,325.60689)"><path id="path228" d="m 0,0 -5.567,-12.593 -1.911,4.034 6.439,10.32 z" style="fill:#e53e72;fill-opacity:1;fill-rule:nonzero;stroke:none"/></g><g id="g230" transform="matrix(1.3946357,0,0,1.3946357,80.644237,402.92954)"><path id="path232" d="M 0,0 0.205,-1.738 1.227,-1.84 0.492,5 h -1.237 l -0.754,-6.567 1.115,-0.112 z" style="fill:#fc4477;fill-opacity:1;fill-rule:nonzero;stroke:none"/></g><g id="g234" transform="matrix(1.3946357,0,0,1.3946357,-98.659054,-49.518729)"><g id="g252"><g style="opacity:.39999402" id="g250" clip-path="url(#clipPath240)"><g id="g244" transform="translate(97.8735,133.0049)"><path id="path242" d="m 0,0 c 3.567,-0.734 7.956,-1.514 12.52,-2.023 l 0.205,30.631 -12.402,0.435 c 0,0 -2.08,-0.087 -4.243,-0.303 z" style="fill:#35324c;fill-opacity:1;fill-rule:nonzero;stroke:none"/></g><g id="g248" transform="translate(127.9712,131.125)"><path id="path246" d="m 0,0 2.268,26.18 -11.461,4.021 -3.384,0.119 0.914,-30.945 C -7.525,-0.824 -3.486,-0.687 0,0" style="fill:#35324c;fill-opacity:1;fill-rule:nonzero;stroke:none"/></g></g></g></g><g id="g254" transform="matrix(1.3946357,0,0,1.3946357,264.36713,410.37732)"><path id="path256" d="M 0,0 26.03,23.242 58.337,4.416 32.306,-13.712 Z" style="fill:#403f5f;fill-opacity:1;fill-rule:nonzero;stroke:none"/></g><g id="g258" transform="matrix(1.3946357,0,0,1.3946357,334.62316,400.55699)"><path id="path260" d="m 0,0 c 2.759,-2.342 4.332,-5.91 4.61,-9.519 0.351,-4.551 -1.213,-9.064 -1.086,-13.627 0.04,-1.448 0.268,-2.936 1.022,-4.172 1.65,-2.71 5.303,-3.437 8.459,-3.115 -1.142,-3.33 -2.46,-6.867 -5.324,-8.913 -3.581,-2.559 -8.53,-2.012 -12.681,-0.552 -2.176,0.766 -4.355,1.813 -5.78,3.626 -2.259,2.875 -2.096,6.961 -1.263,10.522 0.647,2.766 1.631,5.667 0.756,8.369 -0.431,1.327 -1.276,2.471 -2.042,3.638 -1.651,2.519 -3.01,5.393 -2.907,8.404 C -15.941,3.368 -5.578,4.737 0,0" style="fill:#c43d2b;fill-opacity:1;fill-rule:nonzero;stroke:none"/></g><g id="g262" transform="matrix(1.3946357,0,0,1.3946357,333.41373,351.21296)"><path id="path264" d="m 0,0 c -3.633,0.888 -11.134,2.436 -19.615,2.53 v 0.035 c 0,0 -0.088,-0.005 -0.249,-0.017 -0.16,0.012 -0.249,0.017 -0.249,0.017 V 2.53 c -3.147,-0.236 -14.46,-0.079 -18.077,-6.108 -3.988,-6.645 -6.024,-60.763 -6.024,-60.763 H 6.119 C 6.119,-64.341 1.473,-0.36 0,0" style="fill:#f8f5ef;fill-opacity:1;fill-rule:nonzero;stroke:none"/></g><g id="g266" transform="matrix(1.3946357,0,0,1.3946357,271.75159,261.48099)"><path id="path268" d="m 0,0 19.538,-143.22 4.918,0.235 0.878,131.319 L 28.333,-12 51.194,-149.351 57.048,-149 50.333,0 Z" style="fill:#ffb197;fill-opacity:1;fill-rule:nonzero;stroke:none"/></g><g id="g270" transform="matrix(1.3946357,0,0,1.3946357,320.52562,341.19041)"><path id="path272-1" d="m 0,0 c 0.784,0.941 1.568,5.384 2.051,8.624 -3.554,0.565 -7.843,1.042 -12.425,1.092 v 0.035 c 0,0 -0.088,-0.005 -0.249,-0.016 -0.16,0.011 -0.249,0.016 -0.249,0.016 V 9.716 C -12.531,9.592 -16.46,9.568 -20.335,8.698 -20.476,6.658 -20.604,2.514 -19.477,1.012 -17.959,-1.012 -1.265,-1.518 0,0" style="fill:#ffb197;fill-opacity:1;fill-rule:nonzero;stroke:none"/></g><g id="g274" transform="matrix(1.3946357,0,0,1.3946357,337.56361,354.63624)"><path id="path276" d="m 0,0 c 0,0 11.029,-1.527 13.585,-14.243 1.64,-8.161 3.705,-23.515 4.975,-33.465 1.142,-8.96 -7.289,-16.809 -17.51,-15.95 -2.794,0.235 -5.932,0.863 -9.436,2.041 l 5.784,48.496 z" style="fill:#403f5f;fill-opacity:1;fill-rule:nonzero;stroke:none"/></g><g id="g278" transform="matrix(1.3946357,0,0,1.3946357,307.45231,371.18526)"><path id="path280" d="m 0,0 v 0 c -2.752,0 -4.983,-2.231 -4.983,-4.983 v -9.303 c 0,-2.752 2.231,-4.983 4.983,-4.983 2.753,0 4.983,2.231 4.983,4.983 v 9.303 C 4.983,-2.231 2.753,0 0,0" style="fill:#ffb197;fill-opacity:1;fill-rule:nonzero;stroke:none"/></g><g id="g282" transform="matrix(1.3946357,0,0,1.3946357,307.45231,373.97453)"><path id="path284" d="m 0,0 v 0 c -2.752,0 -4.983,-2.231 -4.983,-4.983 v -6.395 c 1.58,-0.474 3.251,-0.735 4.983,-0.735 1.733,0 3.404,0.261 4.983,0.735 v 6.395 C 4.983,-2.231 2.753,0 0,0" style="fill:#f98e72;fill-opacity:1;fill-rule:nonzero;stroke:none"/></g><g id="g286" transform="matrix(1.3946357,0,0,1.3946357,330.25,385.12144)"><path id="path288-2" d="m 0,0 c 0,-9.58 -7.767,-17.346 -17.347,-17.346 -9.579,0 -17.345,7.766 -17.345,17.346 0,9.58 7.766,17.346 17.345,17.346 C -7.767,17.346 0,9.58 0,0" style="fill:#ffb197;fill-opacity:1;fill-rule:nonzero;stroke:none"/></g><g id="g290" transform="matrix(1.3946357,0,0,1.3946357,292.8495,383.72806)"><path id="path292" d="m 0,0 c 0,-2.88 -2.336,-5.216 -5.216,-5.216 -2.881,0 -5.216,2.336 -5.216,5.216 0,2.88 2.335,5.215 5.216,5.215 C -2.336,5.215 0,2.88 0,0" style="fill:#ffb197;fill-opacity:1;fill-rule:nonzero;stroke:none"/></g><g id="g294" transform="matrix(1.3946357,0,0,1.3946357,336.09408,384.07002)"><path id="path296" d="m 0,0 c 0,-2.88 -2.335,-5.216 -5.216,-5.216 -2.88,0 -5.216,2.336 -5.216,5.216 0,2.88 2.336,5.215 5.216,5.215 C -2.335,5.215 0,2.88 0,0" style="fill:#ffb197;fill-opacity:1;fill-rule:nonzero;stroke:none"/></g><g id="g298" transform="matrix(1.3946357,0,0,1.3946357,297.8561,385.50413)"><path id="path300" d="m 0,0 c 0,-0.707 -0.577,-1.28 -1.29,-1.28 -0.712,0 -1.289,0.573 -1.289,1.28 0,0.707 0.577,1.28 1.289,1.28 C -0.577,1.28 0,0.707 0,0" style="fill:#752b19;fill-opacity:1;fill-rule:nonzero;stroke:none"/></g><g id="g302" transform="matrix(1.3946357,0,0,1.3946357,314.71696,385.50413)"><path id="path304" d="m 0,0 c 0,-0.707 -0.577,-1.28 -1.289,-1.28 -0.712,0 -1.29,0.573 -1.29,1.28 0,0.707 0.578,1.28 1.29,1.28 C -0.577,1.28 0,0.707 0,0" style="fill:#752b19;fill-opacity:1;fill-rule:nonzero;stroke:none"/></g><g id="g306" transform="matrix(1.3946357,0,0,1.3946357,287.57875,390.4827)"><path id="path308" d="m 0,0 -0.547,0.513 c 2.533,2.701 5.85,2.072 5.989,2.046 L 5.296,1.823 C 5.176,1.847 2.24,2.389 0,0" style="fill:#c43d2b;fill-opacity:1;fill-rule:nonzero;stroke:none"/></g><g id="g310" transform="matrix(1.3946357,0,0,1.3946357,315.59405,390.4827)"><path id="path312" d="m 0,0 c -2.242,2.39 -5.175,1.848 -5.296,1.823 l -0.146,0.736 c 0.141,0.027 3.458,0.654 5.989,-2.046 z" style="fill:#c43d2b;fill-opacity:1;fill-rule:nonzero;stroke:none"/></g><g id="g314" transform="matrix(1.3946357,0,0,1.3946357,269.28922,210.12729)"><path id="path316-7" d="m 0,0 c 0,-3.422 -2.774,-6.196 -6.197,-6.196 -3.422,0 -6.197,2.774 -6.197,6.196 0,3.423 2.775,6.197 6.197,6.197 C -2.774,6.197 0,3.423 0,0" style="fill:#ffb197;fill-opacity:1;fill-rule:nonzero;stroke:none"/></g><g id="g318" transform="matrix(1.3946357,0,0,1.3946357,282.81732,354.28688)"><path id="path320" d="m 0,0 c 0,0 -11.029,-1.527 -13.585,-14.243 -1.641,-8.161 -12.885,-83.885 -12.885,-83.885 0,0 9.196,-3.442 19.417,-2.583 2.793,0.234 13,-0.834 15.438,39.094 l -5.784,48.496 z" style="fill:#403f5f;fill-opacity:1;fill-rule:nonzero;stroke:none"/></g><g id="g322" transform="matrix(1.3946357,0,0,1.3946357,282.81732,354.28688)"><path id="path324" d="m 0,0 c 0,0 -11.029,-1.527 -13.585,-14.243 -1.641,-8.161 -12.885,-83.885 -12.885,-83.885 0,0 9.196,-3.442 19.417,-2.583 2.793,0.234 13,-0.834 15.438,39.094 l -5.784,48.496 z" style="fill:#403f5f;fill-opacity:1;fill-rule:nonzero;stroke:none"/></g><g id="g326" transform="matrix(1.3946357,0,0,1.3946357,286.38703,224.76413)"><path id="path328" d="M 0,0 C 0.359,0.779 0.713,1.64 1.06,2.584 -4.544,4.445 -17.117,7.972 -27.33,6.15 -27.496,5.038 -27.653,3.984 -27.799,3.007 -21.211,2.875 -6.992,2.322 0,0" style="fill:#fc4477;fill-opacity:1;fill-rule:nonzero;stroke:none"/></g><g id="g330" transform="matrix(1.3946357,0,0,1.3946357,289.38606,233.07881)"><path id="path332" d="M 0,0 C 0.245,0.86 0.484,1.775 0.715,2.747 -4.355,4.494 -17.751,8.522 -28.52,6.607 -28.682,5.524 -28.839,4.475 -28.991,3.461 -21.986,3.32 -6.406,2.703 0,0" style="fill:#fc4477;fill-opacity:1;fill-rule:nonzero;stroke:none"/></g><g id="g334" transform="matrix(1.3946357,0,0,1.3946357,305.8588,62.068444)"><path id="path336-0" d="M 0,0 -4.918,-0.234 -21.192,-3.396 -20.958,-4.684 0,-3.63 Z" style="fill:#cf6646;fill-opacity:1;fill-rule:nonzero;stroke:none"/></g><g id="g338" transform="matrix(1.3946357,0,0,1.3946357,343.59848,53.749721)"><path id="path340" d="m 0,0 0.234,-2.81 16.625,-6.908 3.044,0.235 0.118,1.639 -14.167,8.196 z" style="fill:#cf6646;fill-opacity:1;fill-rule:nonzero;stroke:none"/></g><g id="g342" transform="matrix(1.3946357,0,0,1.3946357,348.14331,325.53075)"><path id="path344" d="m 0,0 -0.892,13.394 c -0.255,3.845 -3.155,6.994 -6.966,7.564 l -8.511,1.275 -10.636,-22.178 -12.861,21.79 -6.975,-1.226 c -3.736,-0.656 -6.534,-3.789 -6.765,-7.575 l -6.942,-130.177 c 0,0 6.853,-13.582 34.61,-12.869 27.756,0.713 35.905,12.615 35.905,12.615 z" style="fill:#35324c;fill-opacity:1;fill-rule:nonzero;stroke:none"/></g><g id="g346" transform="matrix(1.3946357,0,0,1.3946357,336.85541,354.80917)"><path id="path348" d="m 0,0 -8.275,1.239 -10.636,-22.178 -12.861,21.791 -6.975,-1.227 c -0.397,-0.069 -0.779,-0.172 -1.153,-0.295 5.128,-11.243 19.514,-41.483 19.514,-41.483 z" style="fill:#fc4477;fill-opacity:1;fill-rule:nonzero;stroke:none"/></g><g id="g350" transform="matrix(1.3946357,0,0,1.3946357,310.48132,325.60689)"><path id="path352" d="m 0,0 -5.567,-12.593 -1.911,4.034 6.439,10.32 z" style="fill:#e53e72;fill-opacity:1;fill-rule:nonzero;stroke:none"/></g><g id="g354" transform="matrix(1.3946357,0,0,1.3946357,303.28067,401.10731)"><path id="path356" d="M 0,0 C -5.152,-2.546 -9.695,-6.163 -14.672,-9.037 -14.902,-3.573 -12.07,1.919 -7.485,4.9 -4.098,7.102 1.192,8.377 5.13,6.928 11.495,4.587 2.383,1.178 0,0" style="fill:#c43d2b;fill-opacity:1;fill-rule:nonzero;stroke:none"/></g><g id="g358" transform="matrix(1.3946357,0,0,1.3946357,297.64634,390.88449)"><path id="path360-9" d="m 0,0 c 4.131,1.973 7.726,5.055 10.307,8.835 0.067,0.099 0.136,0.207 0.129,0.327 -0.012,0.165 -0.164,0.28 -0.304,0.369 C 7.229,11.366 5.98,11.004 4.239,8.377 3.315,6.984 1.145,0.546 0,0" style="fill:#c43d2b;fill-opacity:1;fill-rule:nonzero;stroke:none"/></g><g id="g362" transform="matrix(1.3946357,0,0,1.3946357,329.91082,386.47242)"><path id="path364" d="m 0,0 c -0.262,1.478 -0.149,2.882 -0.41,4.36 -0.23,1.302 -0.835,2.686 -1.312,3.92 -1.074,2.783 -10.482,10.369 -10.18,3.996 C -11.661,7.181 -4.249,1.619 0,0" style="fill:#c43d2b;fill-opacity:1;fill-rule:nonzero;stroke:none"/></g><g id="g366" transform="matrix(1.3946357,0,0,1.3946357,284.46257,413.29461)"><path id="path368" d="m 0,0 0.93,-9.994 9.064,1.627 19.524,-1.162 -0.465,12.318 c 0,0 -5.82,4.969 -14.56,5.322 C 9.021,8.333 3.896,5.549 0,0" style="fill:#35324c;fill-opacity:1;fill-rule:nonzero;stroke:none"/></g><g id="g370" transform="matrix(1.3946357,0,0,1.3946357,319.08887,413.913)"><path id="path372" d="m 0,0 c -0.204,0 -0.372,0.164 -0.375,0.369 -0.002,0.097 -0.153,9.68 -0.153,11.653 0,1.632 -0.996,1.741 -1.007,1.742 -0.206,0.018 -0.359,0.201 -0.339,0.407 0.019,0.205 0.187,0.354 0.407,0.34 C -0.883,14.458 0.222,13.87 0.222,12.022 0.222,10.055 0.373,0.478 0.375,0.381 0.378,0.174 0.213,0.003 0.006,0 Z" style="fill:#fc4477;fill-opacity:1;fill-rule:nonzero;stroke:none"/></g><g id="g374" transform="matrix(1.3946357,0,0,1.3946357,-98.659054,-49.518729)"><g id="g388"><g style="opacity:.39999402" id="g386" clip-path="url(#clipPath380)"><g id="g384" transform="translate(289.3154,224.1787)"><path id="path382-3" d="m 0,0 c 0.124,0.113 0.206,0.19 0.206,0.19 0,0 3.755,13.017 3.755,13.768 0,0.638 -1.443,9.925 -5.246,11.345 C -2.07,25.137 -2.862,24.972 -3.66,24.806 -4.394,22.048 -8.613,5.867 -8.428,-0.324 -5.427,-0.408 -2.557,-0.257 0,0" style="fill:#35324c;fill-opacity:1;fill-rule:nonzero;stroke:none"/></g></g></g></g><g id="g390" transform="matrix(1.3946357,0,0,1.3946357,358.12765,300.46873)"><path id="path392" d="m 0,0 1.862,-9.046 c 0,0 3.992,-6.385 5.588,-10.642 1.596,-4.257 6.917,-32.193 -3.459,-30.597 -10.376,1.597 -13.037,22.616 -12.239,29.267 0.799,6.651 0.799,11.174 0.799,11.174 z" style="fill:#403f5f;fill-opacity:1;fill-rule:nonzero;stroke:none"/></g><g id="g394" transform="matrix(1.3946357,0,0,1.3946357,334.97461,307.33368)"><path id="path396" d="m 0,0 2.608,-19.771 4.438,-32.518 c 0,0 6.211,-2.262 10.823,1.266 L 11.667,-19.749 9.057,2.335 C 9.057,2.335 2.118,5.846 0,0" style="fill:#fff;fill-opacity:1;fill-rule:nonzero;stroke:none"/></g><g id="g398" transform="matrix(1.3946357,0,0,1.3946357,353.94374,266.87558)"><path id="path400-6" d="M 0,0 -0.791,3.495 C -1.377,3.434 -1.967,3.405 -2.546,3.396 -5.15,3.36 -7.758,3.631 -10.304,4.183 l 0.343,-3.79 C -9.386,0.299 -0.487,0.03 0,0" style="fill:#fc4477;fill-opacity:1;fill-rule:nonzero;stroke:none"/></g><g id="g402" transform="matrix(1.3946357,0,0,1.3946357,344.80372,269.25092)"><path id="path404" d="m 0,0 -0.393,-7.994 1.834,-0.263 v 7.602 l 1.443,-7.208 c 0,0 2.358,0 1.835,0.262 -0.525,0.262 -1.573,8.256 -1.573,8.256 z" style="fill:#fc4477;fill-opacity:1;fill-rule:nonzero;stroke:none"/></g><g id="g406" transform="matrix(1.3946357,0,0,1.3946357,362.32118,274.89473)"><path id="path408" d="m 0,0 c 0,-3.422 -2.774,-6.196 -6.196,-6.196 -3.423,0 -6.198,2.774 -6.198,6.196 0,3.423 2.775,6.197 6.198,6.197 C -2.774,6.197 0,3.423 0,0" style="fill:#ffb197;fill-opacity:1;fill-rule:nonzero;stroke:none"/></g><g id="g410" transform="matrix(1.3946357,0,0,1.3946357,297.74439,375.80709)"><path id="path412" d="m 0,0 c 0.431,-3.269 3.308,-5.708 6.655,-5.528 3.349,0.179 5.949,2.91 6.029,6.207 z" style="fill:#fff;fill-opacity:1;fill-rule:nonzero;stroke:none"/></g><g id="g414" transform="matrix(1.3946357,0,0,1.3946357,307.02597,368.09698)"><path id="path416-0" d="M 0,0 C 2.543,0.136 4.651,1.747 5.555,3.957 4.673,4.37 3.679,4.579 2.638,4.523 0.105,4.388 -1.985,2.732 -2.798,0.488 -1.939,0.128 -0.991,-0.053 0,0" style="fill:#c53660;fill-opacity:1;fill-rule:nonzero;stroke:none"/></g><g id="g418" transform="matrix(1.3946357,0,0,1.3946357,-98.659054,-49.518729)"><g id="g436"><g style="opacity:.19999701" id="g434" clip-path="url(#clipPath424)"><g id="g428" transform="translate(290.6406,167.9795)"><path id="path426" d="m 0,0 -10.822,-1.237 -6.052,-3.631 3.799,-27.847 c 3.258,-0.443 7.828,-0.982 12.846,-1.371 z" style="fill:#35324c;fill-opacity:1;fill-rule:nonzero;stroke:none"/></g><g id="g432" transform="translate(306.8359,133.4551)"><path id="path430" d="m 0,0 c 5.162,0.211 9.82,0.86 13.029,2.217 l -1.056,23.454 c -0.223,0.253 -0.356,0.394 -0.356,0.394 l -16.892,5.631 z" style="fill:#35324c;fill-opacity:1;fill-rule:nonzero;stroke:none"/></g></g></g></g><g id="g438" transform="matrix(1.3946357,0,0,1.3946357,319.36124,407.56838)"><path id="path440" d="M 0,0 0.204,-1.738 1.227,-1.84 0.492,5.001 h -1.237 l -0.754,-6.568 1.115,-0.112 z" style="fill:#fc4477;fill-opacity:1;fill-rule:nonzero;stroke:none"/></g><g id="g442" transform="matrix(1.3946357,0,0,1.3946357,208.39775,55.443925)"><path id="path444" d="m 0,0 v -3.774 l 5.977,-11.954 5.032,0.315 -6.291,15.727 z" style="fill:#35324c;fill-opacity:1;fill-rule:nonzero;stroke:none"/></g><g id="g446" transform="matrix(1.3946357,0,0,1.3946357,189.28692,64.786868)"><path id="path448" d="m 0,0 -0.234,-2.811 -16.626,-6.907 -3.044,0.234 -0.117,1.639 14.167,8.196 z" style="fill:#35324c;fill-opacity:1;fill-rule:nonzero;stroke:none"/></g><g id="g450" transform="matrix(1.3946357,0,0,1.3946357,158.93309,216.33091)"><path id="path452" d="m 0,0 c 0,-3.423 -2.774,-6.197 -6.197,-6.197 -3.422,0 -6.197,2.774 -6.197,6.197 0,3.422 2.775,6.196 6.197,6.196 C -2.774,6.196 0,3.422 0,0" style="fill:#ffb197;fill-opacity:1;fill-rule:nonzero;stroke:none"/></g><g id="g454" transform="matrix(1.3946357,0,0,1.3946357,178.23262,334.45823)"><path id="path456" d="m 0,0 -2.602,14.944 c 0,0 -11.028,-1.739 -13.584,-16.222 -2.556,-14.482 -4.774,-29.8 -4.774,-29.8 l -9.47,-46.768 c 0,0 8.472,-5.295 19.856,-2.912 11.385,2.383 9.531,25.945 9.531,25.945 l 1.324,53.214 z" style="fill:#403f5f;fill-opacity:1;fill-rule:nonzero;stroke:none"/></g><g id="g458" transform="matrix(1.3946357,0,0,1.3946357,223.46986,342.27182)"><path id="path460" d="M 0,0 C -0.315,5.115 1.503,8.681 -3.579,9.344 -7.531,9.86 -21.392,13.8 -21.392,13.8 c 0,0 -16.04,-3.856 -17.626,-6.501 -3.987,-6.644 -3.749,-66.448 -3.749,-66.448 l 46.344,1.022 z" style="fill:#eef2f7;fill-opacity:1;fill-rule:nonzero;stroke:none"/></g><g id="g462" transform="matrix(1.3946357,0,0,1.3946357,163.82589,259.77981)"><path id="path464" d="m 0,0 8.345,-141.053 10.475,0.283 v 126.826 h 5.661 l 5.096,-133.054 9.626,0.283 7.141,147.737 z" style="fill:#cf6646;fill-opacity:1;fill-rule:nonzero;stroke:none"/></g><g id="g466" transform="matrix(1.3946357,0,0,1.3946357,191.69894,371.18526)"><path id="path468-6" d="m 0,0 v 0 c -2.752,0 -4.983,-2.231 -4.983,-4.983 v -6.302 c 0,-2.753 2.231,-4.984 4.983,-4.984 2.752,0 4.983,2.231 4.983,4.984 v 6.302 C 4.983,-2.231 2.752,0 0,0" style="fill:#ffb197;fill-opacity:1;fill-rule:nonzero;stroke:none"/></g><g id="g470" transform="matrix(1.3946357,0,0,1.3946357,191.69894,373.97523)"><path id="path472" d="m 0,0 v 0 c -2.752,0 -4.983,-2.231 -4.983,-4.983 v -6.395 c 1.579,-0.474 3.25,-0.735 4.983,-0.735 1.733,0 3.404,0.261 4.983,0.735 v 6.395 C 4.983,-2.231 2.752,0 0,0" style="fill:#f98e72;fill-opacity:1;fill-rule:nonzero;stroke:none"/></g><g id="g474" transform="matrix(1.3946357,0,0,1.3946357,215.88987,385.12214)"><path id="path476" d="m 0,0 c 0,-9.58 -7.766,-17.346 -17.346,-17.346 -9.58,0 -17.346,7.766 -17.346,17.346 0,9.58 7.766,17.346 17.346,17.346 C -7.766,17.346 0,9.58 0,0" style="fill:#ffb197;fill-opacity:1;fill-rule:nonzero;stroke:none"/></g><g id="g478" transform="matrix(1.3946357,0,0,1.3946357,175.7001,383.72876)"><path id="path480" d="m 0,0 c 0,-2.881 -2.335,-5.216 -5.216,-5.216 -2.88,0 -5.215,2.335 -5.215,5.216 0,2.88 2.335,5.215 5.215,5.215 C -2.335,5.215 0,2.88 0,0" style="fill:#ffb197;fill-opacity:1;fill-rule:nonzero;stroke:none"/></g><g id="g482" transform="matrix(1.3946357,0,0,1.3946357,221.55628,383.72876)"><path id="path484-2" d="m 0,0 c 0,-2.881 -2.335,-5.216 -5.215,-5.216 -2.881,0 -5.216,2.335 -5.216,5.216 0,2.88 2.335,5.215 5.216,5.215 C -2.335,5.215 0,2.88 0,0" style="fill:#ffb197;fill-opacity:1;fill-rule:nonzero;stroke:none"/></g><g id="g486" transform="matrix(1.3946357,0,0,1.3946357,167.80213,389.40883)"><path id="path488" d="m 0,0 c 0,0 12.421,14.899 27.009,11.356 0,0 -8.574,8.611 -17.332,4.147 C -0.95,10.085 0,0 0,0" style="fill:#f49200;fill-opacity:1;fill-rule:nonzero;stroke:none"/></g><g id="g490" transform="matrix(1.3946357,0,0,1.3946357,184.89116,385.50413)"><path id="path492" d="m 0,0 c 0,-0.707 -0.578,-1.28 -1.29,-1.28 -0.712,0 -1.29,0.573 -1.29,1.28 0,0.707 0.578,1.28 1.29,1.28 C -0.578,1.28 0,0.707 0,0" style="fill:#1b1936;fill-opacity:1;fill-rule:nonzero;stroke:none"/></g><g id="g494" transform="matrix(1.3946357,0,0,1.3946357,201.75287,385.50413)"><path id="path496" d="m 0,0 c 0,-0.707 -0.577,-1.28 -1.29,-1.28 -0.712,0 -1.289,0.573 -1.289,1.28 0,0.707 0.577,1.28 1.289,1.28 C -0.577,1.28 0,0.707 0,0" style="fill:#1b1936;fill-opacity:1;fill-rule:nonzero;stroke:none"/></g><g id="g498" transform="matrix(1.3946357,0,0,1.3946357,177.40392,390.4834)"><path id="path500" d="M 0,0 -0.547,0.513 C 1.985,3.214 5.302,2.587 5.442,2.559 L 5.296,1.823 C 5.172,1.847 2.24,2.388 0,0" style="fill:#752b19;fill-opacity:1;fill-rule:nonzero;stroke:none"/></g><g id="g502" transform="matrix(1.3946357,0,0,1.3946357,205.41853,390.4834)"><path id="path504" d="m 0,0 c -2.239,2.388 -5.17,1.847 -5.296,1.823 l -0.146,0.736 c 0.14,0.028 3.457,0.654 5.989,-2.046 z" style="fill:#752b19;fill-opacity:1;fill-rule:nonzero;stroke:none"/></g><g id="g506" transform="matrix(1.3946357,0,0,1.3946357,205.38645,402.42831)"><path id="path508-6" d="M 0,0 C 1.227,-2.591 2.948,-4.912 4.657,-7.214 4.988,-7.661 5.326,-8.113 5.769,-8.45 6.167,-8.753 6.645,-8.953 7.141,-9.023 7.308,-7.195 7.026,-4.973 6.148,-3.36 5.498,-2.163 4.749,-1.247 3.865,-0.209 3.09,0.7 1.424,1.163 0.392,1.748 -0.127,2.042 -0.423,2.345 -0.562,1.708 -0.666,1.229 -0.198,0.417 0,0" style="fill:#f49200;fill-opacity:1;fill-rule:nonzero;stroke:none"/></g><g id="g510" transform="matrix(1.3946357,0,0,1.3946357,151.60721,418.55588)"><path id="path512" d="M 0,0 27.448,17.174 57.043,0.613 28.829,-10.887 Z" style="fill:#403f5f;fill-opacity:1;fill-rule:nonzero;stroke:none"/></g><g id="g514" transform="matrix(1.3946357,0,0,1.3946357,168.28844,418.98347)"><path id="path516" d="m 0,0 1.84,-12.267 14.414,-3.067 13.187,3.987 2.607,13.034 c 0,0 -7.513,5.014 -16.254,5.367 C 10.323,7.275 3.896,5.549 0,0" style="fill:#35324c;fill-opacity:1;fill-rule:nonzero;stroke:none"/></g><g id="g518" transform="matrix(1.3946357,0,0,1.3946357,217.04756,409.27416)"><path id="path520" d="m 0,0 c -0.205,0 -0.372,0.164 -0.375,0.369 -0.001,0.097 -0.153,9.68 -0.153,11.653 0,1.632 -0.997,1.741 -1.007,1.742 -0.206,0.018 -0.359,0.201 -0.34,0.407 0.018,0.206 0.19,0.363 0.407,0.34 0.585,-0.053 1.69,-0.641 1.69,-2.489 C 0.222,10.055 0.374,0.478 0.375,0.381 0.378,0.174 0.213,0.003 0.006,0 Z" style="fill:#fc4477;fill-opacity:1;fill-rule:nonzero;stroke:none"/></g><g id="g522" transform="matrix(1.3946357,0,0,1.3946357,186.66988,342.50332)"><path id="path524" d="m 0,0 -4.725,-11.069 2.97,-8.37 4.995,5.399 -1.755,14.445 z" style="fill:#3f4ad1;fill-opacity:1;fill-rule:nonzero;stroke:none"/></g><g id="g526" transform="matrix(1.3946357,0,0,1.3946357,137.92165,236.3993)"><path id="path528" d="m 0,0 c 2.62,-1.164 7.436,-2.894 13.197,-3.021 l -0.195,2.328 c 0,0 -8.038,1.493 -12.54,2.977 z" style="fill:#fc4477;fill-opacity:1;fill-rule:nonzero;stroke:none"/></g><g id="g530" transform="matrix(1.3946357,0,0,1.3946357,136.79534,230.83708)"><path id="path532" d="m 0,0 c 2.427,-1.141 7.564,-3.161 13.81,-3.301 l -0.194,2.328 c 0,0 -8.834,1.642 -13.166,3.193 z" style="fill:#fc4477;fill-opacity:1;fill-rule:nonzero;stroke:none"/></g><g id="g534" transform="matrix(1.3946357,0,0,1.3946357,217.31923,402.93024)"><path id="path536" d="M 0,0 0.204,-1.738 1.227,-1.84 0.492,5 H -0.746 L -1.5,-1.568 -0.384,-1.679 Z" style="fill:#fc4477;fill-opacity:1;fill-rule:nonzero;stroke:none"/></g><g id="g538" transform="matrix(1.3946357,0,0,1.3946357,233.89071,326.33629)"><path id="path540" d="m 0,0 c -0.244,3.754 -1.515,7.46 -3.484,10.665 -2.058,3.347 -3.115,7.147 -6.211,9.567 -0.694,0.542 -3.497,0.808 -4.185,1.35 l -22.388,-25.687 -9.06,23.969 c -1.51,-0.634 -3.071,-1.34 -4.091,-2.62 -1.091,-1.369 -1.398,-3.183 -1.67,-4.912 -1.257,-8.007 -2.515,-16.014 -3.772,-24.021 -1.177,-7.496 -2.355,-14.999 -2.984,-22.561 -0.54,-6.502 -0.674,-13.032 -0.806,-19.555 -0.329,-16.169 -4.903,-67.513 -3.855,-69.567 1.872,-3.672 57.683,-6.821 71.56,1.023 C 8.031,-77.369 2.92,-44.997 0,0" style="fill:#35324c;fill-opacity:1;fill-rule:nonzero;stroke:none"/></g><g id="g542" transform="matrix(1.3946357,0,0,1.3946357,248.04348,272.77963)"><path id="path544" d="m 0,0 c 1.579,17.897 -4.219,62.473 -24.021,58.958 l 6.986,-51.483 -32.299,0.264 -1.589,-29.651 43.561,14.188 C -3.412,-7.166 -0.351,-3.974 0,0" style="fill:#403f5f;fill-opacity:1;fill-rule:nonzero;stroke:none"/></g><g id="g546" transform="matrix(1.3946357,0,0,1.3946357,200.41332,358.31752)"><path id="path548" d="m 0,0 -7.155,-3.915 -4.86,4.185 -1.08,-11.205 5.612,5.222 4.648,-5.896 z" style="fill:#fff;fill-opacity:1;fill-rule:nonzero;stroke:none"/></g><g id="g550" transform="matrix(1.3946357,0,0,1.3946357,190.05843,350.41007)"><path id="path552" d="m 0,0 -4.32,-4.05 2.025,-3.644 4.86,4.59 z" style="fill:#3f4ad1;fill-opacity:1;fill-rule:nonzero;stroke:none"/></g><g id="g554" transform="matrix(1.3946357,0,0,1.3946357,179.23982,283.57313)"><path id="path556-1" d="m 0,0 c 0,0 8.278,-0.287 8.57,-0.334 2.463,-0.391 1.226,-12.903 1.226,-12.903 L 2.913,-30.181 -4.236,-4.766 Z" style="fill:#35324c;fill-opacity:1;fill-rule:nonzero;stroke:none"/></g><g id="g558" transform="matrix(1.3946357,0,0,1.3946357,182.06521,375.49441)"><path id="path560" d="m 0,0 c 0.691,-3.413 3.775,-5.911 7.362,-5.748 3.587,0.164 6.431,2.931 6.81,6.393 z" style="fill:#c53660;fill-opacity:1;fill-rule:nonzero;stroke:none"/></g><g id="g562" transform="matrix(1.3946357,0,0,1.3946357,182.06521,375.49441)"><path id="path564" d="m 0,0 c 0.166,-0.82 0.474,-1.585 0.89,-2.276 l 9.776,0.444 c 0.923,0.042 1.637,0.825 1.595,1.748 l -0.029,0.64 z" style="fill:#fff;fill-opacity:1;fill-rule:nonzero;stroke:none"/></g><g id="g566" transform="matrix(1.3946357,0,0,1.3946357,160.20932,348.48366)"><path id="path568" d="M 0,0 14.266,-35.104 16.564,-19.985 8.68,5.161 C 8.68,5.161 1.876,3.519 0,0" style="fill:#e53e72;fill-opacity:1;fill-rule:nonzero;stroke:none"/></g><g id="g570" transform="matrix(1.3946357,0,0,1.3946357,180.10533,299.52637)"><path id="path572" d="m 0,0 34.417,37.716 c 0,0 -4.539,3.902 -9.731,3.089 L 2.298,15.119 Z" style="fill:#fc4477;fill-opacity:1;fill-rule:nonzero;stroke:none"/></g><g id="g574" transform="matrix(1.3946357,0,0,1.3946357,160.04043,308.3116)"><path id="path576-8" d="m 0,0 10.59,-52.949 0.906,-0.65 c 3.796,-2.718 9.138,-0.717 10.213,3.827 L 11.384,-20.121 11.119,5.295 C 11.119,5.295 -0.529,7.678 0,0" style="fill:#fff;fill-opacity:1;fill-rule:nonzero;stroke:none"/></g><g id="g578" transform="matrix(1.3946357,0,0,1.3946357,180.16112,279.66843)"><path id="path580" d="m 0,0 c 0,-3.423 -2.774,-6.197 -6.197,-6.197 -3.422,0 -6.197,2.774 -6.197,6.197 0,3.422 2.775,6.196 6.197,6.196 C -2.774,6.196 0,3.422 0,0" style="fill:#ffb197;fill-opacity:1;fill-rule:nonzero;stroke:none"/></g><g id="g582" transform="matrix(1.3946357,0,0,1.3946357,173.33242,276.92686)"><path id="path584" d="m 0,0 c 2.118,-1.588 13.767,-2.383 13.767,-2.383 l 0.224,0.721 c 0.664,2.138 0.179,4.468 -1.283,6.163 L 1.854,5.295 Z" style="fill:#ffb197;fill-opacity:1;fill-rule:nonzero;stroke:none"/></g><g id="g586" transform="matrix(1.3946357,0,0,1.3946357,201.88773,250.31846)"><path id="path588" d="M 0,0 3.795,1.236 C 5.43,5.564 6.491,12.62 4.416,23.676 L 1.257,23.701 C 2.388,19.052 4.465,7.643 0,0" style="fill:#fc4477;fill-opacity:1;fill-rule:nonzero;stroke:none"/></g><g id="g590" transform="matrix(1.3946357,0,0,1.3946357,192.42889,247.23771)"><path id="path592" d="M 0,0 4.215,1.373 C 6.17,5.626 7.736,13.201 5.213,25.934 L 2.012,25.96 C 3.111,21.764 6.047,8.037 0,0" style="fill:#fc4477;fill-opacity:1;fill-rule:nonzero;stroke:none"/></g><g id="g594" transform="matrix(1.3946357,0,0,1.3946357,-98.659054,-49.518729)"><g id="g612"><g style="opacity:.39999402" id="g610" clip-path="url(#clipPath600)"><g id="g604" transform="translate(193.3032,135.6982)"><path id="path602" d="M 0,0 C 3.33,-0.765 8.326,-1.791 13.727,-2.674 V 26.271 L 9.245,26.711 -1.467,24.799 Z" style="fill:#35324c;fill-opacity:1;fill-rule:nonzero;stroke:none"/></g><g id="g608" transform="translate(230.1392,131.4629)"><path id="path606" d="M 0,0 1.253,25.921 -5.566,28.78 -15.663,29.773 -14.536,0.36 C -9.007,-0.265 -3.737,-0.523 0,0" style="fill:#35324c;fill-opacity:1;fill-rule:nonzero;stroke:none"/></g></g></g></g><g id="g614" transform="matrix(1.3946357,0,0,1.3946357,459.32325,348.35215)"><path id="path616" d="m 0,0 c 0,0 11.792,-31.584 13.777,-31.981 1.986,-0.397 9.864,30.156 9.864,30.156 0,0 15.089,-3.177 17.075,-15.487 C 42.701,-29.623 18.871,-53.638 14.106,-55.625 9.341,-57.61 3.573,-56.513 0,-48.571 -3.574,-40.628 -16.801,-6.963 -16.403,-5.375 -16.006,-3.787 0,0 0,0" style="fill:#403f5f;fill-opacity:1;fill-rule:nonzero;stroke:none"/></g><g id="g618" transform="matrix(1.3946357,0,0,1.3946357,411.47526,55.443925)"><path id="path620" d="m 0,0 v -3.774 l -5.977,-11.954 -5.032,0.315 6.291,15.727 z" style="fill:#35324c;fill-opacity:1;fill-rule:nonzero;stroke:none"/></g><g id="g622" transform="matrix(1.3946357,0,0,1.3946357,430.58609,64.786868)"><path id="path624" d="m 0,0 0.234,-2.811 16.626,-6.907 3.044,0.234 0.117,1.639 -14.167,8.196 z" style="fill:#35324c;fill-opacity:1;fill-rule:nonzero;stroke:none"/></g><g id="g626" transform="matrix(1.3946357,0,0,1.3946357,396.40399,342.27182)"><path id="path628" d="M 0,0 C 0.314,5.115 -1.503,8.681 3.579,9.344 7.531,9.86 21.392,13.8 21.392,13.8 c 0,0 16.04,-3.856 17.627,-6.501 3.986,-6.644 3.748,-66.448 3.748,-66.448 l -46.344,1.022 z" style="fill:#eef2f7;fill-opacity:1;fill-rule:nonzero;stroke:none"/></g><g id="g630" transform="matrix(1.3946357,0,0,1.3946357,456.04781,259.77981)"><path id="path632" d="m 0,0 -8.346,-141.053 -10.474,0.283 v 126.826 h -5.661 l -5.096,-133.054 -9.626,0.283 -7.141,147.737 z" style="fill:#5393db;fill-opacity:1;fill-rule:nonzero;stroke:none"/></g><g id="g634" transform="matrix(1.3946357,0,0,1.3946357,428.17407,371.18526)"><path id="path636" d="m 0,0 v 0 c 2.753,0 4.983,-2.231 4.983,-4.983 v -6.302 c 0,-2.753 -2.23,-4.984 -4.983,-4.984 -2.752,0 -4.983,2.231 -4.983,4.984 v 6.302 C -4.983,-2.231 -2.752,0 0,0" style="fill:#ffb197;fill-opacity:1;fill-rule:nonzero;stroke:none"/></g><g id="g638" transform="matrix(1.3946357,0,0,1.3946357,428.17407,373.97523)"><path id="path640" d="m 0,0 v 0 c 2.753,0 4.983,-2.231 4.983,-4.983 v -6.395 C 3.404,-11.852 1.733,-12.113 0,-12.113 c -1.732,0 -3.403,0.261 -4.983,0.735 v 6.395 C -4.983,-2.231 -2.752,0 0,0" style="fill:#f98e72;fill-opacity:1;fill-rule:nonzero;stroke:none"/></g><g id="g642" transform="matrix(1.3946357,0,0,1.3946357,403.98313,385.12214)"><path id="path644" d="m 0,0 c 0,-9.58 7.767,-17.346 17.346,-17.346 9.58,0 17.346,7.766 17.346,17.346 0,9.58 -7.766,17.346 -17.346,17.346 C 7.767,17.346 0,9.58 0,0" style="fill:#ffb197;fill-opacity:1;fill-rule:nonzero;stroke:none"/></g><g id="g646" transform="matrix(1.3946357,0,0,1.3946357,444.17291,383.72876)"><path id="path648" d="m 0,0 c 0,-2.881 2.336,-5.216 5.216,-5.216 2.881,0 5.216,2.335 5.216,5.216 0,2.88 -2.335,5.215 -5.216,5.215 C 2.336,5.215 0,2.88 0,0" style="fill:#ffb197;fill-opacity:1;fill-rule:nonzero;stroke:none"/></g><g id="g650" transform="matrix(1.3946357,0,0,1.3946357,398.31743,383.72876)"><path id="path652" d="m 0,0 c 0,-2.881 2.335,-5.216 5.215,-5.216 2.881,0 5.216,2.335 5.216,5.216 0,2.88 -2.335,5.215 -5.216,5.215 C 2.335,5.215 0,2.88 0,0" style="fill:#ffb197;fill-opacity:1;fill-rule:nonzero;stroke:none"/></g><g id="g654" transform="matrix(1.3946357,0,0,1.3946357,416.85088,384.85925)"><path id="path656" d="M 0,0 C 0,-1.123 0.957,0.943 2.088,0.943 3.219,0.943 4.096,-1.123 4.096,0 4.096,1.123 3.18,2.032 2.048,2.032 0.917,2.032 0,1.123 0,0" style="fill:#1b1936;fill-opacity:1;fill-rule:nonzero;stroke:none"/></g><g id="g658" transform="matrix(1.3946357,0,0,1.3946357,434.09583,385.0213)"><path id="path660" d="M 0,0 C 0,-1.123 0.956,0.943 2.087,0.943 3.218,0.943 4.096,-1.123 4.096,0 4.096,1.123 3.179,2.032 2.048,2.032 0.917,2.032 0,1.123 0,0" style="fill:#1b1936;fill-opacity:1;fill-rule:nonzero;stroke:none"/></g><g id="g662" transform="matrix(1.3946357,0,0,1.3946357,492.16665,318.98238)"><path id="path664" d="m 0,0 c 0.487,-3.287 1.513,-6.909 4.402,-8.549 3.013,-1.712 7.118,-0.404 9.247,2.33 2.129,2.734 2.544,6.494 1.934,9.905 -0.858,4.787 -3.73,9.104 -7.62,11.98 -1.622,1.199 -4.459,3.168 -6.57,3.15 C -0.222,18.803 0.041,18.024 -0.169,16.371 -0.374,14.754 -0.513,13.129 -0.586,11.502 -0.759,7.661 -0.563,3.803 0,0" style="fill:#35324c;fill-opacity:1;fill-rule:nonzero;stroke:none"/></g><g id="g666" transform="matrix(1.3946357,0,0,1.3946357,491.93109,341.8134)"><path id="path668" d="m 0,0 c -0.205,-1.616 -0.344,-3.241 -0.417,-4.869 -0.173,-3.84 0.022,-7.698 0.586,-11.502 0.016,-0.102 0.036,-0.206 0.053,-0.309 1.874,4.901 6.247,16.342 6.373,16.72 L 6.54,0.41 C 4.988,1.432 3.088,2.458 1.562,2.446 -0.053,2.432 0.21,1.654 0,0" style="fill:#ffb197;fill-opacity:1;fill-rule:nonzero;stroke:none"/></g><g id="g670" transform="matrix(1.3946357,0,0,1.3946357,492.14754,342.62787)"><path id="path672" d="m 0,0 c -0.462,0.65 -0.926,1.305 -1.262,2.028 -0.293,0.63 -0.483,1.302 -0.705,1.961 -1.111,3.302 -3.042,6.324 -5.57,8.72 0.346,0.266 0.741,0.38 1.174,0.326 0.432,-0.054 0.842,-0.22 1.246,-0.385 0.819,-0.334 1.665,-0.692 2.26,-1.348 0.37,-0.41 1.037,-0.079 1.331,0.388 0.295,0.468 0.325,1.049 0.346,1.601 l 0.305,7.793 c 0.036,0.916 0.074,1.846 0.347,2.722 0.273,0.876 0.813,1.707 1.628,2.131 0.293,0.152 0.439,-0.246 0.57,-0.549 0.132,-0.303 0.138,-0.643 0.136,-0.973 -0.018,-2.948 -0.551,-5.913 -0.118,-8.829 0.044,-0.293 0.1,-0.591 0.255,-0.843 0.155,-0.252 0.43,-0.45 0.725,-0.433 1.183,0.07 1.249,1.842 1.384,3.019 0.325,2.828 0.649,5.656 0.974,8.483 0.057,0.492 0.118,0.996 0.349,1.432 0.231,0.437 0.678,0.796 1.171,0.777 C 7.092,28 7.533,27.522 7.691,27 7.85,26.478 7.786,25.917 7.722,25.375 7.324,22.04 6.927,18.705 6.529,15.37 6.451,14.71 6.446,13.893 7.021,13.561 c 0.876,0.363 1.378,1.299 1.726,2.181 0.736,1.866 1.345,3.783 1.819,5.731 0.11,0.447 0.216,0.905 0.462,1.294 0.246,0.388 0.666,0.7 1.126,0.684 0.51,-0.018 0.937,-0.439 1.11,-0.918 0.173,-0.48 0.139,-1.008 0.075,-1.513 -0.428,-3.37 -2.099,-6.446 -2.962,-9.73 -0.066,-0.252 0.098,-0.53 0.357,-0.518 0.26,0.013 0.467,0.212 0.649,0.399 0.734,0.758 1.47,1.516 2.204,2.273 0.379,0.39 0.792,0.799 1.325,0.904 0.533,0.104 1.19,-0.267 1.158,-0.81 -0.013,-0.235 -0.147,-0.444 -0.277,-0.64 C 14.833,11.445 13.873,9.992 12.914,8.539 12.61,8.08 12.304,7.613 12.132,7.089 11.916,6.43 11.693,5.661 11.508,4.992 11.298,4.238 11.088,3.481 10.776,2.763 9.906,0.76 8.186,-0.903 6.087,-1.509 3.988,-2.115 1.264,-1.781 0,0" style="fill:#ffb197;fill-opacity:1;fill-rule:nonzero;stroke:none"/></g><g id="g674" transform="matrix(1.3946357,0,0,1.3946357,442.46908,390.4834)"><path id="path676" d="m 0,0 c -2.25,2.399 -5.266,1.83 -5.296,1.823 l -0.146,0.736 c 0.139,0.028 3.457,0.654 5.989,-2.046 z" style="fill:#1b1936;fill-opacity:1;fill-rule:nonzero;stroke:none"/></g><g id="g678" transform="matrix(1.3946357,0,0,1.3946357,414.45517,390.4834)"><path id="path680" d="M 0,0 -0.547,0.513 C 1.984,3.213 5.3,2.587 5.441,2.559 L 5.295,1.823 C 5.174,1.848 2.239,2.388 0,0" style="fill:#1b1936;fill-opacity:1;fill-rule:nonzero;stroke:none"/></g><g id="g682" transform="matrix(1.3946357,0,0,1.3946357,433.20382,342.50332)"><path id="path684" d="m 0,0 4.725,-11.069 -2.97,-8.37 -4.995,5.399 1.755,14.445 z" style="fill:#3f4ad1;fill-opacity:1;fill-rule:nonzero;stroke:none"/></g><g id="g686" transform="matrix(1.3946357,0,0,1.3946357,385.98229,326.33629)"><path id="path688-7" d="m 0,0 c 0.244,3.754 1.515,7.46 3.485,10.665 2.058,3.347 3.115,7.147 6.21,9.567 0.695,0.542 3.497,0.808 4.186,1.35 l 22.387,-25.687 9.061,23.969 c 1.51,-0.634 3.07,-1.34 4.091,-2.62 1.09,-1.369 1.398,-3.183 1.669,-4.912 1.258,-8.007 2.515,-16.014 3.772,-24.021 1.177,-7.496 2.356,-14.999 2.984,-22.561 0.541,-6.502 0.674,-13.032 0.806,-19.555 0.329,-16.169 4.903,-67.513 3.856,-69.567 -1.873,-3.672 -57.684,-6.821 -71.561,1.023 C -8.031,-77.369 -2.92,-44.997 0,0" style="fill:#35324c;fill-opacity:1;fill-rule:nonzero;stroke:none"/></g><g id="g690" transform="matrix(1.3946357,0,0,1.3946357,371.83023,272.77963)"><path id="path692" d="M 0,0 C -1.579,17.897 4.219,62.473 24.021,58.958 L 17.035,7.475 49.334,7.739 50.923,-21.912 7.361,-7.724 C 3.412,-7.166 0.351,-3.974 0,0" style="fill:#403f5f;fill-opacity:1;fill-rule:nonzero;stroke:none"/></g><g id="g694" transform="matrix(1.3946357,0,0,1.3946357,419.46038,358.31752)"><path id="path696" d="m 0,0 7.154,-3.915 4.861,4.185 1.08,-11.205 -5.612,5.222 -4.648,-5.896 z" style="fill:#fff;fill-opacity:1;fill-rule:nonzero;stroke:none"/></g><g id="g698" transform="matrix(1.3946357,0,0,1.3946357,429.81527,350.41007)"><path id="path700" d="m 0,0 4.319,-4.05 -2.024,-3.644 -4.86,4.59 z" style="fill:#3f4ad1;fill-opacity:1;fill-rule:nonzero;stroke:none"/></g><g id="g702" transform="matrix(1.3946357,0,0,1.3946357,440.63318,283.57313)"><path id="path704" d="m 0,0 c 0,0 -8.277,-0.287 -8.569,-0.334 -2.464,-0.391 -1.227,-12.903 -1.227,-12.903 l 6.884,-16.944 7.148,25.415 z" style="fill:#35324c;fill-opacity:1;fill-rule:nonzero;stroke:none"/></g><g id="g706" transform="matrix(1.3946357,0,0,1.3946357,459.66508,348.48366)"><path id="path708" d="m 0,0 -14.267,-35.104 -2.298,15.119 7.884,25.146 c 0,0 6.804,-1.642 8.681,-5.161" style="fill:#e53e72;fill-opacity:1;fill-rule:nonzero;stroke:none"/></g><g id="g710" transform="matrix(1.3946357,0,0,1.3946357,439.76837,299.52637)"><path id="path712" d="m 0,0 -34.417,37.716 c 0,0 4.538,3.902 9.731,3.089 L -2.299,15.119 Z" style="fill:#fc4477;fill-opacity:1;fill-rule:nonzero;stroke:none"/></g><g id="g714" transform="matrix(1.3946357,0,0,1.3946357,459.83257,308.3116)"><path id="path716" d="m 0,0 -10.59,-52.949 -0.906,-0.65 c -3.796,-2.718 -9.138,-0.717 -10.213,3.827 l 10.325,29.651 0.265,25.416 C -11.119,5.295 0.53,7.678 0,0" style="fill:#fff;fill-opacity:1;fill-rule:nonzero;stroke:none"/></g><g id="g718" transform="matrix(1.3946357,0,0,1.3946357,442.19127,279.04866)"><path id="path720" d="M 0,0 9.96,-1.153 9.698,-3.25 -0.314,-1.572 Z" style="fill:#fc4477;fill-opacity:1;fill-rule:nonzero;stroke:none"/></g><g id="g722" transform="matrix(1.3946357,0,0,1.3946357,446.5781,277.14749)"><path id="path724" d="m 0,0 -0.63,-13.315 1.049,-0.106 0.682,12.006 1.1,-12.163 0.892,-0.052 -0.157,13.473 z" style="fill:#fc4477;fill-opacity:1;fill-rule:nonzero;stroke:none"/></g><g id="g726" transform="matrix(1.3946357,0,0,1.3946357,439.71258,279.66843)"><path id="path728-9" d="m 0,0 c 0,-3.423 2.774,-6.197 6.196,-6.197 3.423,0 6.198,2.774 6.198,6.197 0,3.422 -2.775,6.196 -6.198,6.196 C 2.774,6.196 0,3.422 0,0" style="fill:#ffb197;fill-opacity:1;fill-rule:nonzero;stroke:none"/></g><g id="g730" transform="matrix(1.3946357,0,0,1.3946357,446.54142,276.92686)"><path id="path732" d="m 0,0 c -2.118,-1.588 -13.767,-2.383 -13.767,-2.383 l -0.223,0.721 c -0.665,2.138 -0.18,4.468 1.282,6.163 l 10.854,0.794 z" style="fill:#ffb197;fill-opacity:1;fill-rule:nonzero;stroke:none"/></g><g id="g734" transform="matrix(1.3946357,0,0,1.3946357,417.98541,250.31846)"><path id="path736" d="M 0,0 -3.795,1.236 C -5.43,5.564 -6.49,12.62 -4.415,23.676 l 3.158,0.025 C -2.387,19.052 -4.465,7.643 0,0" style="fill:#fc4477;fill-opacity:1;fill-rule:nonzero;stroke:none"/></g><g id="g738" transform="matrix(1.3946357,0,0,1.3946357,427.44411,247.23771)"><path id="path740" d="M 0,0 -4.215,1.373 C -6.17,5.626 -7.736,13.201 -5.213,25.934 l 3.201,0.026 C -3.111,21.764 -6.047,8.037 0,0" style="fill:#fc4477;fill-opacity:1;fill-rule:nonzero;stroke:none"/></g><g id="g742" transform="matrix(1.3946357,0,0,1.3946357,416.90541,400.73815)"><path id="path744-2" d="m 0,0 c 0,0 -5.621,-2.727 -6.134,-3.271 -0.512,-0.545 1.18,-2.47 0.92,-3.172 -0.351,-0.952 -0.619,-1.935 -0.798,-2.934 -0.068,-0.382 -0.165,-0.824 -0.513,-0.993 -0.354,-0.171 -0.789,0.052 -1.017,0.371 -0.229,0.32 -0.314,0.716 -0.458,1.081 -0.325,0.83 -0.956,1.521 -1.232,2.368 -0.163,0.495 -0.195,1.025 -0.16,1.544 0.109,1.568 1.802,6.424 2.986,7.459 0.705,0.617 2.328,-1.16 3.287,-1.967 C -2.55,0.006 0,0 0,0" style="fill:#1b1936;fill-opacity:1;fill-rule:nonzero;stroke:none"/></g><g id="g746" transform="matrix(1.3946357,0,0,1.3946357,444.66591,392.45415)"><path id="path748" d="M 0,0 C 0.597,-2.149 1.615,-4.21 3.155,-5.823 5.047,-3.314 5.595,0.15 4.569,3.121 4.086,4.521 1.71,8.228 -0.232,6.828 -1.709,5.765 -0.374,1.349 0,0" style="fill:#1b1936;fill-opacity:1;fill-rule:nonzero;stroke:none"/></g><g id="g750" transform="matrix(1.3946357,0,0,1.3946357,467.12582,418.55588)"><path id="path752" d="m 0,0 -27.448,17.174 -29.595,-16.561 28.215,-11.5 z" style="fill:#403f5f;fill-opacity:1;fill-rule:nonzero;stroke:none"/></g><g id="g754" transform="matrix(1.3946357,0,0,1.3946357,450.44472,418.98347)"><path id="path756" d="m 0,0 -1.84,-12.267 -11.849,-2.043 -16.903,1.909 -1.456,14.088 c 0,0 7.513,5.014 16.254,5.367 C -10.323,7.275 -3.896,5.549 0,0" style="fill:#35324c;fill-opacity:1;fill-rule:nonzero;stroke:none"/></g><g id="g758" transform="matrix(1.3946357,0,0,1.3946357,401.68561,409.27416)"><path id="path760-0" d="m 0,0 h -0.006 c -0.207,0.003 -0.372,0.174 -0.369,0.381 0.002,0.097 0.153,9.674 0.153,11.641 0,1.848 1.105,2.436 1.689,2.489 0.229,0.016 0.388,-0.135 0.407,-0.34 C 1.893,13.966 1.743,13.785 1.539,13.764 1.434,13.751 0.528,13.596 0.528,12.022 0.528,10.049 0.377,0.466 0.375,0.369 0.372,0.164 0.204,0 0,0" style="fill:#fc4477;fill-opacity:1;fill-rule:nonzero;stroke:none"/></g><g id="g762" transform="matrix(1.3946357,0,0,1.3946357,401.41449,402.93024)"><path id="path764" d="M 0,0 -0.205,-1.738 -1.228,-1.84 -0.492,5 H 0.745 L 1.499,-1.568 0.384,-1.679 Z" style="fill:#fc4477;fill-opacity:1;fill-rule:nonzero;stroke:none"/></g><g id="g766" transform="matrix(1.3946357,0,0,1.3946357,428.60319,372.06305)"><path id="path768" d="m 0,0 c -0.672,0 -1.385,0.071 -2.134,0.237 l 0.162,0.733 c 4.813,-1.069 8.087,2.198 8.12,2.232 L 6.685,2.677 C 6.561,2.551 4.014,0 0,0" style="fill:#f55b30;fill-opacity:1;fill-rule:nonzero;stroke:none"/></g><g id="g770" transform="matrix(1.3946357,0,0,1.3946357,-98.659054,-49.518729)"><g id="g788"><g style="opacity:.30000299" id="g786" clip-path="url(#clipPath776)"><g id="g780" transform="translate(392.3486,130.6074)"><path id="path778" d="m 0,0 1.93,32.608 -15.356,5.631 V 0.356 C -8.582,-0.254 -3.896,-0.479 0,0" style="fill:#35324c;fill-opacity:1;fill-rule:nonzero;stroke:none"/></g><g id="g784" transform="translate(355.5986,135.9238)"><path id="path782" d="M 0,0 C 3.894,-1.093 9.162,-2.452 14.772,-3.559 L 16.168,32.874 0.406,32.624 -1.458,30.171 Z" style="fill:#35324c;fill-opacity:1;fill-rule:nonzero;stroke:none"/></g></g></g></g><g id="g790" transform="matrix(1.3946357,0,0,1.3946357,496.77271,304.70103)"><path id="path792-2" d="M 0,0 C -6.618,6.018 -4.744,21.338 -4.725,21.493 L -5.328,21.57 C -5.834,19.728 -6.399,17.707 -6.993,15.646 -6.908,10.265 -5.9,2.665 -1.349,-1.478 0.779,-3.414 3.447,-4.389 6.613,-4.401 7.104,-3.71 7.575,-3.015 8.035,-2.319 4.741,-2.615 2.036,-1.852 0,0" style="fill:#fc4477;fill-opacity:1;fill-rule:nonzero;stroke:none"/></g><g id="g794" transform="matrix(1.3946357,0,0,1.3946357,493.14582,299.71423)"><path id="path796" d="m 0,0 c -4.421,4.02 -5.051,12.188 -4.978,17.217 -0.583,-1.983 -1.178,-3.944 -1.758,-5.755 0.516,-4.65 1.93,-9.794 5.388,-12.94 2.111,-1.919 4.753,-2.892 7.886,-2.92 0.542,0.69 1.076,1.385 1.599,2.088 C 4.796,-2.63 2.058,-1.871 0,0" style="fill:#fc4477;fill-opacity:1;fill-rule:nonzero;stroke:none"/></g></g></g></svg>